M48
; DRILL file {KiCad (7.0.0-0)} date Friday, 05 May 2023 at 11:00:52 PM
; FORMAT={-:-/ absolute / metric / decimal}
; #@! TF.CreationDate,2023-05-05T23:00:52+10:00
; #@! TF.GenerationSoftware,Kicad,Pcbnew,(7.0.0-0)
; #@! TF.FileFunction,Plated,1,2,PTH
FMAT,2
METRIC
; #@! TA.AperFunction,Plated,PTH,ViaDrill
T1C0.300
; #@! TA.AperFunction,Plated,PTH,ViaDrill
T2C0.400
; #@! TA.AperFunction,Plated,PTH,ComponentDrill
T3C1.000
; #@! TA.AperFunction,Plated,PTH,ComponentDrill
T4C2.200
%
G90
G05
T1
X108.0Y-55.0
X108.0Y-56.0
X108.0Y-57.0
X108.0Y-58.0
X108.0Y-59.0
X108.0Y-60.0
X108.0Y-109.0
X108.0Y-110.0
X108.0Y-111.0
X108.0Y-112.0
X108.0Y-113.0
X108.0Y-114.0
X108.5Y-28.0
X108.5Y-34.0
X108.5Y-35.5
X108.5Y-37.0
X108.5Y-38.5
X108.5Y-40.0
X108.5Y-41.5
X108.5Y-43.0
X108.5Y-44.5
X108.5Y-82.0
X108.5Y-88.0
X108.5Y-89.5
X108.5Y-91.0
X108.5Y-92.5
X108.5Y-94.0
X108.5Y-95.5
X108.5Y-97.0
X108.5Y-98.5
X108.75Y-30.25
X108.75Y-31.25
X108.75Y-84.25
X108.75Y-85.25
X109.0Y-29.25
X109.0Y-60.0
X109.0Y-83.25
X109.0Y-114.0
X109.25Y-27.0
X109.25Y-32.25
X109.25Y-81.0
X109.25Y-86.25
X109.42Y-42.35
X109.42Y-96.35
X109.47Y-37.29
X109.47Y-91.29
X109.75Y-34.75
X109.75Y-88.75
X109.84Y-39.82
X109.84Y-93.82
X110.0Y-60.0
X110.0Y-114.0
X110.5Y-29.5
X110.5Y-83.5
X110.75Y-27.0
X110.75Y-81.0
X111.0Y-32.25
X111.0Y-46.5
X111.0Y-59.5
X111.0Y-86.25
X111.0Y-100.5
X111.0Y-113.5
X111.49Y-33.47
X111.49Y-87.47
X112.0Y-29.5
X112.0Y-83.5
X112.25Y-27.0
X112.25Y-81.0
X112.5Y-34.75
X112.5Y-42.25
X112.5Y-88.75
X112.5Y-96.25
X113.0Y-45.0
X113.0Y-99.0
X113.32Y-37.51
X113.32Y-91.51
X113.5Y-27.0
X113.5Y-28.0
X113.5Y-29.0
X113.5Y-30.0
X113.5Y-31.0
X113.5Y-32.0
X113.5Y-81.0
X113.5Y-82.0
X113.5Y-83.0
X113.5Y-84.0
X113.5Y-85.0
X113.5Y-86.0
X113.56Y-38.52
X113.56Y-92.52
X114.4Y-39.76
X114.4Y-93.76
X114.5Y-34.75
X114.5Y-88.75
X114.63Y-32.12
X114.63Y-86.12
X115.0Y-27.0
X115.0Y-81.0
X115.25Y-29.5
X115.25Y-83.5
X115.743Y-36.0
X115.743Y-90.0
X116.0Y-42.25
X116.0Y-46.0
X116.0Y-96.25
X116.0Y-100.0
X116.02Y-43.62
X116.02Y-97.62
X116.25Y-39.75
X116.25Y-93.75
X116.5Y-27.0
X116.5Y-57.0
X116.5Y-81.0
X116.5Y-111.0
X116.75Y-29.5
X116.75Y-83.5
X116.96Y-37.24
X116.96Y-91.24
X116.98Y-38.58
X116.98Y-92.58
X117.0Y-42.25
X117.0Y-47.0
X117.0Y-62.5
X117.0Y-96.25
X117.0Y-101.0
X117.0Y-116.5
X117.05Y-33.39
X117.05Y-87.39
X117.08Y-35.97
X117.08Y-89.97
X117.16Y-39.73
X117.16Y-93.73
X117.21Y-34.76
X117.21Y-88.76
X117.5Y-57.0
X117.5Y-63.5
X117.5Y-111.0
X117.5Y-117.5
X117.685Y-31.655
X117.685Y-85.655
X118.0Y-27.0
X118.0Y-62.5
X118.0Y-81.0
X118.0Y-116.5
X118.25Y-28.0
X118.25Y-29.25
X118.25Y-82.0
X118.25Y-83.25
X118.5Y-42.25
X118.5Y-43.5
X118.5Y-47.5
X118.5Y-57.0
X118.5Y-63.5
X118.5Y-96.25
X118.5Y-97.5
X118.5Y-101.5
X118.5Y-111.0
X118.5Y-117.5
X118.75Y-45.5
X118.75Y-99.5
X119.0Y-62.5
X119.0Y-116.5
X119.25Y-29.0
X119.25Y-33.75
X119.25Y-34.75
X119.25Y-35.75
X119.25Y-36.75
X119.25Y-83.0
X119.25Y-87.75
X119.25Y-88.75
X119.25Y-89.75
X119.25Y-90.75
X119.29Y-39.5
X119.29Y-93.5
X119.5Y-30.0
X119.5Y-38.5
X119.5Y-42.5
X119.5Y-43.5
X119.5Y-47.5
X119.5Y-57.0
X119.5Y-63.5
X119.5Y-84.0
X119.5Y-92.5
X119.5Y-96.5
X119.5Y-97.5
X119.5Y-101.5
X119.5Y-111.0
X119.5Y-117.5
X120.0Y-35.5
X120.0Y-36.5
X120.0Y-37.5
X120.0Y-45.5
X120.0Y-62.5
X120.0Y-89.5
X120.0Y-90.5
X120.0Y-91.5
X120.0Y-99.5
X120.0Y-116.5
X120.25Y-29.0
X120.25Y-83.0
X120.5Y-30.0
X120.5Y-33.5
X120.5Y-34.5
X120.5Y-42.5
X120.5Y-43.5
X120.5Y-47.5
X120.5Y-57.0
X120.5Y-63.5
X120.5Y-84.0
X120.5Y-87.5
X120.5Y-88.5
X120.5Y-96.5
X120.5Y-97.5
X120.5Y-101.5
X120.5Y-111.0
X120.5Y-117.5
X121.0Y-35.5
X121.0Y-36.5
X121.0Y-37.5
X121.0Y-38.5
X121.0Y-45.5
X121.0Y-62.5
X121.0Y-89.5
X121.0Y-90.5
X121.0Y-91.5
X121.0Y-92.5
X121.0Y-99.5
X121.0Y-116.5
X121.5Y-29.5
X121.5Y-34.0
X121.5Y-42.5
X121.5Y-43.5
X121.5Y-47.5
X121.5Y-83.5
X121.5Y-88.0
X121.5Y-96.5
X121.5Y-97.5
X121.5Y-101.5
X122.0Y-35.5
X122.0Y-36.5
X122.0Y-37.5
X122.0Y-38.5
X122.0Y-45.5
X122.0Y-57.5
X122.0Y-89.5
X122.0Y-90.5
X122.0Y-91.5
X122.0Y-92.5
X122.0Y-99.5
X122.0Y-111.5
X122.5Y-30.0
X122.5Y-31.0
X122.5Y-32.0
X122.5Y-33.0
X122.5Y-34.0
X122.5Y-40.0
X122.5Y-41.0
X122.5Y-42.0
X122.5Y-47.5
X122.5Y-84.0
X122.5Y-85.0
X122.5Y-86.0
X122.5Y-87.0
X122.5Y-88.0
X122.5Y-94.0
X122.5Y-95.0
X122.5Y-96.0
X122.5Y-101.5
X123.0Y-35.5
X123.0Y-36.5
X123.0Y-37.5
X123.0Y-38.5
X123.0Y-57.5
X123.0Y-89.5
X123.0Y-90.5
X123.0Y-91.5
X123.0Y-92.5
X123.0Y-111.5
X123.25Y-45.5
X123.25Y-99.5
X123.5Y-30.0
X123.5Y-31.0
X123.5Y-32.0
X123.5Y-33.0
X123.5Y-34.0
X123.5Y-40.0
X123.5Y-41.0
X123.5Y-42.0
X123.5Y-47.5
X123.5Y-84.0
X123.5Y-85.0
X123.5Y-86.0
X123.5Y-87.0
X123.5Y-88.0
X123.5Y-94.0
X123.5Y-95.0
X123.5Y-96.0
X123.5Y-101.5
X124.0Y-35.5
X124.0Y-36.5
X124.0Y-37.5
X124.0Y-57.5
X124.0Y-89.5
X124.0Y-90.5
X124.0Y-91.5
X124.0Y-111.5
X124.25Y-45.5
X124.25Y-99.5
X124.5Y-29.5
X124.5Y-34.0
X124.5Y-44.75
X124.5Y-47.5
X124.5Y-61.5
X124.5Y-83.5
X124.5Y-88.0
X124.5Y-98.75
X124.5Y-101.5
X124.5Y-115.5
X125.0Y-43.75
X125.0Y-57.5
X125.0Y-97.75
X125.0Y-111.5
X125.3Y-37.9
X125.3Y-91.9
X125.5Y-29.5
X125.5Y-47.0
X125.5Y-61.5
X125.5Y-63.0
X125.5Y-83.5
X125.5Y-101.0
X125.5Y-115.5
X125.5Y-117.0
X125.91Y-42.51
X125.91Y-96.51
X126.0Y-35.0
X126.0Y-36.0
X126.0Y-37.0
X126.0Y-58.0
X126.0Y-89.0
X126.0Y-90.0
X126.0Y-91.0
X126.0Y-112.0
X126.25Y-29.25
X126.25Y-83.25
X126.4Y-32.8
X126.4Y-86.8
X126.5Y-41.5
X126.5Y-45.0
X126.5Y-47.5
X126.5Y-61.5
X126.5Y-63.0
X126.5Y-95.5
X126.5Y-99.0
X126.5Y-101.5
X126.5Y-115.5
X126.5Y-117.0
X127.0Y-36.75
X127.0Y-58.0
X127.0Y-90.75
X127.0Y-112.0
X127.08Y-46.24
X127.08Y-100.24
X127.5Y-47.5
X127.5Y-63.0
X127.5Y-101.5
X127.5Y-117.0
X128.0Y-32.25
X128.0Y-45.5
X128.0Y-86.25
X128.0Y-99.5
X128.25Y-26.75
X128.25Y-80.75
X128.5Y-30.0
X128.5Y-63.0
X128.5Y-84.0
X128.5Y-117.0
X128.75Y-34.25
X128.75Y-35.25
X128.75Y-88.25
X128.75Y-89.25
X129.0Y-26.0
X129.0Y-43.5
X129.0Y-44.5
X129.0Y-45.5
X129.0Y-80.0
X129.0Y-97.5
X129.0Y-98.5
X129.0Y-99.5
X129.5Y-25.0
X129.5Y-29.0
X129.5Y-30.0
X129.5Y-31.0
X129.5Y-33.75
X129.5Y-38.0
X129.5Y-40.0
X129.5Y-47.0
X129.5Y-63.0
X129.5Y-79.0
X129.5Y-83.0
X129.5Y-84.0
X129.5Y-85.0
X129.5Y-87.75
X129.5Y-92.0
X129.5Y-94.0
X129.5Y-101.0
X129.5Y-117.0
X130.0Y-26.0
X130.0Y-43.5
X130.0Y-44.5
X130.0Y-45.5
X130.0Y-80.0
X130.0Y-97.5
X130.0Y-98.5
X130.0Y-99.5
X130.5Y-25.0
X130.5Y-29.0
X130.5Y-30.0
X130.5Y-38.0
X130.5Y-39.0
X130.5Y-40.0
X130.5Y-47.0
X130.5Y-63.0
X130.5Y-79.0
X130.5Y-83.0
X130.5Y-84.0
X130.5Y-92.0
X130.5Y-93.0
X130.5Y-94.0
X130.5Y-101.0
X130.5Y-117.0
X131.0Y-26.0
X131.0Y-43.5
X131.0Y-44.5
X131.0Y-45.5
X131.0Y-80.0
X131.0Y-97.5
X131.0Y-98.5
X131.0Y-99.5
X131.41Y-33.01
X131.41Y-87.01
X131.5Y-25.0
X131.5Y-35.75
X131.5Y-36.75
X131.5Y-38.0
X131.5Y-39.0
X131.5Y-47.0
X131.5Y-79.0
X131.5Y-89.75
X131.5Y-90.75
X131.5Y-92.0
X131.5Y-93.0
X131.5Y-101.0
X132.0Y-26.0
X132.0Y-43.5
X132.0Y-44.5
X132.0Y-45.5
X132.0Y-80.0
X132.0Y-97.5
X132.0Y-98.5
X132.0Y-99.5
X132.5Y-25.0
X132.5Y-28.25
X132.5Y-29.25
X132.5Y-30.25
X132.5Y-31.25
X132.5Y-35.75
X132.5Y-36.75
X132.5Y-38.0
X132.5Y-39.0
X132.5Y-47.0
X132.5Y-79.0
X132.5Y-82.25
X132.5Y-83.25
X132.5Y-84.25
X132.5Y-85.25
X132.5Y-89.75
X132.5Y-90.75
X132.5Y-92.0
X132.5Y-93.0
X132.5Y-101.0
X132.75Y-34.25
X132.75Y-88.25
X133.0Y-43.5
X133.0Y-45.0
X133.0Y-97.5
X133.0Y-99.0
X133.5Y-25.0
X133.5Y-29.0
X133.5Y-30.0
X133.5Y-31.0
X133.5Y-37.0
X133.5Y-38.0
X133.5Y-39.0
X133.5Y-40.0
X133.5Y-79.0
X133.5Y-83.0
X133.5Y-84.0
X133.5Y-85.0
X133.5Y-91.0
X133.5Y-92.0
X133.5Y-93.0
X133.5Y-94.0
X134.0Y-60.0
X134.0Y-114.0
X134.5Y-24.0
X134.5Y-29.0
X134.5Y-30.0
X134.5Y-31.0
X134.5Y-37.0
X134.5Y-38.0
X134.5Y-39.0
X134.5Y-40.0
X134.5Y-61.0
X134.5Y-63.0
X134.5Y-78.0
X134.5Y-83.0
X134.5Y-84.0
X134.5Y-85.0
X134.5Y-91.0
X134.5Y-92.0
X134.5Y-93.0
X134.5Y-94.0
X134.5Y-115.0
X134.5Y-117.0
X135.5Y-29.0
X135.5Y-30.0
X135.5Y-31.0
X135.5Y-37.0
X135.5Y-38.0
X135.5Y-39.0
X135.5Y-40.0
X135.5Y-63.0
X135.5Y-83.0
X135.5Y-84.0
X135.5Y-85.0
X135.5Y-91.0
X135.5Y-92.0
X135.5Y-93.0
X135.5Y-94.0
X135.5Y-117.0
X136.5Y-21.0
X136.5Y-29.0
X136.5Y-30.0
X136.5Y-31.0
X136.5Y-37.0
X136.5Y-38.0
X136.5Y-39.0
X136.5Y-40.0
X136.5Y-44.0
X136.5Y-45.0
X136.5Y-46.0
X136.5Y-47.0
X136.5Y-63.0
X136.5Y-75.0
X136.5Y-83.0
X136.5Y-84.0
X136.5Y-85.0
X136.5Y-91.0
X136.5Y-92.0
X136.5Y-93.0
X136.5Y-94.0
X136.5Y-98.0
X136.5Y-99.0
X136.5Y-100.0
X136.5Y-101.0
X136.5Y-117.0
X137.5Y-21.0
X137.5Y-26.0
X137.5Y-27.0
X137.5Y-28.0
X137.5Y-31.0
X137.5Y-32.0
X137.5Y-33.0
X137.5Y-34.0
X137.5Y-37.0
X137.5Y-44.0
X137.5Y-45.0
X137.5Y-46.0
X137.5Y-47.0
X137.5Y-63.0
X137.5Y-75.0
X137.5Y-80.0
X137.5Y-81.0
X137.5Y-82.0
X137.5Y-85.0
X137.5Y-86.0
X137.5Y-87.0
X137.5Y-88.0
X137.5Y-91.0
X137.5Y-98.0
X137.5Y-99.0
X137.5Y-100.0
X137.5Y-101.0
X137.5Y-117.0
X138.5Y-21.0
X138.5Y-25.0
X138.5Y-26.0
X138.5Y-27.0
X138.5Y-28.0
X138.5Y-29.0
X138.5Y-30.0
X138.5Y-31.0
X138.5Y-32.0
X138.5Y-33.0
X138.5Y-34.0
X138.5Y-37.0
X138.5Y-44.0
X138.5Y-45.0
X138.5Y-46.0
X138.5Y-47.0
X138.5Y-63.0
X138.5Y-75.0
X138.5Y-79.0
X138.5Y-80.0
X138.5Y-81.0
X138.5Y-82.0
X138.5Y-83.0
X138.5Y-84.0
X138.5Y-85.0
X138.5Y-86.0
X138.5Y-87.0
X138.5Y-88.0
X138.5Y-91.0
X138.5Y-98.0
X138.5Y-99.0
X138.5Y-100.0
X138.5Y-101.0
X138.5Y-117.0
X139.0Y-38.5
X139.0Y-92.5
X139.5Y-21.0
X139.5Y-25.0
X139.5Y-26.0
X139.5Y-27.0
X139.5Y-28.0
X139.5Y-29.0
X139.5Y-30.0
X139.5Y-31.0
X139.5Y-32.0
X139.5Y-47.0
X139.5Y-63.0
X139.5Y-75.0
X139.5Y-79.0
X139.5Y-80.0
X139.5Y-81.0
X139.5Y-82.0
X139.5Y-83.0
X139.5Y-84.0
X139.5Y-85.0
X139.5Y-86.0
X139.5Y-101.0
X139.5Y-117.0
X140.5Y-21.0
X140.5Y-63.0
X140.5Y-75.0
X140.5Y-117.0
X140.75Y-38.35
X140.75Y-92.35
X141.0Y-47.0
X141.0Y-48.0
X141.0Y-49.0
X141.0Y-50.0
X141.0Y-51.0
X141.0Y-54.5
X141.0Y-55.5
X141.0Y-56.5
X141.0Y-101.0
X141.0Y-102.0
X141.0Y-103.0
X141.0Y-104.0
X141.0Y-105.0
X141.0Y-108.5
X141.0Y-109.5
X141.0Y-110.5
X141.5Y-21.0
X141.5Y-63.0
X141.5Y-75.0
X141.5Y-117.0
X142.5Y-21.0
X142.5Y-25.0
X142.5Y-26.0
X142.5Y-27.0
X142.5Y-28.0
X142.5Y-29.0
X142.5Y-30.0
X142.5Y-31.0
X142.5Y-32.0
X142.5Y-61.0
X142.5Y-63.0
X142.5Y-75.0
X142.5Y-79.0
X142.5Y-80.0
X142.5Y-81.0
X142.5Y-82.0
X142.5Y-83.0
X142.5Y-84.0
X142.5Y-85.0
X142.5Y-86.0
X142.5Y-115.0
X142.5Y-117.0
X143.5Y-63.0
X143.5Y-117.0
X144.0Y-34.5
X144.0Y-47.0
X144.0Y-48.0
X144.0Y-49.0
X144.0Y-50.0
X144.0Y-51.0
X144.0Y-54.5
X144.0Y-88.5
X144.0Y-101.0
X144.0Y-102.0
X144.0Y-103.0
X144.0Y-104.0
X144.0Y-105.0
X144.0Y-108.5
X144.5Y-38.0
X144.5Y-92.0
X145.0Y-47.0
X145.0Y-48.0
X145.0Y-101.0
X145.0Y-102.0
X145.5Y-38.0
X145.5Y-92.0
X146.0Y-47.0
X146.0Y-101.0
X150.0Y-55.0
X150.0Y-56.0
X150.0Y-57.0
X150.0Y-58.0
X150.0Y-59.0
X150.0Y-60.0
X150.0Y-109.0
X150.0Y-110.0
X150.0Y-111.0
X150.0Y-112.0
X150.0Y-113.0
X150.0Y-114.0
X150.5Y-28.0
X150.5Y-34.0
X150.5Y-35.5
X150.5Y-37.0
X150.5Y-38.5
X150.5Y-40.0
X150.5Y-41.5
X150.5Y-43.0
X150.5Y-44.5
X150.5Y-82.0
X150.5Y-88.0
X150.5Y-89.5
X150.5Y-91.0
X150.5Y-92.5
X150.5Y-94.0
X150.5Y-95.5
X150.5Y-97.0
X150.5Y-98.5
X150.75Y-30.25
X150.75Y-31.25
X150.75Y-84.25
X150.75Y-85.25
X151.0Y-29.25
X151.0Y-60.0
X151.0Y-83.25
X151.0Y-114.0
X151.25Y-27.0
X151.25Y-32.25
X151.25Y-81.0
X151.25Y-86.25
X151.42Y-42.35
X151.42Y-96.35
X151.47Y-37.29
X151.47Y-91.29
X151.75Y-34.75
X151.75Y-88.75
X151.84Y-39.82
X151.84Y-93.82
X152.0Y-60.0
X152.0Y-114.0
X152.5Y-29.5
X152.5Y-83.5
X152.75Y-27.0
X152.75Y-81.0
X153.0Y-32.25
X153.0Y-46.5
X153.0Y-59.5
X153.0Y-86.25
X153.0Y-100.5
X153.0Y-113.5
X153.49Y-33.47
X153.49Y-87.47
X154.0Y-29.5
X154.0Y-83.5
X154.25Y-27.0
X154.25Y-81.0
X154.5Y-34.75
X154.5Y-42.25
X154.5Y-88.75
X154.5Y-96.25
X155.0Y-45.0
X155.0Y-99.0
X155.32Y-37.51
X155.32Y-91.51
X155.5Y-27.0
X155.5Y-28.0
X155.5Y-29.0
X155.5Y-30.0
X155.5Y-31.0
X155.5Y-32.0
X155.5Y-81.0
X155.5Y-82.0
X155.5Y-83.0
X155.5Y-84.0
X155.5Y-85.0
X155.5Y-86.0
X155.56Y-38.52
X155.56Y-92.52
X156.4Y-39.76
X156.4Y-93.76
X156.5Y-34.75
X156.5Y-88.75
X156.63Y-32.12
X156.63Y-86.12
X157.0Y-27.0
X157.0Y-81.0
X157.25Y-29.5
X157.25Y-83.5
X157.743Y-36.0
X157.743Y-90.0
X158.0Y-42.25
X158.0Y-46.0
X158.0Y-96.25
X158.0Y-100.0
X158.02Y-43.62
X158.02Y-97.62
X158.25Y-39.75
X158.25Y-93.75
X158.5Y-27.0
X158.5Y-57.0
X158.5Y-81.0
X158.5Y-111.0
X158.75Y-29.5
X158.75Y-83.5
X158.96Y-37.24
X158.96Y-91.24
X158.98Y-38.58
X158.98Y-92.58
X159.0Y-42.25
X159.0Y-47.0
X159.0Y-62.5
X159.0Y-96.25
X159.0Y-101.0
X159.0Y-116.5
X159.05Y-33.39
X159.05Y-87.39
X159.08Y-35.97
X159.08Y-89.97
X159.16Y-39.73
X159.16Y-93.73
X159.21Y-34.76
X159.21Y-88.76
X159.5Y-57.0
X159.5Y-63.5
X159.5Y-111.0
X159.5Y-117.5
X159.685Y-31.655
X159.685Y-85.655
X160.0Y-27.0
X160.0Y-62.5
X160.0Y-81.0
X160.0Y-116.5
X160.25Y-28.0
X160.25Y-29.25
X160.25Y-82.0
X160.25Y-83.25
X160.5Y-42.25
X160.5Y-43.5
X160.5Y-47.5
X160.5Y-57.0
X160.5Y-63.5
X160.5Y-96.25
X160.5Y-97.5
X160.5Y-101.5
X160.5Y-111.0
X160.5Y-117.5
X160.75Y-45.5
X160.75Y-99.5
X161.0Y-62.5
X161.0Y-116.5
X161.25Y-29.0
X161.25Y-33.75
X161.25Y-34.75
X161.25Y-35.75
X161.25Y-36.75
X161.25Y-83.0
X161.25Y-87.75
X161.25Y-88.75
X161.25Y-89.75
X161.25Y-90.75
X161.29Y-39.5
X161.29Y-93.5
X161.5Y-30.0
X161.5Y-38.5
X161.5Y-42.5
X161.5Y-43.5
X161.5Y-47.5
X161.5Y-57.0
X161.5Y-63.5
X161.5Y-84.0
X161.5Y-92.5
X161.5Y-96.5
X161.5Y-97.5
X161.5Y-101.5
X161.5Y-111.0
X161.5Y-117.5
X162.0Y-35.5
X162.0Y-36.5
X162.0Y-37.5
X162.0Y-45.5
X162.0Y-62.5
X162.0Y-89.5
X162.0Y-90.5
X162.0Y-91.5
X162.0Y-99.5
X162.0Y-116.5
X162.25Y-29.0
X162.25Y-83.0
X162.5Y-30.0
X162.5Y-33.5
X162.5Y-34.5
X162.5Y-42.5
X162.5Y-43.5
X162.5Y-47.5
X162.5Y-57.0
X162.5Y-63.5
X162.5Y-84.0
X162.5Y-87.5
X162.5Y-88.5
X162.5Y-96.5
X162.5Y-97.5
X162.5Y-101.5
X162.5Y-111.0
X162.5Y-117.5
X163.0Y-35.5
X163.0Y-36.5
X163.0Y-37.5
X163.0Y-38.5
X163.0Y-45.5
X163.0Y-62.5
X163.0Y-89.5
X163.0Y-90.5
X163.0Y-91.5
X163.0Y-92.5
X163.0Y-99.5
X163.0Y-116.5
X163.5Y-29.5
X163.5Y-34.0
X163.5Y-42.5
X163.5Y-43.5
X163.5Y-47.5
X163.5Y-83.5
X163.5Y-88.0
X163.5Y-96.5
X163.5Y-97.5
X163.5Y-101.5
X164.0Y-35.5
X164.0Y-36.5
X164.0Y-37.5
X164.0Y-38.5
X164.0Y-45.5
X164.0Y-57.5
X164.0Y-89.5
X164.0Y-90.5
X164.0Y-91.5
X164.0Y-92.5
X164.0Y-99.5
X164.0Y-111.5
X164.5Y-30.0
X164.5Y-31.0
X164.5Y-32.0
X164.5Y-33.0
X164.5Y-34.0
X164.5Y-40.0
X164.5Y-41.0
X164.5Y-42.0
X164.5Y-47.5
X164.5Y-84.0
X164.5Y-85.0
X164.5Y-86.0
X164.5Y-87.0
X164.5Y-88.0
X164.5Y-94.0
X164.5Y-95.0
X164.5Y-96.0
X164.5Y-101.5
X165.0Y-35.5
X165.0Y-36.5
X165.0Y-37.5
X165.0Y-38.5
X165.0Y-57.5
X165.0Y-89.5
X165.0Y-90.5
X165.0Y-91.5
X165.0Y-92.5
X165.0Y-111.5
X165.25Y-45.5
X165.25Y-99.5
X165.5Y-30.0
X165.5Y-31.0
X165.5Y-32.0
X165.5Y-33.0
X165.5Y-34.0
X165.5Y-40.0
X165.5Y-41.0
X165.5Y-42.0
X165.5Y-47.5
X165.5Y-84.0
X165.5Y-85.0
X165.5Y-86.0
X165.5Y-87.0
X165.5Y-88.0
X165.5Y-94.0
X165.5Y-95.0
X165.5Y-96.0
X165.5Y-101.5
X166.0Y-35.5
X166.0Y-36.5
X166.0Y-37.5
X166.0Y-57.5
X166.0Y-89.5
X166.0Y-90.5
X166.0Y-91.5
X166.0Y-111.5
X166.25Y-45.5
X166.25Y-99.5
X166.5Y-29.5
X166.5Y-34.0
X166.5Y-44.75
X166.5Y-47.5
X166.5Y-61.5
X166.5Y-83.5
X166.5Y-88.0
X166.5Y-98.75
X166.5Y-101.5
X166.5Y-115.5
X167.0Y-43.75
X167.0Y-57.5
X167.0Y-97.75
X167.0Y-111.5
X167.3Y-37.9
X167.3Y-91.9
X167.5Y-29.5
X167.5Y-47.0
X167.5Y-61.5
X167.5Y-63.0
X167.5Y-83.5
X167.5Y-101.0
X167.5Y-115.5
X167.5Y-117.0
X167.91Y-42.51
X167.91Y-96.51
X168.0Y-35.0
X168.0Y-36.0
X168.0Y-37.0
X168.0Y-58.0
X168.0Y-89.0
X168.0Y-90.0
X168.0Y-91.0
X168.0Y-112.0
X168.25Y-29.25
X168.25Y-83.25
X168.4Y-32.8
X168.4Y-86.8
X168.5Y-41.5
X168.5Y-45.0
X168.5Y-47.5
X168.5Y-61.5
X168.5Y-63.0
X168.5Y-95.5
X168.5Y-99.0
X168.5Y-101.5
X168.5Y-115.5
X168.5Y-117.0
X169.0Y-36.75
X169.0Y-58.0
X169.0Y-90.75
X169.0Y-112.0
X169.08Y-46.24
X169.08Y-100.24
X169.5Y-47.5
X169.5Y-63.0
X169.5Y-101.5
X169.5Y-117.0
X170.0Y-32.25
X170.0Y-45.5
X170.0Y-86.25
X170.0Y-99.5
X170.25Y-26.75
X170.25Y-80.75
X170.5Y-30.0
X170.5Y-63.0
X170.5Y-84.0
X170.5Y-117.0
X170.75Y-34.25
X170.75Y-35.25
X170.75Y-88.25
X170.75Y-89.25
X171.0Y-26.0
X171.0Y-43.5
X171.0Y-44.5
X171.0Y-45.5
X171.0Y-80.0
X171.0Y-97.5
X171.0Y-98.5
X171.0Y-99.5
X171.5Y-25.0
X171.5Y-29.0
X171.5Y-30.0
X171.5Y-31.0
X171.5Y-33.75
X171.5Y-38.0
X171.5Y-40.0
X171.5Y-47.0
X171.5Y-63.0
X171.5Y-79.0
X171.5Y-83.0
X171.5Y-84.0
X171.5Y-85.0
X171.5Y-87.75
X171.5Y-92.0
X171.5Y-94.0
X171.5Y-101.0
X171.5Y-117.0
X172.0Y-26.0
X172.0Y-43.5
X172.0Y-44.5
X172.0Y-45.5
X172.0Y-80.0
X172.0Y-97.5
X172.0Y-98.5
X172.0Y-99.5
X172.5Y-25.0
X172.5Y-29.0
X172.5Y-30.0
X172.5Y-38.0
X172.5Y-39.0
X172.5Y-40.0
X172.5Y-47.0
X172.5Y-63.0
X172.5Y-79.0
X172.5Y-83.0
X172.5Y-84.0
X172.5Y-92.0
X172.5Y-93.0
X172.5Y-94.0
X172.5Y-101.0
X172.5Y-117.0
X173.0Y-26.0
X173.0Y-43.5
X173.0Y-44.5
X173.0Y-45.5
X173.0Y-80.0
X173.0Y-97.5
X173.0Y-98.5
X173.0Y-99.5
X173.41Y-33.01
X173.41Y-87.01
X173.5Y-25.0
X173.5Y-35.75
X173.5Y-36.75
X173.5Y-38.0
X173.5Y-39.0
X173.5Y-47.0
X173.5Y-79.0
X173.5Y-89.75
X173.5Y-90.75
X173.5Y-92.0
X173.5Y-93.0
X173.5Y-101.0
X174.0Y-26.0
X174.0Y-43.5
X174.0Y-44.5
X174.0Y-45.5
X174.0Y-80.0
X174.0Y-97.5
X174.0Y-98.5
X174.0Y-99.5
X174.5Y-25.0
X174.5Y-28.25
X174.5Y-29.25
X174.5Y-30.25
X174.5Y-31.25
X174.5Y-35.75
X174.5Y-36.75
X174.5Y-38.0
X174.5Y-39.0
X174.5Y-47.0
X174.5Y-79.0
X174.5Y-82.25
X174.5Y-83.25
X174.5Y-84.25
X174.5Y-85.25
X174.5Y-89.75
X174.5Y-90.75
X174.5Y-92.0
X174.5Y-93.0
X174.5Y-101.0
X174.75Y-34.25
X174.75Y-88.25
X175.0Y-43.5
X175.0Y-45.0
X175.0Y-97.5
X175.0Y-99.0
X175.5Y-25.0
X175.5Y-29.0
X175.5Y-30.0
X175.5Y-31.0
X175.5Y-37.0
X175.5Y-38.0
X175.5Y-39.0
X175.5Y-40.0
X175.5Y-79.0
X175.5Y-83.0
X175.5Y-84.0
X175.5Y-85.0
X175.5Y-91.0
X175.5Y-92.0
X175.5Y-93.0
X175.5Y-94.0
X176.0Y-60.0
X176.0Y-114.0
X176.5Y-24.0
X176.5Y-29.0
X176.5Y-30.0
X176.5Y-31.0
X176.5Y-37.0
X176.5Y-38.0
X176.5Y-39.0
X176.5Y-40.0
X176.5Y-61.0
X176.5Y-63.0
X176.5Y-78.0
X176.5Y-83.0
X176.5Y-84.0
X176.5Y-85.0
X176.5Y-91.0
X176.5Y-92.0
X176.5Y-93.0
X176.5Y-94.0
X176.5Y-115.0
X176.5Y-117.0
X177.5Y-29.0
X177.5Y-30.0
X177.5Y-31.0
X177.5Y-37.0
X177.5Y-38.0
X177.5Y-39.0
X177.5Y-40.0
X177.5Y-63.0
X177.5Y-83.0
X177.5Y-84.0
X177.5Y-85.0
X177.5Y-91.0
X177.5Y-92.0
X177.5Y-93.0
X177.5Y-94.0
X177.5Y-117.0
X178.5Y-21.0
X178.5Y-29.0
X178.5Y-30.0
X178.5Y-31.0
X178.5Y-37.0
X178.5Y-38.0
X178.5Y-39.0
X178.5Y-40.0
X178.5Y-44.0
X178.5Y-45.0
X178.5Y-46.0
X178.5Y-47.0
X178.5Y-63.0
X178.5Y-75.0
X178.5Y-83.0
X178.5Y-84.0
X178.5Y-85.0
X178.5Y-91.0
X178.5Y-92.0
X178.5Y-93.0
X178.5Y-94.0
X178.5Y-98.0
X178.5Y-99.0
X178.5Y-100.0
X178.5Y-101.0
X178.5Y-117.0
X179.5Y-21.0
X179.5Y-26.0
X179.5Y-27.0
X179.5Y-28.0
X179.5Y-31.0
X179.5Y-32.0
X179.5Y-33.0
X179.5Y-34.0
X179.5Y-37.0
X179.5Y-44.0
X179.5Y-45.0
X179.5Y-46.0
X179.5Y-47.0
X179.5Y-63.0
X179.5Y-75.0
X179.5Y-80.0
X179.5Y-81.0
X179.5Y-82.0
X179.5Y-85.0
X179.5Y-86.0
X179.5Y-87.0
X179.5Y-88.0
X179.5Y-91.0
X179.5Y-98.0
X179.5Y-99.0
X179.5Y-100.0
X179.5Y-101.0
X179.5Y-117.0
X180.5Y-21.0
X180.5Y-25.0
X180.5Y-26.0
X180.5Y-27.0
X180.5Y-28.0
X180.5Y-29.0
X180.5Y-30.0
X180.5Y-31.0
X180.5Y-32.0
X180.5Y-33.0
X180.5Y-34.0
X180.5Y-37.0
X180.5Y-44.0
X180.5Y-45.0
X180.5Y-46.0
X180.5Y-47.0
X180.5Y-63.0
X180.5Y-75.0
X180.5Y-79.0
X180.5Y-80.0
X180.5Y-81.0
X180.5Y-82.0
X180.5Y-83.0
X180.5Y-84.0
X180.5Y-85.0
X180.5Y-86.0
X180.5Y-87.0
X180.5Y-88.0
X180.5Y-91.0
X180.5Y-98.0
X180.5Y-99.0
X180.5Y-100.0
X180.5Y-101.0
X180.5Y-117.0
X181.0Y-38.5
X181.0Y-92.5
X181.5Y-21.0
X181.5Y-25.0
X181.5Y-26.0
X181.5Y-27.0
X181.5Y-28.0
X181.5Y-29.0
X181.5Y-30.0
X181.5Y-31.0
X181.5Y-32.0
X181.5Y-47.0
X181.5Y-63.0
X181.5Y-75.0
X181.5Y-79.0
X181.5Y-80.0
X181.5Y-81.0
X181.5Y-82.0
X181.5Y-83.0
X181.5Y-84.0
X181.5Y-85.0
X181.5Y-86.0
X181.5Y-101.0
X181.5Y-117.0
X182.5Y-21.0
X182.5Y-63.0
X182.5Y-75.0
X182.5Y-117.0
X182.75Y-38.35
X182.75Y-92.35
X183.0Y-47.0
X183.0Y-48.0
X183.0Y-49.0
X183.0Y-50.0
X183.0Y-51.0
X183.0Y-54.5
X183.0Y-55.5
X183.0Y-56.5
X183.0Y-101.0
X183.0Y-102.0
X183.0Y-103.0
X183.0Y-104.0
X183.0Y-105.0
X183.0Y-108.5
X183.0Y-109.5
X183.0Y-110.5
X183.5Y-21.0
X183.5Y-63.0
X183.5Y-75.0
X183.5Y-117.0
X184.5Y-21.0
X184.5Y-25.0
X184.5Y-26.0
X184.5Y-27.0
X184.5Y-28.0
X184.5Y-29.0
X184.5Y-30.0
X184.5Y-31.0
X184.5Y-32.0
X184.5Y-61.0
X184.5Y-63.0
X184.5Y-75.0
X184.5Y-79.0
X184.5Y-80.0
X184.5Y-81.0
X184.5Y-82.0
X184.5Y-83.0
X184.5Y-84.0
X184.5Y-85.0
X184.5Y-86.0
X184.5Y-115.0
X184.5Y-117.0
X185.5Y-63.0
X185.5Y-117.0
X186.0Y-34.5
X186.0Y-47.0
X186.0Y-48.0
X186.0Y-49.0
X186.0Y-50.0
X186.0Y-51.0
X186.0Y-54.5
X186.0Y-88.5
X186.0Y-101.0
X186.0Y-102.0
X186.0Y-103.0
X186.0Y-104.0
X186.0Y-105.0
X186.0Y-108.5
X186.5Y-38.0
X186.5Y-92.0
X187.0Y-47.0
X187.0Y-48.0
X187.0Y-101.0
X187.0Y-102.0
X187.5Y-38.0
X187.5Y-92.0
X188.0Y-47.0
X188.0Y-101.0
T2
X109.07Y-46.58
X109.07Y-48.13
X109.07Y-49.37
X109.07Y-51.01
X109.07Y-100.58
X109.07Y-102.13
X109.07Y-103.37
X109.07Y-105.01
X109.14Y-52.4
X109.14Y-106.4
X109.79Y-45.34
X109.79Y-99.34
X142.5Y-56.025
X142.5Y-110.025
X142.525Y-52.5
X142.525Y-54.45
X142.525Y-106.5
X142.525Y-108.45
X142.55Y-57.525
X142.55Y-111.525
X143.475Y-58.95
X143.475Y-112.95
X151.07Y-46.58
X151.07Y-48.13
X151.07Y-49.37
X151.07Y-51.01
X151.07Y-100.58
X151.07Y-102.13
X151.07Y-103.37
X151.07Y-105.01
X151.14Y-52.4
X151.14Y-106.4
X151.79Y-45.34
X151.79Y-99.34
X184.5Y-56.025
X184.5Y-110.025
X184.525Y-52.5
X184.525Y-54.45
X184.525Y-106.5
X184.525Y-108.45
X184.55Y-57.525
X184.55Y-111.525
X185.475Y-58.95
X185.475Y-112.95
T3
X129.025Y-58.25
X129.025Y-60.79
X129.025Y-112.25
X129.025Y-114.79
X136.735Y-60.5
X136.735Y-114.5
X138.25Y-22.5
X138.25Y-76.5
X139.275Y-60.5
X139.275Y-114.5
X140.79Y-22.5
X140.79Y-76.5
X145.475Y-58.96
X145.475Y-61.5
X145.475Y-112.96
X145.475Y-115.5
X171.025Y-58.25
X171.025Y-60.79
X171.025Y-112.25
X171.025Y-114.79
X178.735Y-60.5
X178.735Y-114.5
X180.25Y-22.5
X180.25Y-76.5
X181.275Y-60.5
X181.275Y-114.5
X182.79Y-22.5
X182.79Y-76.5
X187.475Y-58.96
X187.475Y-61.5
X187.475Y-112.96
X187.475Y-115.5
T4
X110.5Y-23.0
X110.5Y-63.0
X110.5Y-77.0
X110.5Y-117.0
X144.5Y-23.0
X144.5Y-77.0
X152.5Y-23.0
X152.5Y-63.0
X152.5Y-77.0
X152.5Y-117.0
X186.5Y-23.0
X186.5Y-77.0
T0
M30
