G04 #@! TF.GenerationSoftware,KiCad,Pcbnew,(7.0.0-0)*
G04 #@! TF.CreationDate,2023-05-05T23:00:16+10:00*
G04 #@! TF.ProjectId,panel,70616e65-6c2e-46b6-9963-61645f706362,rev?*
G04 #@! TF.SameCoordinates,Original*
G04 #@! TF.FileFunction,Paste,Bot*
G04 #@! TF.FilePolarity,Positive*
%FSLAX46Y46*%
G04 Gerber Fmt 4.6, Leading zero omitted, Abs format (unit mm)*
G04 Created by KiCad (PCBNEW (7.0.0-0)) date 2023-05-05 23:00:16*
%MOMM*%
%LPD*%
G01*
G04 APERTURE LIST*
%ADD10R,3.000000X1.000000*%
G04 APERTURE END LIST*
D10*
X158019999Y-43619999D03*
X152979999Y-43619999D03*
X158019999Y-41079999D03*
X152979999Y-41079999D03*
X158019999Y-38539999D03*
X152979999Y-38539999D03*
X158019999Y-35999999D03*
X152979999Y-35999999D03*
X158019999Y-33459999D03*
X152979999Y-33459999D03*
X158019999Y-30919999D03*
X152979999Y-30919999D03*
X158019999Y-28379999D03*
X152979999Y-28379999D03*
X158019999Y-97619999D03*
X152979999Y-97619999D03*
X158019999Y-95079999D03*
X152979999Y-95079999D03*
X158019999Y-92539999D03*
X152979999Y-92539999D03*
X158019999Y-89999999D03*
X152979999Y-89999999D03*
X158019999Y-87459999D03*
X152979999Y-87459999D03*
X158019999Y-84919999D03*
X152979999Y-84919999D03*
X158019999Y-82379999D03*
X152979999Y-82379999D03*
X116019999Y-43619999D03*
X110979999Y-43619999D03*
X116019999Y-41079999D03*
X110979999Y-41079999D03*
X116019999Y-38539999D03*
X110979999Y-38539999D03*
X116019999Y-35999999D03*
X110979999Y-35999999D03*
X116019999Y-33459999D03*
X110979999Y-33459999D03*
X116019999Y-30919999D03*
X110979999Y-30919999D03*
X116019999Y-28379999D03*
X110979999Y-28379999D03*
X116019999Y-97619999D03*
X110979999Y-97619999D03*
X116019999Y-95079999D03*
X110979999Y-95079999D03*
X116019999Y-92539999D03*
X110979999Y-92539999D03*
X116019999Y-89999999D03*
X110979999Y-89999999D03*
X116019999Y-87459999D03*
X110979999Y-87459999D03*
X116019999Y-84919999D03*
X110979999Y-84919999D03*
X116019999Y-82379999D03*
X110979999Y-82379999D03*
M02*
