G04 #@! TF.GenerationSoftware,KiCad,Pcbnew,(7.0.0-0)*
G04 #@! TF.CreationDate,2023-05-05T23:00:16+10:00*
G04 #@! TF.ProjectId,panel,70616e65-6c2e-46b6-9963-61645f706362,rev?*
G04 #@! TF.SameCoordinates,Original*
G04 #@! TF.FileFunction,Profile,NP*
%FSLAX46Y46*%
G04 Gerber Fmt 4.6, Leading zero omitted, Abs format (unit mm)*
G04 Created by KiCad (PCBNEW (7.0.0-0)) date 2023-05-05 23:00:16*
%MOMM*%
%LPD*%
G01*
G04 APERTURE LIST*
G04 #@! TA.AperFunction,Profile*
%ADD10C,0.100000*%
G04 #@! TD*
G04 #@! TA.AperFunction,Profile*
%ADD11C,0.400000*%
G04 #@! TD*
%ADD12C,0.400000*%
G04 APERTURE END LIST*
D10*
X189500000Y-53000000D02*
X189500000Y-44500000D01*
X147500000Y-53000000D02*
X147500000Y-44500000D01*
X107500000Y-41500000D02*
X104500000Y-41500000D01*
X149500000Y-66000000D02*
X158000000Y-66000000D01*
X147500000Y-95500000D02*
X147500000Y-87000000D01*
X149500000Y-107000000D02*
X148500000Y-107000000D01*
X107500000Y-107000000D02*
X104500000Y-107000000D01*
D11*
X95500000Y-74000000D02*
X201500000Y-74000000D01*
D10*
X136000000Y-74000000D02*
X136000000Y-74000000D01*
X148500000Y-98500000D02*
X148500000Y-98500000D01*
X149500000Y-74000000D02*
X149500000Y-84000000D01*
X192500000Y-110000000D02*
X192500000Y-120000000D01*
X147500000Y-87000000D02*
X148500000Y-87000000D01*
X107500000Y-44500000D02*
X107500000Y-53000000D01*
X189500000Y-110000000D02*
X192500000Y-110000000D01*
X119000000Y-70000000D02*
X119000000Y-66000000D01*
X148500000Y-107000000D02*
X147500000Y-107000000D01*
X148500000Y-56000000D02*
X149500000Y-56000000D01*
X136000000Y-74000000D02*
X129000000Y-74000000D01*
X168000000Y-66000000D02*
X168000000Y-70000000D01*
X149500000Y-95500000D02*
X148500000Y-95500000D01*
X189500000Y-56000000D02*
X192500000Y-56000000D01*
X104500000Y-53000000D02*
X104500000Y-44500000D01*
X189500000Y-107000000D02*
X189500000Y-107000000D01*
X104500000Y-120000000D02*
X104500000Y-110000000D01*
X116000000Y-74000000D02*
X107500000Y-74000000D01*
X198500000Y-20000000D02*
X192500000Y-20000000D01*
X149500000Y-44500000D02*
X149500000Y-53000000D01*
X161000000Y-66000000D02*
X168000000Y-66000000D01*
X104500000Y-33000000D02*
X107500000Y-33000000D01*
X98500000Y-20000000D02*
X98500000Y-120000000D01*
X181000000Y-74000000D02*
X181000000Y-70000000D01*
D11*
X147500000Y-17000000D02*
X147500000Y-123000000D01*
D10*
X136000000Y-66000000D02*
X136000000Y-70000000D01*
X126000000Y-74000000D02*
X126000000Y-74000000D01*
X148500000Y-110000000D02*
X149500000Y-110000000D01*
X181000000Y-70000000D02*
X181000000Y-66000000D01*
X192500000Y-107000000D02*
X189500000Y-107000000D01*
X147500000Y-66000000D02*
X147500000Y-56000000D01*
D11*
X149500000Y-17000000D02*
X149500000Y-123000000D01*
D10*
X147500000Y-56000000D02*
X148500000Y-56000000D01*
X178000000Y-74000000D02*
X171000000Y-74000000D01*
X192500000Y-53000000D02*
X189500000Y-53000000D01*
X178000000Y-66000000D02*
X178000000Y-70000000D01*
X148500000Y-95500000D02*
X147500000Y-95500000D01*
X147500000Y-41500000D02*
X147500000Y-33000000D01*
X148500000Y-33000000D02*
X148500000Y-33000000D01*
X129000000Y-66000000D02*
X136000000Y-66000000D01*
X192500000Y-98500000D02*
X192500000Y-107000000D01*
X147500000Y-120000000D02*
X147500000Y-110000000D01*
X147500000Y-98500000D02*
X148500000Y-98500000D01*
X139000000Y-74000000D02*
X139000000Y-70000000D01*
D11*
X189500000Y-17000000D02*
X189500000Y-123000000D01*
D10*
X147500000Y-30000000D02*
X147500000Y-20000000D01*
X149500000Y-53000000D02*
X148500000Y-53000000D01*
D11*
X107500000Y-17000000D02*
X107500000Y-123000000D01*
D10*
X147500000Y-110000000D02*
X148500000Y-110000000D01*
X148500000Y-41500000D02*
X147500000Y-41500000D01*
X107500000Y-74000000D02*
X107500000Y-84000000D01*
X107500000Y-30000000D02*
X104500000Y-30000000D01*
X147500000Y-107000000D02*
X147500000Y-98500000D01*
X168000000Y-74000000D02*
X161000000Y-74000000D01*
X149500000Y-84000000D02*
X148500000Y-84000000D01*
X149500000Y-98500000D02*
X149500000Y-107000000D01*
X147500000Y-20000000D02*
X107500000Y-20000000D01*
X148500000Y-98500000D02*
X149500000Y-98500000D01*
X189500000Y-30000000D02*
X189500000Y-20000000D01*
X192500000Y-84000000D02*
X189500000Y-84000000D01*
X119000000Y-74000000D02*
X119000000Y-70000000D01*
X107500000Y-20000000D02*
X107500000Y-30000000D01*
X192500000Y-87000000D02*
X192500000Y-95500000D01*
X129000000Y-70000000D02*
X129000000Y-66000000D01*
X189500000Y-87000000D02*
X192500000Y-87000000D01*
X149500000Y-110000000D02*
X149500000Y-120000000D01*
X171000000Y-70000000D02*
X171000000Y-66000000D01*
X116000000Y-70000000D02*
X116000000Y-74000000D01*
X98500000Y-120000000D02*
X104500000Y-120000000D01*
X161000000Y-74000000D02*
X161000000Y-70000000D01*
X192500000Y-20000000D02*
X192500000Y-30000000D01*
X148500000Y-87000000D02*
X149500000Y-87000000D01*
X189500000Y-41500000D02*
X189500000Y-33000000D01*
X149500000Y-56000000D02*
X149500000Y-66000000D01*
X189500000Y-44500000D02*
X192500000Y-44500000D01*
X139000000Y-74000000D02*
X139000000Y-74000000D01*
X98500000Y-20000000D02*
X98500000Y-20000000D01*
X168000000Y-74000000D02*
X168000000Y-74000000D01*
X149500000Y-41500000D02*
X148500000Y-41500000D01*
X148500000Y-44500000D02*
X148500000Y-44500000D01*
X147500000Y-33000000D02*
X148500000Y-33000000D01*
X192500000Y-41500000D02*
X189500000Y-41500000D01*
X192500000Y-56000000D02*
X192500000Y-84000000D01*
X189500000Y-95500000D02*
X189500000Y-95500000D01*
X129000000Y-74000000D02*
X129000000Y-70000000D01*
X189500000Y-33000000D02*
X192500000Y-33000000D01*
X189500000Y-74000000D02*
X181000000Y-74000000D01*
X149500000Y-120000000D02*
X189500000Y-120000000D01*
X158000000Y-74000000D02*
X149500000Y-74000000D01*
X104500000Y-84000000D02*
X104500000Y-56000000D01*
X148500000Y-84000000D02*
X147500000Y-84000000D01*
X149500000Y-20000000D02*
X149500000Y-30000000D01*
X107500000Y-33000000D02*
X107500000Y-33000000D01*
X107500000Y-44500000D02*
X107500000Y-44500000D01*
X148500000Y-44500000D02*
X149500000Y-44500000D01*
X136000000Y-70000000D02*
X136000000Y-74000000D01*
X104500000Y-30000000D02*
X104500000Y-20000000D01*
X139000000Y-66000000D02*
X147500000Y-66000000D01*
X107500000Y-98500000D02*
X107500000Y-98500000D01*
X158000000Y-70000000D02*
X158000000Y-74000000D01*
X107500000Y-53000000D02*
X104500000Y-53000000D01*
X104500000Y-95500000D02*
X104500000Y-87000000D01*
X192500000Y-120000000D02*
X198500000Y-120000000D01*
X104500000Y-87000000D02*
X107500000Y-87000000D01*
X148500000Y-53000000D02*
X147500000Y-53000000D01*
X148500000Y-33000000D02*
X149500000Y-33000000D01*
X107500000Y-56000000D02*
X107500000Y-56000000D01*
X107500000Y-66000000D02*
X116000000Y-66000000D01*
X126000000Y-70000000D02*
X126000000Y-74000000D01*
X189500000Y-20000000D02*
X149500000Y-20000000D01*
X171000000Y-66000000D02*
X178000000Y-66000000D01*
X192500000Y-30000000D02*
X189500000Y-30000000D01*
X116000000Y-66000000D02*
X116000000Y-70000000D01*
X104500000Y-107000000D02*
X104500000Y-98500000D01*
X149500000Y-33000000D02*
X149500000Y-41500000D01*
X158000000Y-66000000D02*
X158000000Y-70000000D01*
X107500000Y-84000000D02*
X104500000Y-84000000D01*
X107500000Y-98500000D02*
X107500000Y-107000000D01*
X192500000Y-44500000D02*
X192500000Y-53000000D01*
X107500000Y-56000000D02*
X107500000Y-66000000D01*
X107500000Y-110000000D02*
X107500000Y-120000000D01*
X189500000Y-120000000D02*
X189500000Y-110000000D01*
X189500000Y-41500000D02*
X189500000Y-41500000D01*
X104500000Y-56000000D02*
X107500000Y-56000000D01*
X149500000Y-87000000D02*
X149500000Y-95500000D01*
X189500000Y-84000000D02*
X189500000Y-74000000D01*
X107500000Y-95500000D02*
X104500000Y-95500000D01*
D11*
X95500000Y-66000000D02*
X201500000Y-66000000D01*
D10*
X189500000Y-66000000D02*
X189500000Y-56000000D01*
X148500000Y-87000000D02*
X148500000Y-87000000D01*
X189500000Y-107000000D02*
X189500000Y-98500000D01*
X149500000Y-30000000D02*
X148500000Y-30000000D01*
X192500000Y-33000000D02*
X192500000Y-41500000D01*
X181000000Y-66000000D02*
X189500000Y-66000000D01*
X198500000Y-120000000D02*
X198500000Y-20000000D01*
X148500000Y-30000000D02*
X147500000Y-30000000D01*
X104500000Y-110000000D02*
X107500000Y-110000000D01*
X178000000Y-70000000D02*
X178000000Y-74000000D01*
X147500000Y-44500000D02*
X148500000Y-44500000D01*
X161000000Y-70000000D02*
X161000000Y-66000000D01*
X147500000Y-74000000D02*
X139000000Y-74000000D01*
X107500000Y-87000000D02*
X107500000Y-95500000D01*
X107500000Y-120000000D02*
X147500000Y-120000000D01*
X107500000Y-87000000D02*
X107500000Y-87000000D01*
X139000000Y-70000000D02*
X139000000Y-66000000D01*
X104500000Y-44500000D02*
X107500000Y-44500000D01*
X126000000Y-74000000D02*
X119000000Y-74000000D01*
X168000000Y-70000000D02*
X168000000Y-74000000D01*
X192500000Y-95500000D02*
X189500000Y-95500000D01*
X104500000Y-98500000D02*
X107500000Y-98500000D01*
X189500000Y-98500000D02*
X192500000Y-98500000D01*
X189500000Y-53000000D02*
X189500000Y-53000000D01*
X178000000Y-74000000D02*
X178000000Y-74000000D01*
X147500000Y-84000000D02*
X147500000Y-74000000D01*
X171000000Y-74000000D02*
X171000000Y-70000000D01*
X189500000Y-84000000D02*
X189500000Y-84000000D01*
X107500000Y-33000000D02*
X107500000Y-41500000D01*
X104500000Y-41500000D02*
X104500000Y-33000000D01*
X126000000Y-66000000D02*
X126000000Y-70000000D01*
X104500000Y-20000000D02*
X98500000Y-20000000D01*
X119000000Y-66000000D02*
X126000000Y-66000000D01*
X189500000Y-95500000D02*
X189500000Y-87000000D01*
D12*
X204690476Y-72734761D02*
X205357142Y-74734761D01*
X205357142Y-74734761D02*
X206023809Y-72734761D01*
X206690476Y-73972857D02*
X208214286Y-73972857D01*
X210309523Y-74544285D02*
X210214285Y-74639523D01*
X210214285Y-74639523D02*
X209928571Y-74734761D01*
X209928571Y-74734761D02*
X209738095Y-74734761D01*
X209738095Y-74734761D02*
X209452380Y-74639523D01*
X209452380Y-74639523D02*
X209261904Y-74449047D01*
X209261904Y-74449047D02*
X209166666Y-74258571D01*
X209166666Y-74258571D02*
X209071428Y-73877619D01*
X209071428Y-73877619D02*
X209071428Y-73591904D01*
X209071428Y-73591904D02*
X209166666Y-73210952D01*
X209166666Y-73210952D02*
X209261904Y-73020476D01*
X209261904Y-73020476D02*
X209452380Y-72830000D01*
X209452380Y-72830000D02*
X209738095Y-72734761D01*
X209738095Y-72734761D02*
X209928571Y-72734761D01*
X209928571Y-72734761D02*
X210214285Y-72830000D01*
X210214285Y-72830000D02*
X210309523Y-72925238D01*
X211166666Y-72734761D02*
X211166666Y-74353809D01*
X211166666Y-74353809D02*
X211261904Y-74544285D01*
X211261904Y-74544285D02*
X211357142Y-74639523D01*
X211357142Y-74639523D02*
X211547618Y-74734761D01*
X211547618Y-74734761D02*
X211928571Y-74734761D01*
X211928571Y-74734761D02*
X212119047Y-74639523D01*
X212119047Y-74639523D02*
X212214285Y-74544285D01*
X212214285Y-74544285D02*
X212309523Y-74353809D01*
X212309523Y-74353809D02*
X212309523Y-72734761D01*
X212976190Y-72734761D02*
X214119047Y-72734761D01*
X213547618Y-74734761D02*
X213547618Y-72734761D01*
X188234761Y-13809523D02*
X190234761Y-13142857D01*
X190234761Y-13142857D02*
X188234761Y-12476190D01*
X189472857Y-11809523D02*
X189472857Y-10285714D01*
X190044285Y-8190476D02*
X190139523Y-8285714D01*
X190139523Y-8285714D02*
X190234761Y-8571428D01*
X190234761Y-8571428D02*
X190234761Y-8761904D01*
X190234761Y-8761904D02*
X190139523Y-9047619D01*
X190139523Y-9047619D02*
X189949047Y-9238095D01*
X189949047Y-9238095D02*
X189758571Y-9333333D01*
X189758571Y-9333333D02*
X189377619Y-9428571D01*
X189377619Y-9428571D02*
X189091904Y-9428571D01*
X189091904Y-9428571D02*
X188710952Y-9333333D01*
X188710952Y-9333333D02*
X188520476Y-9238095D01*
X188520476Y-9238095D02*
X188330000Y-9047619D01*
X188330000Y-9047619D02*
X188234761Y-8761904D01*
X188234761Y-8761904D02*
X188234761Y-8571428D01*
X188234761Y-8571428D02*
X188330000Y-8285714D01*
X188330000Y-8285714D02*
X188425238Y-8190476D01*
X188234761Y-7333333D02*
X189853809Y-7333333D01*
X189853809Y-7333333D02*
X190044285Y-7238095D01*
X190044285Y-7238095D02*
X190139523Y-7142857D01*
X190139523Y-7142857D02*
X190234761Y-6952381D01*
X190234761Y-6952381D02*
X190234761Y-6571428D01*
X190234761Y-6571428D02*
X190139523Y-6380952D01*
X190139523Y-6380952D02*
X190044285Y-6285714D01*
X190044285Y-6285714D02*
X189853809Y-6190476D01*
X189853809Y-6190476D02*
X188234761Y-6190476D01*
X188234761Y-5523809D02*
X188234761Y-4380952D01*
X190234761Y-4952381D02*
X188234761Y-4952381D01*
X148234761Y-13809523D02*
X150234761Y-13142857D01*
X150234761Y-13142857D02*
X148234761Y-12476190D01*
X149472857Y-11809523D02*
X149472857Y-10285714D01*
X150044285Y-8190476D02*
X150139523Y-8285714D01*
X150139523Y-8285714D02*
X150234761Y-8571428D01*
X150234761Y-8571428D02*
X150234761Y-8761904D01*
X150234761Y-8761904D02*
X150139523Y-9047619D01*
X150139523Y-9047619D02*
X149949047Y-9238095D01*
X149949047Y-9238095D02*
X149758571Y-9333333D01*
X149758571Y-9333333D02*
X149377619Y-9428571D01*
X149377619Y-9428571D02*
X149091904Y-9428571D01*
X149091904Y-9428571D02*
X148710952Y-9333333D01*
X148710952Y-9333333D02*
X148520476Y-9238095D01*
X148520476Y-9238095D02*
X148330000Y-9047619D01*
X148330000Y-9047619D02*
X148234761Y-8761904D01*
X148234761Y-8761904D02*
X148234761Y-8571428D01*
X148234761Y-8571428D02*
X148330000Y-8285714D01*
X148330000Y-8285714D02*
X148425238Y-8190476D01*
X148234761Y-7333333D02*
X149853809Y-7333333D01*
X149853809Y-7333333D02*
X150044285Y-7238095D01*
X150044285Y-7238095D02*
X150139523Y-7142857D01*
X150139523Y-7142857D02*
X150234761Y-6952381D01*
X150234761Y-6952381D02*
X150234761Y-6571428D01*
X150234761Y-6571428D02*
X150139523Y-6380952D01*
X150139523Y-6380952D02*
X150044285Y-6285714D01*
X150044285Y-6285714D02*
X149853809Y-6190476D01*
X149853809Y-6190476D02*
X148234761Y-6190476D01*
X148234761Y-5523809D02*
X148234761Y-4380952D01*
X150234761Y-4952381D02*
X148234761Y-4952381D01*
X204690476Y-64734761D02*
X205357142Y-66734761D01*
X205357142Y-66734761D02*
X206023809Y-64734761D01*
X206690476Y-65972857D02*
X208214286Y-65972857D01*
X210309523Y-66544285D02*
X210214285Y-66639523D01*
X210214285Y-66639523D02*
X209928571Y-66734761D01*
X209928571Y-66734761D02*
X209738095Y-66734761D01*
X209738095Y-66734761D02*
X209452380Y-66639523D01*
X209452380Y-66639523D02*
X209261904Y-66449047D01*
X209261904Y-66449047D02*
X209166666Y-66258571D01*
X209166666Y-66258571D02*
X209071428Y-65877619D01*
X209071428Y-65877619D02*
X209071428Y-65591904D01*
X209071428Y-65591904D02*
X209166666Y-65210952D01*
X209166666Y-65210952D02*
X209261904Y-65020476D01*
X209261904Y-65020476D02*
X209452380Y-64830000D01*
X209452380Y-64830000D02*
X209738095Y-64734761D01*
X209738095Y-64734761D02*
X209928571Y-64734761D01*
X209928571Y-64734761D02*
X210214285Y-64830000D01*
X210214285Y-64830000D02*
X210309523Y-64925238D01*
X211166666Y-64734761D02*
X211166666Y-66353809D01*
X211166666Y-66353809D02*
X211261904Y-66544285D01*
X211261904Y-66544285D02*
X211357142Y-66639523D01*
X211357142Y-66639523D02*
X211547618Y-66734761D01*
X211547618Y-66734761D02*
X211928571Y-66734761D01*
X211928571Y-66734761D02*
X212119047Y-66639523D01*
X212119047Y-66639523D02*
X212214285Y-66544285D01*
X212214285Y-66544285D02*
X212309523Y-66353809D01*
X212309523Y-66353809D02*
X212309523Y-64734761D01*
X212976190Y-64734761D02*
X214119047Y-64734761D01*
X213547618Y-66734761D02*
X213547618Y-64734761D01*
X106234761Y-13809523D02*
X108234761Y-13142857D01*
X108234761Y-13142857D02*
X106234761Y-12476190D01*
X107472857Y-11809523D02*
X107472857Y-10285714D01*
X108044285Y-8190476D02*
X108139523Y-8285714D01*
X108139523Y-8285714D02*
X108234761Y-8571428D01*
X108234761Y-8571428D02*
X108234761Y-8761904D01*
X108234761Y-8761904D02*
X108139523Y-9047619D01*
X108139523Y-9047619D02*
X107949047Y-9238095D01*
X107949047Y-9238095D02*
X107758571Y-9333333D01*
X107758571Y-9333333D02*
X107377619Y-9428571D01*
X107377619Y-9428571D02*
X107091904Y-9428571D01*
X107091904Y-9428571D02*
X106710952Y-9333333D01*
X106710952Y-9333333D02*
X106520476Y-9238095D01*
X106520476Y-9238095D02*
X106330000Y-9047619D01*
X106330000Y-9047619D02*
X106234761Y-8761904D01*
X106234761Y-8761904D02*
X106234761Y-8571428D01*
X106234761Y-8571428D02*
X106330000Y-8285714D01*
X106330000Y-8285714D02*
X106425238Y-8190476D01*
X106234761Y-7333333D02*
X107853809Y-7333333D01*
X107853809Y-7333333D02*
X108044285Y-7238095D01*
X108044285Y-7238095D02*
X108139523Y-7142857D01*
X108139523Y-7142857D02*
X108234761Y-6952381D01*
X108234761Y-6952381D02*
X108234761Y-6571428D01*
X108234761Y-6571428D02*
X108139523Y-6380952D01*
X108139523Y-6380952D02*
X108044285Y-6285714D01*
X108044285Y-6285714D02*
X107853809Y-6190476D01*
X107853809Y-6190476D02*
X106234761Y-6190476D01*
X106234761Y-5523809D02*
X106234761Y-4380952D01*
X108234761Y-4952381D02*
X106234761Y-4952381D01*
X146234761Y-13809523D02*
X148234761Y-13142857D01*
X148234761Y-13142857D02*
X146234761Y-12476190D01*
X147472857Y-11809523D02*
X147472857Y-10285714D01*
X148044285Y-8190476D02*
X148139523Y-8285714D01*
X148139523Y-8285714D02*
X148234761Y-8571428D01*
X148234761Y-8571428D02*
X148234761Y-8761904D01*
X148234761Y-8761904D02*
X148139523Y-9047619D01*
X148139523Y-9047619D02*
X147949047Y-9238095D01*
X147949047Y-9238095D02*
X147758571Y-9333333D01*
X147758571Y-9333333D02*
X147377619Y-9428571D01*
X147377619Y-9428571D02*
X147091904Y-9428571D01*
X147091904Y-9428571D02*
X146710952Y-9333333D01*
X146710952Y-9333333D02*
X146520476Y-9238095D01*
X146520476Y-9238095D02*
X146330000Y-9047619D01*
X146330000Y-9047619D02*
X146234761Y-8761904D01*
X146234761Y-8761904D02*
X146234761Y-8571428D01*
X146234761Y-8571428D02*
X146330000Y-8285714D01*
X146330000Y-8285714D02*
X146425238Y-8190476D01*
X146234761Y-7333333D02*
X147853809Y-7333333D01*
X147853809Y-7333333D02*
X148044285Y-7238095D01*
X148044285Y-7238095D02*
X148139523Y-7142857D01*
X148139523Y-7142857D02*
X148234761Y-6952381D01*
X148234761Y-6952381D02*
X148234761Y-6571428D01*
X148234761Y-6571428D02*
X148139523Y-6380952D01*
X148139523Y-6380952D02*
X148044285Y-6285714D01*
X148044285Y-6285714D02*
X147853809Y-6190476D01*
X147853809Y-6190476D02*
X146234761Y-6190476D01*
X146234761Y-5523809D02*
X146234761Y-4380952D01*
X148234761Y-4952381D02*
X146234761Y-4952381D01*
M02*
