G04 #@! TF.GenerationSoftware,KiCad,Pcbnew,(7.0.0-0)*
G04 #@! TF.CreationDate,2023-05-05T23:00:16+10:00*
G04 #@! TF.ProjectId,panel,70616e65-6c2e-46b6-9963-61645f706362,rev?*
G04 #@! TF.SameCoordinates,Original*
G04 #@! TF.FileFunction,Paste,Top*
G04 #@! TF.FilePolarity,Positive*
%FSLAX46Y46*%
G04 Gerber Fmt 4.6, Leading zero omitted, Abs format (unit mm)*
G04 Created by KiCad (PCBNEW (7.0.0-0)) date 2023-05-05 23:00:16*
%MOMM*%
%LPD*%
G01*
G04 APERTURE LIST*
G04 Aperture macros list*
%AMRoundRect*
0 Rectangle with rounded corners*
0 $1 Rounding radius*
0 $2 $3 $4 $5 $6 $7 $8 $9 X,Y pos of 4 corners*
0 Add a 4 corners polygon primitive as box body*
4,1,4,$2,$3,$4,$5,$6,$7,$8,$9,$2,$3,0*
0 Add four circle primitives for the rounded corners*
1,1,$1+$1,$2,$3*
1,1,$1+$1,$4,$5*
1,1,$1+$1,$6,$7*
1,1,$1+$1,$8,$9*
0 Add four rect primitives between the rounded corners*
20,1,$1+$1,$2,$3,$4,$5,0*
20,1,$1+$1,$4,$5,$6,$7,0*
20,1,$1+$1,$6,$7,$8,$9,0*
20,1,$1+$1,$8,$9,$2,$3,0*%
%AMFreePoly0*
4,1,9,5.362500,-0.866500,1.237500,-0.866500,1.237500,-0.450000,-1.237500,-0.450000,-1.237500,0.450000,1.237500,0.450000,1.237500,0.866500,5.362500,0.866500,5.362500,-0.866500,5.362500,-0.866500,$1*%
G04 Aperture macros list end*
%ADD10RoundRect,0.075000X-0.650000X-0.075000X0.650000X-0.075000X0.650000X0.075000X-0.650000X0.075000X0*%
%ADD11RoundRect,0.237500X-0.237500X0.300000X-0.237500X-0.300000X0.237500X-0.300000X0.237500X0.300000X0*%
%ADD12RoundRect,0.237500X0.237500X-0.300000X0.237500X0.300000X-0.237500X0.300000X-0.237500X-0.300000X0*%
%ADD13R,2.300000X0.900000*%
%ADD14FreePoly0,0.000000*%
%ADD15RoundRect,0.237500X-0.250000X-0.237500X0.250000X-0.237500X0.250000X0.237500X-0.250000X0.237500X0*%
%ADD16RoundRect,0.250000X-1.950000X-0.700000X1.950000X-0.700000X1.950000X0.700000X-1.950000X0.700000X0*%
%ADD17RoundRect,0.249999X1.425001X-0.450001X1.425001X0.450001X-1.425001X0.450001X-1.425001X-0.450001X0*%
%ADD18RoundRect,0.250000X-0.350000X0.850000X-0.350000X-0.850000X0.350000X-0.850000X0.350000X0.850000X0*%
%ADD19RoundRect,0.250000X-1.125000X1.275000X-1.125000X-1.275000X1.125000X-1.275000X1.125000X1.275000X0*%
%ADD20RoundRect,0.237500X0.237500X-0.250000X0.237500X0.250000X-0.237500X0.250000X-0.237500X-0.250000X0*%
%ADD21RoundRect,0.237500X0.250000X0.237500X-0.250000X0.237500X-0.250000X-0.237500X0.250000X-0.237500X0*%
%ADD22RoundRect,0.237500X-0.300000X-0.237500X0.300000X-0.237500X0.300000X0.237500X-0.300000X0.237500X0*%
G04 APERTURE END LIST*
D10*
X162550000Y-39500000D03*
X162550000Y-40000000D03*
X162550000Y-40500000D03*
X162550000Y-41000000D03*
X162550000Y-41500000D03*
X166950000Y-41500000D03*
X166950000Y-41000000D03*
X166950000Y-40500000D03*
X166950000Y-40000000D03*
X166950000Y-39500000D03*
X162550000Y-93500000D03*
X162550000Y-94000000D03*
X162550000Y-94500000D03*
X162550000Y-95000000D03*
X162550000Y-95500000D03*
X166950000Y-95500000D03*
X166950000Y-95000000D03*
X166950000Y-94500000D03*
X166950000Y-94000000D03*
X166950000Y-93500000D03*
X120550000Y-39500000D03*
X120550000Y-40000000D03*
X120550000Y-40500000D03*
X120550000Y-41000000D03*
X120550000Y-41500000D03*
X124950000Y-41500000D03*
X124950000Y-41000000D03*
X124950000Y-40500000D03*
X124950000Y-40000000D03*
X124950000Y-39500000D03*
X120550000Y-93500000D03*
X120550000Y-94000000D03*
X120550000Y-94500000D03*
X120550000Y-95000000D03*
X120550000Y-95500000D03*
X124950000Y-95500000D03*
X124950000Y-95000000D03*
X124950000Y-94500000D03*
X124950000Y-94000000D03*
X124950000Y-93500000D03*
X162550000Y-84750000D03*
X162550000Y-85250000D03*
X162550000Y-85750000D03*
X162550000Y-86250000D03*
X162550000Y-86750000D03*
X166950000Y-86750000D03*
X166950000Y-86250000D03*
X166950000Y-85750000D03*
X166950000Y-85250000D03*
X166950000Y-84750000D03*
X120550000Y-30750000D03*
X120550000Y-31250000D03*
X120550000Y-31750000D03*
X120550000Y-32250000D03*
X120550000Y-32750000D03*
X124950000Y-32750000D03*
X124950000Y-32250000D03*
X124950000Y-31750000D03*
X124950000Y-31250000D03*
X124950000Y-30750000D03*
X120550000Y-84750000D03*
X120550000Y-85250000D03*
X120550000Y-85750000D03*
X120550000Y-86250000D03*
X120550000Y-86750000D03*
X124950000Y-86750000D03*
X124950000Y-86250000D03*
X124950000Y-85750000D03*
X124950000Y-85250000D03*
X124950000Y-84750000D03*
X162550000Y-30750000D03*
X162550000Y-31250000D03*
X162550000Y-31750000D03*
X162550000Y-32250000D03*
X162550000Y-32750000D03*
X166950000Y-32750000D03*
X166950000Y-32250000D03*
X166950000Y-31750000D03*
X166950000Y-31250000D03*
X166950000Y-30750000D03*
D11*
X174250000Y-61250000D03*
X174250000Y-62975000D03*
X174250000Y-115250000D03*
X174250000Y-116975000D03*
X132250000Y-61250000D03*
X132250000Y-62975000D03*
X132250000Y-115250000D03*
X132250000Y-116975000D03*
D12*
X169500000Y-35562500D03*
X169500000Y-33837500D03*
X169500000Y-89562500D03*
X169500000Y-87837500D03*
X127500000Y-35562500D03*
X127500000Y-33837500D03*
X127500000Y-89562500D03*
X127500000Y-87837500D03*
D13*
X161549999Y-58249999D03*
D14*
X161637500Y-59750000D03*
D13*
X161549999Y-61249999D03*
X161549999Y-112249999D03*
D14*
X161637500Y-113750000D03*
D13*
X161549999Y-115249999D03*
X119549999Y-58249999D03*
D14*
X119637500Y-59750000D03*
D13*
X119549999Y-61249999D03*
X119549999Y-112249999D03*
D14*
X119637500Y-113750000D03*
D13*
X119549999Y-115249999D03*
D11*
X169500000Y-37887500D03*
X169500000Y-39612500D03*
X169500000Y-91887500D03*
X169500000Y-93612500D03*
X127500000Y-37887500D03*
X127500000Y-39612500D03*
X127500000Y-91887500D03*
X127500000Y-93612500D03*
D12*
X158750000Y-60462500D03*
X158750000Y-58737500D03*
X158750000Y-114462500D03*
X158750000Y-112737500D03*
X116750000Y-60462500D03*
X116750000Y-58737500D03*
X116750000Y-114462500D03*
X116750000Y-112737500D03*
D11*
X151250000Y-56440000D03*
X151250000Y-58165000D03*
X151250000Y-110440000D03*
X151250000Y-112165000D03*
X109250000Y-56440000D03*
X109250000Y-58165000D03*
X109250000Y-110440000D03*
X109250000Y-112165000D03*
D15*
X171587500Y-27250000D03*
X173412500Y-27250000D03*
X171587500Y-81250000D03*
X173412500Y-81250000D03*
X129587500Y-27250000D03*
X131412500Y-27250000D03*
X129587500Y-81250000D03*
X131412500Y-81250000D03*
X171587500Y-32250000D03*
X173412500Y-32250000D03*
X171587500Y-86250000D03*
X173412500Y-86250000D03*
X129587500Y-32250000D03*
X131412500Y-32250000D03*
X129587500Y-86250000D03*
X131412500Y-86250000D03*
D16*
X175650000Y-52500000D03*
X184350000Y-52500000D03*
X175650000Y-106500000D03*
X184350000Y-106500000D03*
X133650000Y-52500000D03*
X142350000Y-52500000D03*
X133650000Y-106500000D03*
X142350000Y-106500000D03*
D11*
X169500000Y-29387500D03*
X169500000Y-31112500D03*
X169500000Y-83387500D03*
X169500000Y-85112500D03*
X127500000Y-29387500D03*
X127500000Y-31112500D03*
X127500000Y-83387500D03*
X127500000Y-85112500D03*
D12*
X169500000Y-44062500D03*
X169500000Y-42337500D03*
X169500000Y-98062500D03*
X169500000Y-96337500D03*
X127500000Y-44062500D03*
X127500000Y-42337500D03*
X127500000Y-98062500D03*
X127500000Y-96337500D03*
D17*
X176750000Y-41800000D03*
X176750000Y-35700000D03*
X176750000Y-95800000D03*
X176750000Y-89700000D03*
X134750000Y-41800000D03*
X134750000Y-35700000D03*
X134750000Y-95800000D03*
X134750000Y-89700000D03*
D18*
X187030000Y-36300000D03*
D19*
X186275000Y-40925000D03*
X183225000Y-40925000D03*
X186275000Y-44275000D03*
X183225000Y-44275000D03*
D18*
X182470000Y-36300000D03*
X187030000Y-90300000D03*
D19*
X186275000Y-94925000D03*
X183225000Y-94925000D03*
X186275000Y-98275000D03*
X183225000Y-98275000D03*
D18*
X182470000Y-90300000D03*
X145030000Y-36300000D03*
D19*
X144275000Y-40925000D03*
X141225000Y-40925000D03*
X144275000Y-44275000D03*
X141225000Y-44275000D03*
D18*
X140470000Y-36300000D03*
X145030000Y-90300000D03*
D19*
X144275000Y-94925000D03*
X141225000Y-94925000D03*
X144275000Y-98275000D03*
X141225000Y-98275000D03*
D18*
X140470000Y-90300000D03*
D15*
X171587500Y-41750000D03*
X173412500Y-41750000D03*
X171587500Y-95750000D03*
X173412500Y-95750000D03*
X129587500Y-41750000D03*
X131412500Y-41750000D03*
X129587500Y-95750000D03*
X131412500Y-95750000D03*
D20*
X172320000Y-36432500D03*
X172320000Y-34607500D03*
X172320000Y-90432500D03*
X172320000Y-88607500D03*
X130320000Y-36432500D03*
X130320000Y-34607500D03*
X130320000Y-90432500D03*
X130320000Y-88607500D03*
D21*
X186912500Y-33500000D03*
X185087500Y-33500000D03*
X186912500Y-87500000D03*
X185087500Y-87500000D03*
X144912500Y-33500000D03*
X143087500Y-33500000D03*
X144912500Y-87500000D03*
X143087500Y-87500000D03*
D17*
X176750000Y-33050000D03*
X176750000Y-26950000D03*
X176750000Y-87050000D03*
X176750000Y-80950000D03*
X134750000Y-33050000D03*
X134750000Y-26950000D03*
X134750000Y-87050000D03*
X134750000Y-80950000D03*
D22*
X164637500Y-63250000D03*
X166362500Y-63250000D03*
X164637500Y-117250000D03*
X166362500Y-117250000D03*
X122637500Y-63250000D03*
X124362500Y-63250000D03*
X122637500Y-117250000D03*
X124362500Y-117250000D03*
M02*
