G04 #@! TF.GenerationSoftware,KiCad,Pcbnew,(7.0.0-0)*
G04 #@! TF.CreationDate,2023-05-05T23:00:16+10:00*
G04 #@! TF.ProjectId,panel,70616e65-6c2e-46b6-9963-61645f706362,rev?*
G04 #@! TF.SameCoordinates,Original*
G04 #@! TF.FileFunction,Legend,Top*
G04 #@! TF.FilePolarity,Positive*
%FSLAX46Y46*%
G04 Gerber Fmt 4.6, Leading zero omitted, Abs format (unit mm)*
G04 Created by KiCad (PCBNEW (7.0.0-0)) date 2023-05-05 23:00:16*
%MOMM*%
%LPD*%
G01*
G04 APERTURE LIST*
G04 Aperture macros list*
%AMRoundRect*
0 Rectangle with rounded corners*
0 $1 Rounding radius*
0 $2 $3 $4 $5 $6 $7 $8 $9 X,Y pos of 4 corners*
0 Add a 4 corners polygon primitive as box body*
4,1,4,$2,$3,$4,$5,$6,$7,$8,$9,$2,$3,0*
0 Add four circle primitives for the rounded corners*
1,1,$1+$1,$2,$3*
1,1,$1+$1,$4,$5*
1,1,$1+$1,$6,$7*
1,1,$1+$1,$8,$9*
0 Add four rect primitives between the rounded corners*
20,1,$1+$1,$2,$3,$4,$5,0*
20,1,$1+$1,$4,$5,$6,$7,0*
20,1,$1+$1,$6,$7,$8,$9,0*
20,1,$1+$1,$8,$9,$2,$3,0*%
%AMFreePoly0*
4,1,9,5.362500,-0.866500,1.237500,-0.866500,1.237500,-0.450000,-1.237500,-0.450000,-1.237500,0.450000,1.237500,0.450000,1.237500,0.866500,5.362500,0.866500,5.362500,-0.866500,5.362500,-0.866500,$1*%
G04 Aperture macros list end*
%ADD10C,0.150000*%
%ADD11C,0.120000*%
%ADD12C,1.000000*%
%ADD13RoundRect,0.075000X-0.650000X-0.075000X0.650000X-0.075000X0.650000X0.075000X-0.650000X0.075000X0*%
%ADD14C,2.000000*%
%ADD15RoundRect,0.237500X-0.237500X0.300000X-0.237500X-0.300000X0.237500X-0.300000X0.237500X0.300000X0*%
%ADD16R,1.700000X1.700000*%
%ADD17O,1.700000X1.700000*%
%ADD18RoundRect,0.237500X0.237500X-0.300000X0.237500X0.300000X-0.237500X0.300000X-0.237500X-0.300000X0*%
%ADD19R,2.300000X0.900000*%
%ADD20FreePoly0,0.000000*%
%ADD21RoundRect,0.237500X-0.250000X-0.237500X0.250000X-0.237500X0.250000X0.237500X-0.250000X0.237500X0*%
%ADD22RoundRect,0.250000X-1.950000X-0.700000X1.950000X-0.700000X1.950000X0.700000X-1.950000X0.700000X0*%
%ADD23RoundRect,0.249999X1.425001X-0.450001X1.425001X0.450001X-1.425001X0.450001X-1.425001X-0.450001X0*%
%ADD24RoundRect,0.250000X-0.350000X0.850000X-0.350000X-0.850000X0.350000X-0.850000X0.350000X0.850000X0*%
%ADD25RoundRect,0.249997X-2.650003X2.950003X-2.650003X-2.950003X2.650003X-2.950003X2.650003X2.950003X0*%
%ADD26RoundRect,0.237500X0.237500X-0.250000X0.237500X0.250000X-0.237500X0.250000X-0.237500X-0.250000X0*%
%ADD27RoundRect,0.237500X0.250000X0.237500X-0.250000X0.237500X-0.250000X-0.237500X0.250000X-0.237500X0*%
%ADD28RoundRect,0.237500X-0.300000X-0.237500X0.300000X-0.237500X0.300000X0.237500X-0.300000X0.237500X0*%
%ADD29C,2.600000*%
%ADD30C,3.500000*%
G04 APERTURE END LIST*
D10*
X195892380Y-57481904D02*
X194892380Y-57481904D01*
X194892380Y-57481904D02*
X194892380Y-57100952D01*
X194892380Y-57100952D02*
X194940000Y-57005714D01*
X194940000Y-57005714D02*
X194987619Y-56958095D01*
X194987619Y-56958095D02*
X195082857Y-56910476D01*
X195082857Y-56910476D02*
X195225714Y-56910476D01*
X195225714Y-56910476D02*
X195320952Y-56958095D01*
X195320952Y-56958095D02*
X195368571Y-57005714D01*
X195368571Y-57005714D02*
X195416190Y-57100952D01*
X195416190Y-57100952D02*
X195416190Y-57481904D01*
X195225714Y-56053333D02*
X195892380Y-56053333D01*
X195225714Y-56481904D02*
X195749523Y-56481904D01*
X195749523Y-56481904D02*
X195844761Y-56434285D01*
X195844761Y-56434285D02*
X195892380Y-56339047D01*
X195892380Y-56339047D02*
X195892380Y-56196190D01*
X195892380Y-56196190D02*
X195844761Y-56100952D01*
X195844761Y-56100952D02*
X195797142Y-56053333D01*
X195892380Y-55577142D02*
X195225714Y-55577142D01*
X195416190Y-55577142D02*
X195320952Y-55529523D01*
X195320952Y-55529523D02*
X195273333Y-55481904D01*
X195273333Y-55481904D02*
X195225714Y-55386666D01*
X195225714Y-55386666D02*
X195225714Y-55291428D01*
X195844761Y-54529523D02*
X195892380Y-54624761D01*
X195892380Y-54624761D02*
X195892380Y-54815237D01*
X195892380Y-54815237D02*
X195844761Y-54910475D01*
X195844761Y-54910475D02*
X195797142Y-54958094D01*
X195797142Y-54958094D02*
X195701904Y-55005713D01*
X195701904Y-55005713D02*
X195416190Y-55005713D01*
X195416190Y-55005713D02*
X195320952Y-54958094D01*
X195320952Y-54958094D02*
X195273333Y-54910475D01*
X195273333Y-54910475D02*
X195225714Y-54815237D01*
X195225714Y-54815237D02*
X195225714Y-54624761D01*
X195225714Y-54624761D02*
X195273333Y-54529523D01*
X195892380Y-54100951D02*
X194892380Y-54100951D01*
X195892380Y-53672380D02*
X195368571Y-53672380D01*
X195368571Y-53672380D02*
X195273333Y-53719999D01*
X195273333Y-53719999D02*
X195225714Y-53815237D01*
X195225714Y-53815237D02*
X195225714Y-53958094D01*
X195225714Y-53958094D02*
X195273333Y-54053332D01*
X195273333Y-54053332D02*
X195320952Y-54100951D01*
X195892380Y-52767618D02*
X195368571Y-52767618D01*
X195368571Y-52767618D02*
X195273333Y-52815237D01*
X195273333Y-52815237D02*
X195225714Y-52910475D01*
X195225714Y-52910475D02*
X195225714Y-53100951D01*
X195225714Y-53100951D02*
X195273333Y-53196189D01*
X195844761Y-52767618D02*
X195892380Y-52862856D01*
X195892380Y-52862856D02*
X195892380Y-53100951D01*
X195892380Y-53100951D02*
X195844761Y-53196189D01*
X195844761Y-53196189D02*
X195749523Y-53243808D01*
X195749523Y-53243808D02*
X195654285Y-53243808D01*
X195654285Y-53243808D02*
X195559047Y-53196189D01*
X195559047Y-53196189D02*
X195511428Y-53100951D01*
X195511428Y-53100951D02*
X195511428Y-52862856D01*
X195511428Y-52862856D02*
X195463809Y-52767618D01*
X195844761Y-52339046D02*
X195892380Y-52243808D01*
X195892380Y-52243808D02*
X195892380Y-52053332D01*
X195892380Y-52053332D02*
X195844761Y-51958094D01*
X195844761Y-51958094D02*
X195749523Y-51910475D01*
X195749523Y-51910475D02*
X195701904Y-51910475D01*
X195701904Y-51910475D02*
X195606666Y-51958094D01*
X195606666Y-51958094D02*
X195559047Y-52053332D01*
X195559047Y-52053332D02*
X195559047Y-52196189D01*
X195559047Y-52196189D02*
X195511428Y-52291427D01*
X195511428Y-52291427D02*
X195416190Y-52339046D01*
X195416190Y-52339046D02*
X195368571Y-52339046D01*
X195368571Y-52339046D02*
X195273333Y-52291427D01*
X195273333Y-52291427D02*
X195225714Y-52196189D01*
X195225714Y-52196189D02*
X195225714Y-52053332D01*
X195225714Y-52053332D02*
X195273333Y-51958094D01*
X195844761Y-51100951D02*
X195892380Y-51196189D01*
X195892380Y-51196189D02*
X195892380Y-51386665D01*
X195892380Y-51386665D02*
X195844761Y-51481903D01*
X195844761Y-51481903D02*
X195749523Y-51529522D01*
X195749523Y-51529522D02*
X195368571Y-51529522D01*
X195368571Y-51529522D02*
X195273333Y-51481903D01*
X195273333Y-51481903D02*
X195225714Y-51386665D01*
X195225714Y-51386665D02*
X195225714Y-51196189D01*
X195225714Y-51196189D02*
X195273333Y-51100951D01*
X195273333Y-51100951D02*
X195368571Y-51053332D01*
X195368571Y-51053332D02*
X195463809Y-51053332D01*
X195463809Y-51053332D02*
X195559047Y-51529522D01*
X195892380Y-49596189D02*
X194892380Y-49596189D01*
X195844761Y-49596189D02*
X195892380Y-49691427D01*
X195892380Y-49691427D02*
X195892380Y-49881903D01*
X195892380Y-49881903D02*
X195844761Y-49977141D01*
X195844761Y-49977141D02*
X195797142Y-50024760D01*
X195797142Y-50024760D02*
X195701904Y-50072379D01*
X195701904Y-50072379D02*
X195416190Y-50072379D01*
X195416190Y-50072379D02*
X195320952Y-50024760D01*
X195320952Y-50024760D02*
X195273333Y-49977141D01*
X195273333Y-49977141D02*
X195225714Y-49881903D01*
X195225714Y-49881903D02*
X195225714Y-49691427D01*
X195225714Y-49691427D02*
X195273333Y-49596189D01*
X195892380Y-48691427D02*
X195368571Y-48691427D01*
X195368571Y-48691427D02*
X195273333Y-48739046D01*
X195273333Y-48739046D02*
X195225714Y-48834284D01*
X195225714Y-48834284D02*
X195225714Y-49024760D01*
X195225714Y-49024760D02*
X195273333Y-49119998D01*
X195844761Y-48691427D02*
X195892380Y-48786665D01*
X195892380Y-48786665D02*
X195892380Y-49024760D01*
X195892380Y-49024760D02*
X195844761Y-49119998D01*
X195844761Y-49119998D02*
X195749523Y-49167617D01*
X195749523Y-49167617D02*
X195654285Y-49167617D01*
X195654285Y-49167617D02*
X195559047Y-49119998D01*
X195559047Y-49119998D02*
X195511428Y-49024760D01*
X195511428Y-49024760D02*
X195511428Y-48786665D01*
X195511428Y-48786665D02*
X195463809Y-48691427D01*
X195225714Y-48358093D02*
X195225714Y-47977141D01*
X194892380Y-48215236D02*
X195749523Y-48215236D01*
X195749523Y-48215236D02*
X195844761Y-48167617D01*
X195844761Y-48167617D02*
X195892380Y-48072379D01*
X195892380Y-48072379D02*
X195892380Y-47977141D01*
X195844761Y-47262855D02*
X195892380Y-47358093D01*
X195892380Y-47358093D02*
X195892380Y-47548569D01*
X195892380Y-47548569D02*
X195844761Y-47643807D01*
X195844761Y-47643807D02*
X195749523Y-47691426D01*
X195749523Y-47691426D02*
X195368571Y-47691426D01*
X195368571Y-47691426D02*
X195273333Y-47643807D01*
X195273333Y-47643807D02*
X195225714Y-47548569D01*
X195225714Y-47548569D02*
X195225714Y-47358093D01*
X195225714Y-47358093D02*
X195273333Y-47262855D01*
X195273333Y-47262855D02*
X195368571Y-47215236D01*
X195368571Y-47215236D02*
X195463809Y-47215236D01*
X195463809Y-47215236D02*
X195559047Y-47691426D01*
X195797142Y-46786664D02*
X195844761Y-46739045D01*
X195844761Y-46739045D02*
X195892380Y-46786664D01*
X195892380Y-46786664D02*
X195844761Y-46834283D01*
X195844761Y-46834283D02*
X195797142Y-46786664D01*
X195797142Y-46786664D02*
X195892380Y-46786664D01*
X195273333Y-46786664D02*
X195320952Y-46739045D01*
X195320952Y-46739045D02*
X195368571Y-46786664D01*
X195368571Y-46786664D02*
X195320952Y-46834283D01*
X195320952Y-46834283D02*
X195273333Y-46786664D01*
X195273333Y-46786664D02*
X195368571Y-46786664D01*
X194892380Y-45234284D02*
X194892380Y-45710474D01*
X194892380Y-45710474D02*
X195368571Y-45758093D01*
X195368571Y-45758093D02*
X195320952Y-45710474D01*
X195320952Y-45710474D02*
X195273333Y-45615236D01*
X195273333Y-45615236D02*
X195273333Y-45377141D01*
X195273333Y-45377141D02*
X195320952Y-45281903D01*
X195320952Y-45281903D02*
X195368571Y-45234284D01*
X195368571Y-45234284D02*
X195463809Y-45186665D01*
X195463809Y-45186665D02*
X195701904Y-45186665D01*
X195701904Y-45186665D02*
X195797142Y-45234284D01*
X195797142Y-45234284D02*
X195844761Y-45281903D01*
X195844761Y-45281903D02*
X195892380Y-45377141D01*
X195892380Y-45377141D02*
X195892380Y-45615236D01*
X195892380Y-45615236D02*
X195844761Y-45710474D01*
X195844761Y-45710474D02*
X195797142Y-45758093D01*
X195892380Y-44158093D02*
X194892380Y-44158093D01*
X194892380Y-44158093D02*
X195606666Y-43824760D01*
X195606666Y-43824760D02*
X194892380Y-43491427D01*
X194892380Y-43491427D02*
X195892380Y-43491427D01*
X195892380Y-42586665D02*
X195368571Y-42586665D01*
X195368571Y-42586665D02*
X195273333Y-42634284D01*
X195273333Y-42634284D02*
X195225714Y-42729522D01*
X195225714Y-42729522D02*
X195225714Y-42919998D01*
X195225714Y-42919998D02*
X195273333Y-43015236D01*
X195844761Y-42586665D02*
X195892380Y-42681903D01*
X195892380Y-42681903D02*
X195892380Y-42919998D01*
X195892380Y-42919998D02*
X195844761Y-43015236D01*
X195844761Y-43015236D02*
X195749523Y-43062855D01*
X195749523Y-43062855D02*
X195654285Y-43062855D01*
X195654285Y-43062855D02*
X195559047Y-43015236D01*
X195559047Y-43015236D02*
X195511428Y-42919998D01*
X195511428Y-42919998D02*
X195511428Y-42681903D01*
X195511428Y-42681903D02*
X195463809Y-42586665D01*
X195225714Y-42205712D02*
X195892380Y-41967617D01*
X195225714Y-41729522D02*
X195892380Y-41967617D01*
X195892380Y-41967617D02*
X196130476Y-42062855D01*
X196130476Y-42062855D02*
X196178095Y-42110474D01*
X196178095Y-42110474D02*
X196225714Y-42205712D01*
X194987619Y-40796188D02*
X194940000Y-40748569D01*
X194940000Y-40748569D02*
X194892380Y-40653331D01*
X194892380Y-40653331D02*
X194892380Y-40415236D01*
X194892380Y-40415236D02*
X194940000Y-40319998D01*
X194940000Y-40319998D02*
X194987619Y-40272379D01*
X194987619Y-40272379D02*
X195082857Y-40224760D01*
X195082857Y-40224760D02*
X195178095Y-40224760D01*
X195178095Y-40224760D02*
X195320952Y-40272379D01*
X195320952Y-40272379D02*
X195892380Y-40843807D01*
X195892380Y-40843807D02*
X195892380Y-40224760D01*
X194892380Y-39605712D02*
X194892380Y-39510474D01*
X194892380Y-39510474D02*
X194940000Y-39415236D01*
X194940000Y-39415236D02*
X194987619Y-39367617D01*
X194987619Y-39367617D02*
X195082857Y-39319998D01*
X195082857Y-39319998D02*
X195273333Y-39272379D01*
X195273333Y-39272379D02*
X195511428Y-39272379D01*
X195511428Y-39272379D02*
X195701904Y-39319998D01*
X195701904Y-39319998D02*
X195797142Y-39367617D01*
X195797142Y-39367617D02*
X195844761Y-39415236D01*
X195844761Y-39415236D02*
X195892380Y-39510474D01*
X195892380Y-39510474D02*
X195892380Y-39605712D01*
X195892380Y-39605712D02*
X195844761Y-39700950D01*
X195844761Y-39700950D02*
X195797142Y-39748569D01*
X195797142Y-39748569D02*
X195701904Y-39796188D01*
X195701904Y-39796188D02*
X195511428Y-39843807D01*
X195511428Y-39843807D02*
X195273333Y-39843807D01*
X195273333Y-39843807D02*
X195082857Y-39796188D01*
X195082857Y-39796188D02*
X194987619Y-39748569D01*
X194987619Y-39748569D02*
X194940000Y-39700950D01*
X194940000Y-39700950D02*
X194892380Y-39605712D01*
X194987619Y-38891426D02*
X194940000Y-38843807D01*
X194940000Y-38843807D02*
X194892380Y-38748569D01*
X194892380Y-38748569D02*
X194892380Y-38510474D01*
X194892380Y-38510474D02*
X194940000Y-38415236D01*
X194940000Y-38415236D02*
X194987619Y-38367617D01*
X194987619Y-38367617D02*
X195082857Y-38319998D01*
X195082857Y-38319998D02*
X195178095Y-38319998D01*
X195178095Y-38319998D02*
X195320952Y-38367617D01*
X195320952Y-38367617D02*
X195892380Y-38939045D01*
X195892380Y-38939045D02*
X195892380Y-38319998D01*
X194892380Y-37986664D02*
X194892380Y-37367617D01*
X194892380Y-37367617D02*
X195273333Y-37700950D01*
X195273333Y-37700950D02*
X195273333Y-37558093D01*
X195273333Y-37558093D02*
X195320952Y-37462855D01*
X195320952Y-37462855D02*
X195368571Y-37415236D01*
X195368571Y-37415236D02*
X195463809Y-37367617D01*
X195463809Y-37367617D02*
X195701904Y-37367617D01*
X195701904Y-37367617D02*
X195797142Y-37415236D01*
X195797142Y-37415236D02*
X195844761Y-37462855D01*
X195844761Y-37462855D02*
X195892380Y-37558093D01*
X195892380Y-37558093D02*
X195892380Y-37843807D01*
X195892380Y-37843807D02*
X195844761Y-37939045D01*
X195844761Y-37939045D02*
X195797142Y-37986664D01*
X194832380Y-97656190D02*
X195546666Y-97656190D01*
X195546666Y-97656190D02*
X195689523Y-97703809D01*
X195689523Y-97703809D02*
X195784761Y-97799047D01*
X195784761Y-97799047D02*
X195832380Y-97941904D01*
X195832380Y-97941904D02*
X195832380Y-98037142D01*
X195832380Y-96703809D02*
X195832380Y-97179999D01*
X195832380Y-97179999D02*
X194832380Y-97179999D01*
X195737142Y-95799047D02*
X195784761Y-95846666D01*
X195784761Y-95846666D02*
X195832380Y-95989523D01*
X195832380Y-95989523D02*
X195832380Y-96084761D01*
X195832380Y-96084761D02*
X195784761Y-96227618D01*
X195784761Y-96227618D02*
X195689523Y-96322856D01*
X195689523Y-96322856D02*
X195594285Y-96370475D01*
X195594285Y-96370475D02*
X195403809Y-96418094D01*
X195403809Y-96418094D02*
X195260952Y-96418094D01*
X195260952Y-96418094D02*
X195070476Y-96370475D01*
X195070476Y-96370475D02*
X194975238Y-96322856D01*
X194975238Y-96322856D02*
X194880000Y-96227618D01*
X194880000Y-96227618D02*
X194832380Y-96084761D01*
X194832380Y-96084761D02*
X194832380Y-95989523D01*
X194832380Y-95989523D02*
X194880000Y-95846666D01*
X194880000Y-95846666D02*
X194927619Y-95799047D01*
X194832380Y-95084761D02*
X195546666Y-95084761D01*
X195546666Y-95084761D02*
X195689523Y-95132380D01*
X195689523Y-95132380D02*
X195784761Y-95227618D01*
X195784761Y-95227618D02*
X195832380Y-95370475D01*
X195832380Y-95370475D02*
X195832380Y-95465713D01*
X195832380Y-94132380D02*
X195832380Y-94608570D01*
X195832380Y-94608570D02*
X194832380Y-94608570D01*
X195737142Y-93227618D02*
X195784761Y-93275237D01*
X195784761Y-93275237D02*
X195832380Y-93418094D01*
X195832380Y-93418094D02*
X195832380Y-93513332D01*
X195832380Y-93513332D02*
X195784761Y-93656189D01*
X195784761Y-93656189D02*
X195689523Y-93751427D01*
X195689523Y-93751427D02*
X195594285Y-93799046D01*
X195594285Y-93799046D02*
X195403809Y-93846665D01*
X195403809Y-93846665D02*
X195260952Y-93846665D01*
X195260952Y-93846665D02*
X195070476Y-93799046D01*
X195070476Y-93799046D02*
X194975238Y-93751427D01*
X194975238Y-93751427D02*
X194880000Y-93656189D01*
X194880000Y-93656189D02*
X194832380Y-93513332D01*
X194832380Y-93513332D02*
X194832380Y-93418094D01*
X194832380Y-93418094D02*
X194880000Y-93275237D01*
X194880000Y-93275237D02*
X194927619Y-93227618D01*
X194832380Y-92513332D02*
X195546666Y-92513332D01*
X195546666Y-92513332D02*
X195689523Y-92560951D01*
X195689523Y-92560951D02*
X195784761Y-92656189D01*
X195784761Y-92656189D02*
X195832380Y-92799046D01*
X195832380Y-92799046D02*
X195832380Y-92894284D01*
X195832380Y-91560951D02*
X195832380Y-92037141D01*
X195832380Y-92037141D02*
X194832380Y-92037141D01*
X195737142Y-90656189D02*
X195784761Y-90703808D01*
X195784761Y-90703808D02*
X195832380Y-90846665D01*
X195832380Y-90846665D02*
X195832380Y-90941903D01*
X195832380Y-90941903D02*
X195784761Y-91084760D01*
X195784761Y-91084760D02*
X195689523Y-91179998D01*
X195689523Y-91179998D02*
X195594285Y-91227617D01*
X195594285Y-91227617D02*
X195403809Y-91275236D01*
X195403809Y-91275236D02*
X195260952Y-91275236D01*
X195260952Y-91275236D02*
X195070476Y-91227617D01*
X195070476Y-91227617D02*
X194975238Y-91179998D01*
X194975238Y-91179998D02*
X194880000Y-91084760D01*
X194880000Y-91084760D02*
X194832380Y-90941903D01*
X194832380Y-90941903D02*
X194832380Y-90846665D01*
X194832380Y-90846665D02*
X194880000Y-90703808D01*
X194880000Y-90703808D02*
X194927619Y-90656189D01*
X194832380Y-89941903D02*
X195546666Y-89941903D01*
X195546666Y-89941903D02*
X195689523Y-89989522D01*
X195689523Y-89989522D02*
X195784761Y-90084760D01*
X195784761Y-90084760D02*
X195832380Y-90227617D01*
X195832380Y-90227617D02*
X195832380Y-90322855D01*
X195832380Y-88989522D02*
X195832380Y-89465712D01*
X195832380Y-89465712D02*
X194832380Y-89465712D01*
X195737142Y-88084760D02*
X195784761Y-88132379D01*
X195784761Y-88132379D02*
X195832380Y-88275236D01*
X195832380Y-88275236D02*
X195832380Y-88370474D01*
X195832380Y-88370474D02*
X195784761Y-88513331D01*
X195784761Y-88513331D02*
X195689523Y-88608569D01*
X195689523Y-88608569D02*
X195594285Y-88656188D01*
X195594285Y-88656188D02*
X195403809Y-88703807D01*
X195403809Y-88703807D02*
X195260952Y-88703807D01*
X195260952Y-88703807D02*
X195070476Y-88656188D01*
X195070476Y-88656188D02*
X194975238Y-88608569D01*
X194975238Y-88608569D02*
X194880000Y-88513331D01*
X194880000Y-88513331D02*
X194832380Y-88370474D01*
X194832380Y-88370474D02*
X194832380Y-88275236D01*
X194832380Y-88275236D02*
X194880000Y-88132379D01*
X194880000Y-88132379D02*
X194927619Y-88084760D01*
X163988095Y-42617380D02*
X163988095Y-43426904D01*
X163988095Y-43426904D02*
X164035714Y-43522142D01*
X164035714Y-43522142D02*
X164083333Y-43569761D01*
X164083333Y-43569761D02*
X164178571Y-43617380D01*
X164178571Y-43617380D02*
X164369047Y-43617380D01*
X164369047Y-43617380D02*
X164464285Y-43569761D01*
X164464285Y-43569761D02*
X164511904Y-43522142D01*
X164511904Y-43522142D02*
X164559523Y-43426904D01*
X164559523Y-43426904D02*
X164559523Y-42617380D01*
X164988095Y-42712619D02*
X165035714Y-42665000D01*
X165035714Y-42665000D02*
X165130952Y-42617380D01*
X165130952Y-42617380D02*
X165369047Y-42617380D01*
X165369047Y-42617380D02*
X165464285Y-42665000D01*
X165464285Y-42665000D02*
X165511904Y-42712619D01*
X165511904Y-42712619D02*
X165559523Y-42807857D01*
X165559523Y-42807857D02*
X165559523Y-42903095D01*
X165559523Y-42903095D02*
X165511904Y-43045952D01*
X165511904Y-43045952D02*
X164940476Y-43617380D01*
X164940476Y-43617380D02*
X165559523Y-43617380D01*
X163988095Y-96617380D02*
X163988095Y-97426904D01*
X163988095Y-97426904D02*
X164035714Y-97522142D01*
X164035714Y-97522142D02*
X164083333Y-97569761D01*
X164083333Y-97569761D02*
X164178571Y-97617380D01*
X164178571Y-97617380D02*
X164369047Y-97617380D01*
X164369047Y-97617380D02*
X164464285Y-97569761D01*
X164464285Y-97569761D02*
X164511904Y-97522142D01*
X164511904Y-97522142D02*
X164559523Y-97426904D01*
X164559523Y-97426904D02*
X164559523Y-96617380D01*
X164988095Y-96712619D02*
X165035714Y-96665000D01*
X165035714Y-96665000D02*
X165130952Y-96617380D01*
X165130952Y-96617380D02*
X165369047Y-96617380D01*
X165369047Y-96617380D02*
X165464285Y-96665000D01*
X165464285Y-96665000D02*
X165511904Y-96712619D01*
X165511904Y-96712619D02*
X165559523Y-96807857D01*
X165559523Y-96807857D02*
X165559523Y-96903095D01*
X165559523Y-96903095D02*
X165511904Y-97045952D01*
X165511904Y-97045952D02*
X164940476Y-97617380D01*
X164940476Y-97617380D02*
X165559523Y-97617380D01*
X121988095Y-42617380D02*
X121988095Y-43426904D01*
X121988095Y-43426904D02*
X122035714Y-43522142D01*
X122035714Y-43522142D02*
X122083333Y-43569761D01*
X122083333Y-43569761D02*
X122178571Y-43617380D01*
X122178571Y-43617380D02*
X122369047Y-43617380D01*
X122369047Y-43617380D02*
X122464285Y-43569761D01*
X122464285Y-43569761D02*
X122511904Y-43522142D01*
X122511904Y-43522142D02*
X122559523Y-43426904D01*
X122559523Y-43426904D02*
X122559523Y-42617380D01*
X122988095Y-42712619D02*
X123035714Y-42665000D01*
X123035714Y-42665000D02*
X123130952Y-42617380D01*
X123130952Y-42617380D02*
X123369047Y-42617380D01*
X123369047Y-42617380D02*
X123464285Y-42665000D01*
X123464285Y-42665000D02*
X123511904Y-42712619D01*
X123511904Y-42712619D02*
X123559523Y-42807857D01*
X123559523Y-42807857D02*
X123559523Y-42903095D01*
X123559523Y-42903095D02*
X123511904Y-43045952D01*
X123511904Y-43045952D02*
X122940476Y-43617380D01*
X122940476Y-43617380D02*
X123559523Y-43617380D01*
X121988095Y-96617380D02*
X121988095Y-97426904D01*
X121988095Y-97426904D02*
X122035714Y-97522142D01*
X122035714Y-97522142D02*
X122083333Y-97569761D01*
X122083333Y-97569761D02*
X122178571Y-97617380D01*
X122178571Y-97617380D02*
X122369047Y-97617380D01*
X122369047Y-97617380D02*
X122464285Y-97569761D01*
X122464285Y-97569761D02*
X122511904Y-97522142D01*
X122511904Y-97522142D02*
X122559523Y-97426904D01*
X122559523Y-97426904D02*
X122559523Y-96617380D01*
X122988095Y-96712619D02*
X123035714Y-96665000D01*
X123035714Y-96665000D02*
X123130952Y-96617380D01*
X123130952Y-96617380D02*
X123369047Y-96617380D01*
X123369047Y-96617380D02*
X123464285Y-96665000D01*
X123464285Y-96665000D02*
X123511904Y-96712619D01*
X123511904Y-96712619D02*
X123559523Y-96807857D01*
X123559523Y-96807857D02*
X123559523Y-96903095D01*
X123559523Y-96903095D02*
X123511904Y-97045952D01*
X123511904Y-97045952D02*
X122940476Y-97617380D01*
X122940476Y-97617380D02*
X123559523Y-97617380D01*
X163988095Y-82667380D02*
X163988095Y-83476904D01*
X163988095Y-83476904D02*
X164035714Y-83572142D01*
X164035714Y-83572142D02*
X164083333Y-83619761D01*
X164083333Y-83619761D02*
X164178571Y-83667380D01*
X164178571Y-83667380D02*
X164369047Y-83667380D01*
X164369047Y-83667380D02*
X164464285Y-83619761D01*
X164464285Y-83619761D02*
X164511904Y-83572142D01*
X164511904Y-83572142D02*
X164559523Y-83476904D01*
X164559523Y-83476904D02*
X164559523Y-82667380D01*
X165559523Y-83667380D02*
X164988095Y-83667380D01*
X165273809Y-83667380D02*
X165273809Y-82667380D01*
X165273809Y-82667380D02*
X165178571Y-82810238D01*
X165178571Y-82810238D02*
X165083333Y-82905476D01*
X165083333Y-82905476D02*
X164988095Y-82953095D01*
X121988095Y-28667380D02*
X121988095Y-29476904D01*
X121988095Y-29476904D02*
X122035714Y-29572142D01*
X122035714Y-29572142D02*
X122083333Y-29619761D01*
X122083333Y-29619761D02*
X122178571Y-29667380D01*
X122178571Y-29667380D02*
X122369047Y-29667380D01*
X122369047Y-29667380D02*
X122464285Y-29619761D01*
X122464285Y-29619761D02*
X122511904Y-29572142D01*
X122511904Y-29572142D02*
X122559523Y-29476904D01*
X122559523Y-29476904D02*
X122559523Y-28667380D01*
X123559523Y-29667380D02*
X122988095Y-29667380D01*
X123273809Y-29667380D02*
X123273809Y-28667380D01*
X123273809Y-28667380D02*
X123178571Y-28810238D01*
X123178571Y-28810238D02*
X123083333Y-28905476D01*
X123083333Y-28905476D02*
X122988095Y-28953095D01*
X121988095Y-82667380D02*
X121988095Y-83476904D01*
X121988095Y-83476904D02*
X122035714Y-83572142D01*
X122035714Y-83572142D02*
X122083333Y-83619761D01*
X122083333Y-83619761D02*
X122178571Y-83667380D01*
X122178571Y-83667380D02*
X122369047Y-83667380D01*
X122369047Y-83667380D02*
X122464285Y-83619761D01*
X122464285Y-83619761D02*
X122511904Y-83572142D01*
X122511904Y-83572142D02*
X122559523Y-83476904D01*
X122559523Y-83476904D02*
X122559523Y-82667380D01*
X123559523Y-83667380D02*
X122988095Y-83667380D01*
X123273809Y-83667380D02*
X123273809Y-82667380D01*
X123273809Y-82667380D02*
X123178571Y-82810238D01*
X123178571Y-82810238D02*
X123083333Y-82905476D01*
X123083333Y-82905476D02*
X122988095Y-82953095D01*
X163988095Y-28667380D02*
X163988095Y-29476904D01*
X163988095Y-29476904D02*
X164035714Y-29572142D01*
X164035714Y-29572142D02*
X164083333Y-29619761D01*
X164083333Y-29619761D02*
X164178571Y-29667380D01*
X164178571Y-29667380D02*
X164369047Y-29667380D01*
X164369047Y-29667380D02*
X164464285Y-29619761D01*
X164464285Y-29619761D02*
X164511904Y-29572142D01*
X164511904Y-29572142D02*
X164559523Y-29476904D01*
X164559523Y-29476904D02*
X164559523Y-28667380D01*
X165559523Y-29667380D02*
X164988095Y-29667380D01*
X165273809Y-29667380D02*
X165273809Y-28667380D01*
X165273809Y-28667380D02*
X165178571Y-28810238D01*
X165178571Y-28810238D02*
X165083333Y-28905476D01*
X165083333Y-28905476D02*
X164988095Y-28953095D01*
X175952142Y-62279166D02*
X175999761Y-62326785D01*
X175999761Y-62326785D02*
X176047380Y-62469642D01*
X176047380Y-62469642D02*
X176047380Y-62564880D01*
X176047380Y-62564880D02*
X175999761Y-62707737D01*
X175999761Y-62707737D02*
X175904523Y-62802975D01*
X175904523Y-62802975D02*
X175809285Y-62850594D01*
X175809285Y-62850594D02*
X175618809Y-62898213D01*
X175618809Y-62898213D02*
X175475952Y-62898213D01*
X175475952Y-62898213D02*
X175285476Y-62850594D01*
X175285476Y-62850594D02*
X175190238Y-62802975D01*
X175190238Y-62802975D02*
X175095000Y-62707737D01*
X175095000Y-62707737D02*
X175047380Y-62564880D01*
X175047380Y-62564880D02*
X175047380Y-62469642D01*
X175047380Y-62469642D02*
X175095000Y-62326785D01*
X175095000Y-62326785D02*
X175142619Y-62279166D01*
X175047380Y-61422023D02*
X175047380Y-61612499D01*
X175047380Y-61612499D02*
X175095000Y-61707737D01*
X175095000Y-61707737D02*
X175142619Y-61755356D01*
X175142619Y-61755356D02*
X175285476Y-61850594D01*
X175285476Y-61850594D02*
X175475952Y-61898213D01*
X175475952Y-61898213D02*
X175856904Y-61898213D01*
X175856904Y-61898213D02*
X175952142Y-61850594D01*
X175952142Y-61850594D02*
X175999761Y-61802975D01*
X175999761Y-61802975D02*
X176047380Y-61707737D01*
X176047380Y-61707737D02*
X176047380Y-61517261D01*
X176047380Y-61517261D02*
X175999761Y-61422023D01*
X175999761Y-61422023D02*
X175952142Y-61374404D01*
X175952142Y-61374404D02*
X175856904Y-61326785D01*
X175856904Y-61326785D02*
X175618809Y-61326785D01*
X175618809Y-61326785D02*
X175523571Y-61374404D01*
X175523571Y-61374404D02*
X175475952Y-61422023D01*
X175475952Y-61422023D02*
X175428333Y-61517261D01*
X175428333Y-61517261D02*
X175428333Y-61707737D01*
X175428333Y-61707737D02*
X175475952Y-61802975D01*
X175475952Y-61802975D02*
X175523571Y-61850594D01*
X175523571Y-61850594D02*
X175618809Y-61898213D01*
X175952142Y-116279166D02*
X175999761Y-116326785D01*
X175999761Y-116326785D02*
X176047380Y-116469642D01*
X176047380Y-116469642D02*
X176047380Y-116564880D01*
X176047380Y-116564880D02*
X175999761Y-116707737D01*
X175999761Y-116707737D02*
X175904523Y-116802975D01*
X175904523Y-116802975D02*
X175809285Y-116850594D01*
X175809285Y-116850594D02*
X175618809Y-116898213D01*
X175618809Y-116898213D02*
X175475952Y-116898213D01*
X175475952Y-116898213D02*
X175285476Y-116850594D01*
X175285476Y-116850594D02*
X175190238Y-116802975D01*
X175190238Y-116802975D02*
X175095000Y-116707737D01*
X175095000Y-116707737D02*
X175047380Y-116564880D01*
X175047380Y-116564880D02*
X175047380Y-116469642D01*
X175047380Y-116469642D02*
X175095000Y-116326785D01*
X175095000Y-116326785D02*
X175142619Y-116279166D01*
X175047380Y-115422023D02*
X175047380Y-115612499D01*
X175047380Y-115612499D02*
X175095000Y-115707737D01*
X175095000Y-115707737D02*
X175142619Y-115755356D01*
X175142619Y-115755356D02*
X175285476Y-115850594D01*
X175285476Y-115850594D02*
X175475952Y-115898213D01*
X175475952Y-115898213D02*
X175856904Y-115898213D01*
X175856904Y-115898213D02*
X175952142Y-115850594D01*
X175952142Y-115850594D02*
X175999761Y-115802975D01*
X175999761Y-115802975D02*
X176047380Y-115707737D01*
X176047380Y-115707737D02*
X176047380Y-115517261D01*
X176047380Y-115517261D02*
X175999761Y-115422023D01*
X175999761Y-115422023D02*
X175952142Y-115374404D01*
X175952142Y-115374404D02*
X175856904Y-115326785D01*
X175856904Y-115326785D02*
X175618809Y-115326785D01*
X175618809Y-115326785D02*
X175523571Y-115374404D01*
X175523571Y-115374404D02*
X175475952Y-115422023D01*
X175475952Y-115422023D02*
X175428333Y-115517261D01*
X175428333Y-115517261D02*
X175428333Y-115707737D01*
X175428333Y-115707737D02*
X175475952Y-115802975D01*
X175475952Y-115802975D02*
X175523571Y-115850594D01*
X175523571Y-115850594D02*
X175618809Y-115898213D01*
X133952142Y-62279166D02*
X133999761Y-62326785D01*
X133999761Y-62326785D02*
X134047380Y-62469642D01*
X134047380Y-62469642D02*
X134047380Y-62564880D01*
X134047380Y-62564880D02*
X133999761Y-62707737D01*
X133999761Y-62707737D02*
X133904523Y-62802975D01*
X133904523Y-62802975D02*
X133809285Y-62850594D01*
X133809285Y-62850594D02*
X133618809Y-62898213D01*
X133618809Y-62898213D02*
X133475952Y-62898213D01*
X133475952Y-62898213D02*
X133285476Y-62850594D01*
X133285476Y-62850594D02*
X133190238Y-62802975D01*
X133190238Y-62802975D02*
X133095000Y-62707737D01*
X133095000Y-62707737D02*
X133047380Y-62564880D01*
X133047380Y-62564880D02*
X133047380Y-62469642D01*
X133047380Y-62469642D02*
X133095000Y-62326785D01*
X133095000Y-62326785D02*
X133142619Y-62279166D01*
X133047380Y-61422023D02*
X133047380Y-61612499D01*
X133047380Y-61612499D02*
X133095000Y-61707737D01*
X133095000Y-61707737D02*
X133142619Y-61755356D01*
X133142619Y-61755356D02*
X133285476Y-61850594D01*
X133285476Y-61850594D02*
X133475952Y-61898213D01*
X133475952Y-61898213D02*
X133856904Y-61898213D01*
X133856904Y-61898213D02*
X133952142Y-61850594D01*
X133952142Y-61850594D02*
X133999761Y-61802975D01*
X133999761Y-61802975D02*
X134047380Y-61707737D01*
X134047380Y-61707737D02*
X134047380Y-61517261D01*
X134047380Y-61517261D02*
X133999761Y-61422023D01*
X133999761Y-61422023D02*
X133952142Y-61374404D01*
X133952142Y-61374404D02*
X133856904Y-61326785D01*
X133856904Y-61326785D02*
X133618809Y-61326785D01*
X133618809Y-61326785D02*
X133523571Y-61374404D01*
X133523571Y-61374404D02*
X133475952Y-61422023D01*
X133475952Y-61422023D02*
X133428333Y-61517261D01*
X133428333Y-61517261D02*
X133428333Y-61707737D01*
X133428333Y-61707737D02*
X133475952Y-61802975D01*
X133475952Y-61802975D02*
X133523571Y-61850594D01*
X133523571Y-61850594D02*
X133618809Y-61898213D01*
X133952142Y-116279166D02*
X133999761Y-116326785D01*
X133999761Y-116326785D02*
X134047380Y-116469642D01*
X134047380Y-116469642D02*
X134047380Y-116564880D01*
X134047380Y-116564880D02*
X133999761Y-116707737D01*
X133999761Y-116707737D02*
X133904523Y-116802975D01*
X133904523Y-116802975D02*
X133809285Y-116850594D01*
X133809285Y-116850594D02*
X133618809Y-116898213D01*
X133618809Y-116898213D02*
X133475952Y-116898213D01*
X133475952Y-116898213D02*
X133285476Y-116850594D01*
X133285476Y-116850594D02*
X133190238Y-116802975D01*
X133190238Y-116802975D02*
X133095000Y-116707737D01*
X133095000Y-116707737D02*
X133047380Y-116564880D01*
X133047380Y-116564880D02*
X133047380Y-116469642D01*
X133047380Y-116469642D02*
X133095000Y-116326785D01*
X133095000Y-116326785D02*
X133142619Y-116279166D01*
X133047380Y-115422023D02*
X133047380Y-115612499D01*
X133047380Y-115612499D02*
X133095000Y-115707737D01*
X133095000Y-115707737D02*
X133142619Y-115755356D01*
X133142619Y-115755356D02*
X133285476Y-115850594D01*
X133285476Y-115850594D02*
X133475952Y-115898213D01*
X133475952Y-115898213D02*
X133856904Y-115898213D01*
X133856904Y-115898213D02*
X133952142Y-115850594D01*
X133952142Y-115850594D02*
X133999761Y-115802975D01*
X133999761Y-115802975D02*
X134047380Y-115707737D01*
X134047380Y-115707737D02*
X134047380Y-115517261D01*
X134047380Y-115517261D02*
X133999761Y-115422023D01*
X133999761Y-115422023D02*
X133952142Y-115374404D01*
X133952142Y-115374404D02*
X133856904Y-115326785D01*
X133856904Y-115326785D02*
X133618809Y-115326785D01*
X133618809Y-115326785D02*
X133523571Y-115374404D01*
X133523571Y-115374404D02*
X133475952Y-115422023D01*
X133475952Y-115422023D02*
X133428333Y-115517261D01*
X133428333Y-115517261D02*
X133428333Y-115707737D01*
X133428333Y-115707737D02*
X133475952Y-115802975D01*
X133475952Y-115802975D02*
X133523571Y-115850594D01*
X133523571Y-115850594D02*
X133618809Y-115898213D01*
X177287380Y-22833333D02*
X178001666Y-22833333D01*
X178001666Y-22833333D02*
X178144523Y-22880952D01*
X178144523Y-22880952D02*
X178239761Y-22976190D01*
X178239761Y-22976190D02*
X178287380Y-23119047D01*
X178287380Y-23119047D02*
X178287380Y-23214285D01*
X178287380Y-21833333D02*
X178287380Y-22404761D01*
X178287380Y-22119047D02*
X177287380Y-22119047D01*
X177287380Y-22119047D02*
X177430238Y-22214285D01*
X177430238Y-22214285D02*
X177525476Y-22309523D01*
X177525476Y-22309523D02*
X177573095Y-22404761D01*
X177287380Y-76833333D02*
X178001666Y-76833333D01*
X178001666Y-76833333D02*
X178144523Y-76880952D01*
X178144523Y-76880952D02*
X178239761Y-76976190D01*
X178239761Y-76976190D02*
X178287380Y-77119047D01*
X178287380Y-77119047D02*
X178287380Y-77214285D01*
X178287380Y-75833333D02*
X178287380Y-76404761D01*
X178287380Y-76119047D02*
X177287380Y-76119047D01*
X177287380Y-76119047D02*
X177430238Y-76214285D01*
X177430238Y-76214285D02*
X177525476Y-76309523D01*
X177525476Y-76309523D02*
X177573095Y-76404761D01*
X135287380Y-22833333D02*
X136001666Y-22833333D01*
X136001666Y-22833333D02*
X136144523Y-22880952D01*
X136144523Y-22880952D02*
X136239761Y-22976190D01*
X136239761Y-22976190D02*
X136287380Y-23119047D01*
X136287380Y-23119047D02*
X136287380Y-23214285D01*
X136287380Y-21833333D02*
X136287380Y-22404761D01*
X136287380Y-22119047D02*
X135287380Y-22119047D01*
X135287380Y-22119047D02*
X135430238Y-22214285D01*
X135430238Y-22214285D02*
X135525476Y-22309523D01*
X135525476Y-22309523D02*
X135573095Y-22404761D01*
X135287380Y-76833333D02*
X136001666Y-76833333D01*
X136001666Y-76833333D02*
X136144523Y-76880952D01*
X136144523Y-76880952D02*
X136239761Y-76976190D01*
X136239761Y-76976190D02*
X136287380Y-77119047D01*
X136287380Y-77119047D02*
X136287380Y-77214285D01*
X136287380Y-75833333D02*
X136287380Y-76404761D01*
X136287380Y-76119047D02*
X135287380Y-76119047D01*
X135287380Y-76119047D02*
X135430238Y-76214285D01*
X135430238Y-76214285D02*
X135525476Y-76309523D01*
X135525476Y-76309523D02*
X135573095Y-76404761D01*
X168342142Y-34866666D02*
X168389761Y-34914285D01*
X168389761Y-34914285D02*
X168437380Y-35057142D01*
X168437380Y-35057142D02*
X168437380Y-35152380D01*
X168437380Y-35152380D02*
X168389761Y-35295237D01*
X168389761Y-35295237D02*
X168294523Y-35390475D01*
X168294523Y-35390475D02*
X168199285Y-35438094D01*
X168199285Y-35438094D02*
X168008809Y-35485713D01*
X168008809Y-35485713D02*
X167865952Y-35485713D01*
X167865952Y-35485713D02*
X167675476Y-35438094D01*
X167675476Y-35438094D02*
X167580238Y-35390475D01*
X167580238Y-35390475D02*
X167485000Y-35295237D01*
X167485000Y-35295237D02*
X167437380Y-35152380D01*
X167437380Y-35152380D02*
X167437380Y-35057142D01*
X167437380Y-35057142D02*
X167485000Y-34914285D01*
X167485000Y-34914285D02*
X167532619Y-34866666D01*
X168437380Y-33914285D02*
X168437380Y-34485713D01*
X168437380Y-34199999D02*
X167437380Y-34199999D01*
X167437380Y-34199999D02*
X167580238Y-34295237D01*
X167580238Y-34295237D02*
X167675476Y-34390475D01*
X167675476Y-34390475D02*
X167723095Y-34485713D01*
X168342142Y-88866666D02*
X168389761Y-88914285D01*
X168389761Y-88914285D02*
X168437380Y-89057142D01*
X168437380Y-89057142D02*
X168437380Y-89152380D01*
X168437380Y-89152380D02*
X168389761Y-89295237D01*
X168389761Y-89295237D02*
X168294523Y-89390475D01*
X168294523Y-89390475D02*
X168199285Y-89438094D01*
X168199285Y-89438094D02*
X168008809Y-89485713D01*
X168008809Y-89485713D02*
X167865952Y-89485713D01*
X167865952Y-89485713D02*
X167675476Y-89438094D01*
X167675476Y-89438094D02*
X167580238Y-89390475D01*
X167580238Y-89390475D02*
X167485000Y-89295237D01*
X167485000Y-89295237D02*
X167437380Y-89152380D01*
X167437380Y-89152380D02*
X167437380Y-89057142D01*
X167437380Y-89057142D02*
X167485000Y-88914285D01*
X167485000Y-88914285D02*
X167532619Y-88866666D01*
X168437380Y-87914285D02*
X168437380Y-88485713D01*
X168437380Y-88199999D02*
X167437380Y-88199999D01*
X167437380Y-88199999D02*
X167580238Y-88295237D01*
X167580238Y-88295237D02*
X167675476Y-88390475D01*
X167675476Y-88390475D02*
X167723095Y-88485713D01*
X126342142Y-34866666D02*
X126389761Y-34914285D01*
X126389761Y-34914285D02*
X126437380Y-35057142D01*
X126437380Y-35057142D02*
X126437380Y-35152380D01*
X126437380Y-35152380D02*
X126389761Y-35295237D01*
X126389761Y-35295237D02*
X126294523Y-35390475D01*
X126294523Y-35390475D02*
X126199285Y-35438094D01*
X126199285Y-35438094D02*
X126008809Y-35485713D01*
X126008809Y-35485713D02*
X125865952Y-35485713D01*
X125865952Y-35485713D02*
X125675476Y-35438094D01*
X125675476Y-35438094D02*
X125580238Y-35390475D01*
X125580238Y-35390475D02*
X125485000Y-35295237D01*
X125485000Y-35295237D02*
X125437380Y-35152380D01*
X125437380Y-35152380D02*
X125437380Y-35057142D01*
X125437380Y-35057142D02*
X125485000Y-34914285D01*
X125485000Y-34914285D02*
X125532619Y-34866666D01*
X126437380Y-33914285D02*
X126437380Y-34485713D01*
X126437380Y-34199999D02*
X125437380Y-34199999D01*
X125437380Y-34199999D02*
X125580238Y-34295237D01*
X125580238Y-34295237D02*
X125675476Y-34390475D01*
X125675476Y-34390475D02*
X125723095Y-34485713D01*
X126342142Y-88866666D02*
X126389761Y-88914285D01*
X126389761Y-88914285D02*
X126437380Y-89057142D01*
X126437380Y-89057142D02*
X126437380Y-89152380D01*
X126437380Y-89152380D02*
X126389761Y-89295237D01*
X126389761Y-89295237D02*
X126294523Y-89390475D01*
X126294523Y-89390475D02*
X126199285Y-89438094D01*
X126199285Y-89438094D02*
X126008809Y-89485713D01*
X126008809Y-89485713D02*
X125865952Y-89485713D01*
X125865952Y-89485713D02*
X125675476Y-89438094D01*
X125675476Y-89438094D02*
X125580238Y-89390475D01*
X125580238Y-89390475D02*
X125485000Y-89295237D01*
X125485000Y-89295237D02*
X125437380Y-89152380D01*
X125437380Y-89152380D02*
X125437380Y-89057142D01*
X125437380Y-89057142D02*
X125485000Y-88914285D01*
X125485000Y-88914285D02*
X125532619Y-88866666D01*
X126437380Y-87914285D02*
X126437380Y-88485713D01*
X126437380Y-88199999D02*
X125437380Y-88199999D01*
X125437380Y-88199999D02*
X125580238Y-88295237D01*
X125580238Y-88295237D02*
X125675476Y-88390475D01*
X125675476Y-88390475D02*
X125723095Y-88485713D01*
X164738095Y-55592380D02*
X164738095Y-56401904D01*
X164738095Y-56401904D02*
X164785714Y-56497142D01*
X164785714Y-56497142D02*
X164833333Y-56544761D01*
X164833333Y-56544761D02*
X164928571Y-56592380D01*
X164928571Y-56592380D02*
X165119047Y-56592380D01*
X165119047Y-56592380D02*
X165214285Y-56544761D01*
X165214285Y-56544761D02*
X165261904Y-56497142D01*
X165261904Y-56497142D02*
X165309523Y-56401904D01*
X165309523Y-56401904D02*
X165309523Y-55592380D01*
X165690476Y-55592380D02*
X166309523Y-55592380D01*
X166309523Y-55592380D02*
X165976190Y-55973333D01*
X165976190Y-55973333D02*
X166119047Y-55973333D01*
X166119047Y-55973333D02*
X166214285Y-56020952D01*
X166214285Y-56020952D02*
X166261904Y-56068571D01*
X166261904Y-56068571D02*
X166309523Y-56163809D01*
X166309523Y-56163809D02*
X166309523Y-56401904D01*
X166309523Y-56401904D02*
X166261904Y-56497142D01*
X166261904Y-56497142D02*
X166214285Y-56544761D01*
X166214285Y-56544761D02*
X166119047Y-56592380D01*
X166119047Y-56592380D02*
X165833333Y-56592380D01*
X165833333Y-56592380D02*
X165738095Y-56544761D01*
X165738095Y-56544761D02*
X165690476Y-56497142D01*
X164738095Y-109592380D02*
X164738095Y-110401904D01*
X164738095Y-110401904D02*
X164785714Y-110497142D01*
X164785714Y-110497142D02*
X164833333Y-110544761D01*
X164833333Y-110544761D02*
X164928571Y-110592380D01*
X164928571Y-110592380D02*
X165119047Y-110592380D01*
X165119047Y-110592380D02*
X165214285Y-110544761D01*
X165214285Y-110544761D02*
X165261904Y-110497142D01*
X165261904Y-110497142D02*
X165309523Y-110401904D01*
X165309523Y-110401904D02*
X165309523Y-109592380D01*
X165690476Y-109592380D02*
X166309523Y-109592380D01*
X166309523Y-109592380D02*
X165976190Y-109973333D01*
X165976190Y-109973333D02*
X166119047Y-109973333D01*
X166119047Y-109973333D02*
X166214285Y-110020952D01*
X166214285Y-110020952D02*
X166261904Y-110068571D01*
X166261904Y-110068571D02*
X166309523Y-110163809D01*
X166309523Y-110163809D02*
X166309523Y-110401904D01*
X166309523Y-110401904D02*
X166261904Y-110497142D01*
X166261904Y-110497142D02*
X166214285Y-110544761D01*
X166214285Y-110544761D02*
X166119047Y-110592380D01*
X166119047Y-110592380D02*
X165833333Y-110592380D01*
X165833333Y-110592380D02*
X165738095Y-110544761D01*
X165738095Y-110544761D02*
X165690476Y-110497142D01*
X122738095Y-55592380D02*
X122738095Y-56401904D01*
X122738095Y-56401904D02*
X122785714Y-56497142D01*
X122785714Y-56497142D02*
X122833333Y-56544761D01*
X122833333Y-56544761D02*
X122928571Y-56592380D01*
X122928571Y-56592380D02*
X123119047Y-56592380D01*
X123119047Y-56592380D02*
X123214285Y-56544761D01*
X123214285Y-56544761D02*
X123261904Y-56497142D01*
X123261904Y-56497142D02*
X123309523Y-56401904D01*
X123309523Y-56401904D02*
X123309523Y-55592380D01*
X123690476Y-55592380D02*
X124309523Y-55592380D01*
X124309523Y-55592380D02*
X123976190Y-55973333D01*
X123976190Y-55973333D02*
X124119047Y-55973333D01*
X124119047Y-55973333D02*
X124214285Y-56020952D01*
X124214285Y-56020952D02*
X124261904Y-56068571D01*
X124261904Y-56068571D02*
X124309523Y-56163809D01*
X124309523Y-56163809D02*
X124309523Y-56401904D01*
X124309523Y-56401904D02*
X124261904Y-56497142D01*
X124261904Y-56497142D02*
X124214285Y-56544761D01*
X124214285Y-56544761D02*
X124119047Y-56592380D01*
X124119047Y-56592380D02*
X123833333Y-56592380D01*
X123833333Y-56592380D02*
X123738095Y-56544761D01*
X123738095Y-56544761D02*
X123690476Y-56497142D01*
X122738095Y-109592380D02*
X122738095Y-110401904D01*
X122738095Y-110401904D02*
X122785714Y-110497142D01*
X122785714Y-110497142D02*
X122833333Y-110544761D01*
X122833333Y-110544761D02*
X122928571Y-110592380D01*
X122928571Y-110592380D02*
X123119047Y-110592380D01*
X123119047Y-110592380D02*
X123214285Y-110544761D01*
X123214285Y-110544761D02*
X123261904Y-110497142D01*
X123261904Y-110497142D02*
X123309523Y-110401904D01*
X123309523Y-110401904D02*
X123309523Y-109592380D01*
X123690476Y-109592380D02*
X124309523Y-109592380D01*
X124309523Y-109592380D02*
X123976190Y-109973333D01*
X123976190Y-109973333D02*
X124119047Y-109973333D01*
X124119047Y-109973333D02*
X124214285Y-110020952D01*
X124214285Y-110020952D02*
X124261904Y-110068571D01*
X124261904Y-110068571D02*
X124309523Y-110163809D01*
X124309523Y-110163809D02*
X124309523Y-110401904D01*
X124309523Y-110401904D02*
X124261904Y-110497142D01*
X124261904Y-110497142D02*
X124214285Y-110544761D01*
X124214285Y-110544761D02*
X124119047Y-110592380D01*
X124119047Y-110592380D02*
X123833333Y-110592380D01*
X123833333Y-110592380D02*
X123738095Y-110544761D01*
X123738095Y-110544761D02*
X123690476Y-110497142D01*
X171522142Y-38916666D02*
X171569761Y-38964285D01*
X171569761Y-38964285D02*
X171617380Y-39107142D01*
X171617380Y-39107142D02*
X171617380Y-39202380D01*
X171617380Y-39202380D02*
X171569761Y-39345237D01*
X171569761Y-39345237D02*
X171474523Y-39440475D01*
X171474523Y-39440475D02*
X171379285Y-39488094D01*
X171379285Y-39488094D02*
X171188809Y-39535713D01*
X171188809Y-39535713D02*
X171045952Y-39535713D01*
X171045952Y-39535713D02*
X170855476Y-39488094D01*
X170855476Y-39488094D02*
X170760238Y-39440475D01*
X170760238Y-39440475D02*
X170665000Y-39345237D01*
X170665000Y-39345237D02*
X170617380Y-39202380D01*
X170617380Y-39202380D02*
X170617380Y-39107142D01*
X170617380Y-39107142D02*
X170665000Y-38964285D01*
X170665000Y-38964285D02*
X170712619Y-38916666D01*
X171045952Y-38345237D02*
X170998333Y-38440475D01*
X170998333Y-38440475D02*
X170950714Y-38488094D01*
X170950714Y-38488094D02*
X170855476Y-38535713D01*
X170855476Y-38535713D02*
X170807857Y-38535713D01*
X170807857Y-38535713D02*
X170712619Y-38488094D01*
X170712619Y-38488094D02*
X170665000Y-38440475D01*
X170665000Y-38440475D02*
X170617380Y-38345237D01*
X170617380Y-38345237D02*
X170617380Y-38154761D01*
X170617380Y-38154761D02*
X170665000Y-38059523D01*
X170665000Y-38059523D02*
X170712619Y-38011904D01*
X170712619Y-38011904D02*
X170807857Y-37964285D01*
X170807857Y-37964285D02*
X170855476Y-37964285D01*
X170855476Y-37964285D02*
X170950714Y-38011904D01*
X170950714Y-38011904D02*
X170998333Y-38059523D01*
X170998333Y-38059523D02*
X171045952Y-38154761D01*
X171045952Y-38154761D02*
X171045952Y-38345237D01*
X171045952Y-38345237D02*
X171093571Y-38440475D01*
X171093571Y-38440475D02*
X171141190Y-38488094D01*
X171141190Y-38488094D02*
X171236428Y-38535713D01*
X171236428Y-38535713D02*
X171426904Y-38535713D01*
X171426904Y-38535713D02*
X171522142Y-38488094D01*
X171522142Y-38488094D02*
X171569761Y-38440475D01*
X171569761Y-38440475D02*
X171617380Y-38345237D01*
X171617380Y-38345237D02*
X171617380Y-38154761D01*
X171617380Y-38154761D02*
X171569761Y-38059523D01*
X171569761Y-38059523D02*
X171522142Y-38011904D01*
X171522142Y-38011904D02*
X171426904Y-37964285D01*
X171426904Y-37964285D02*
X171236428Y-37964285D01*
X171236428Y-37964285D02*
X171141190Y-38011904D01*
X171141190Y-38011904D02*
X171093571Y-38059523D01*
X171093571Y-38059523D02*
X171045952Y-38154761D01*
X171522142Y-92916666D02*
X171569761Y-92964285D01*
X171569761Y-92964285D02*
X171617380Y-93107142D01*
X171617380Y-93107142D02*
X171617380Y-93202380D01*
X171617380Y-93202380D02*
X171569761Y-93345237D01*
X171569761Y-93345237D02*
X171474523Y-93440475D01*
X171474523Y-93440475D02*
X171379285Y-93488094D01*
X171379285Y-93488094D02*
X171188809Y-93535713D01*
X171188809Y-93535713D02*
X171045952Y-93535713D01*
X171045952Y-93535713D02*
X170855476Y-93488094D01*
X170855476Y-93488094D02*
X170760238Y-93440475D01*
X170760238Y-93440475D02*
X170665000Y-93345237D01*
X170665000Y-93345237D02*
X170617380Y-93202380D01*
X170617380Y-93202380D02*
X170617380Y-93107142D01*
X170617380Y-93107142D02*
X170665000Y-92964285D01*
X170665000Y-92964285D02*
X170712619Y-92916666D01*
X171045952Y-92345237D02*
X170998333Y-92440475D01*
X170998333Y-92440475D02*
X170950714Y-92488094D01*
X170950714Y-92488094D02*
X170855476Y-92535713D01*
X170855476Y-92535713D02*
X170807857Y-92535713D01*
X170807857Y-92535713D02*
X170712619Y-92488094D01*
X170712619Y-92488094D02*
X170665000Y-92440475D01*
X170665000Y-92440475D02*
X170617380Y-92345237D01*
X170617380Y-92345237D02*
X170617380Y-92154761D01*
X170617380Y-92154761D02*
X170665000Y-92059523D01*
X170665000Y-92059523D02*
X170712619Y-92011904D01*
X170712619Y-92011904D02*
X170807857Y-91964285D01*
X170807857Y-91964285D02*
X170855476Y-91964285D01*
X170855476Y-91964285D02*
X170950714Y-92011904D01*
X170950714Y-92011904D02*
X170998333Y-92059523D01*
X170998333Y-92059523D02*
X171045952Y-92154761D01*
X171045952Y-92154761D02*
X171045952Y-92345237D01*
X171045952Y-92345237D02*
X171093571Y-92440475D01*
X171093571Y-92440475D02*
X171141190Y-92488094D01*
X171141190Y-92488094D02*
X171236428Y-92535713D01*
X171236428Y-92535713D02*
X171426904Y-92535713D01*
X171426904Y-92535713D02*
X171522142Y-92488094D01*
X171522142Y-92488094D02*
X171569761Y-92440475D01*
X171569761Y-92440475D02*
X171617380Y-92345237D01*
X171617380Y-92345237D02*
X171617380Y-92154761D01*
X171617380Y-92154761D02*
X171569761Y-92059523D01*
X171569761Y-92059523D02*
X171522142Y-92011904D01*
X171522142Y-92011904D02*
X171426904Y-91964285D01*
X171426904Y-91964285D02*
X171236428Y-91964285D01*
X171236428Y-91964285D02*
X171141190Y-92011904D01*
X171141190Y-92011904D02*
X171093571Y-92059523D01*
X171093571Y-92059523D02*
X171045952Y-92154761D01*
X129522142Y-38916666D02*
X129569761Y-38964285D01*
X129569761Y-38964285D02*
X129617380Y-39107142D01*
X129617380Y-39107142D02*
X129617380Y-39202380D01*
X129617380Y-39202380D02*
X129569761Y-39345237D01*
X129569761Y-39345237D02*
X129474523Y-39440475D01*
X129474523Y-39440475D02*
X129379285Y-39488094D01*
X129379285Y-39488094D02*
X129188809Y-39535713D01*
X129188809Y-39535713D02*
X129045952Y-39535713D01*
X129045952Y-39535713D02*
X128855476Y-39488094D01*
X128855476Y-39488094D02*
X128760238Y-39440475D01*
X128760238Y-39440475D02*
X128665000Y-39345237D01*
X128665000Y-39345237D02*
X128617380Y-39202380D01*
X128617380Y-39202380D02*
X128617380Y-39107142D01*
X128617380Y-39107142D02*
X128665000Y-38964285D01*
X128665000Y-38964285D02*
X128712619Y-38916666D01*
X129045952Y-38345237D02*
X128998333Y-38440475D01*
X128998333Y-38440475D02*
X128950714Y-38488094D01*
X128950714Y-38488094D02*
X128855476Y-38535713D01*
X128855476Y-38535713D02*
X128807857Y-38535713D01*
X128807857Y-38535713D02*
X128712619Y-38488094D01*
X128712619Y-38488094D02*
X128665000Y-38440475D01*
X128665000Y-38440475D02*
X128617380Y-38345237D01*
X128617380Y-38345237D02*
X128617380Y-38154761D01*
X128617380Y-38154761D02*
X128665000Y-38059523D01*
X128665000Y-38059523D02*
X128712619Y-38011904D01*
X128712619Y-38011904D02*
X128807857Y-37964285D01*
X128807857Y-37964285D02*
X128855476Y-37964285D01*
X128855476Y-37964285D02*
X128950714Y-38011904D01*
X128950714Y-38011904D02*
X128998333Y-38059523D01*
X128998333Y-38059523D02*
X129045952Y-38154761D01*
X129045952Y-38154761D02*
X129045952Y-38345237D01*
X129045952Y-38345237D02*
X129093571Y-38440475D01*
X129093571Y-38440475D02*
X129141190Y-38488094D01*
X129141190Y-38488094D02*
X129236428Y-38535713D01*
X129236428Y-38535713D02*
X129426904Y-38535713D01*
X129426904Y-38535713D02*
X129522142Y-38488094D01*
X129522142Y-38488094D02*
X129569761Y-38440475D01*
X129569761Y-38440475D02*
X129617380Y-38345237D01*
X129617380Y-38345237D02*
X129617380Y-38154761D01*
X129617380Y-38154761D02*
X129569761Y-38059523D01*
X129569761Y-38059523D02*
X129522142Y-38011904D01*
X129522142Y-38011904D02*
X129426904Y-37964285D01*
X129426904Y-37964285D02*
X129236428Y-37964285D01*
X129236428Y-37964285D02*
X129141190Y-38011904D01*
X129141190Y-38011904D02*
X129093571Y-38059523D01*
X129093571Y-38059523D02*
X129045952Y-38154761D01*
X129522142Y-92916666D02*
X129569761Y-92964285D01*
X129569761Y-92964285D02*
X129617380Y-93107142D01*
X129617380Y-93107142D02*
X129617380Y-93202380D01*
X129617380Y-93202380D02*
X129569761Y-93345237D01*
X129569761Y-93345237D02*
X129474523Y-93440475D01*
X129474523Y-93440475D02*
X129379285Y-93488094D01*
X129379285Y-93488094D02*
X129188809Y-93535713D01*
X129188809Y-93535713D02*
X129045952Y-93535713D01*
X129045952Y-93535713D02*
X128855476Y-93488094D01*
X128855476Y-93488094D02*
X128760238Y-93440475D01*
X128760238Y-93440475D02*
X128665000Y-93345237D01*
X128665000Y-93345237D02*
X128617380Y-93202380D01*
X128617380Y-93202380D02*
X128617380Y-93107142D01*
X128617380Y-93107142D02*
X128665000Y-92964285D01*
X128665000Y-92964285D02*
X128712619Y-92916666D01*
X129045952Y-92345237D02*
X128998333Y-92440475D01*
X128998333Y-92440475D02*
X128950714Y-92488094D01*
X128950714Y-92488094D02*
X128855476Y-92535713D01*
X128855476Y-92535713D02*
X128807857Y-92535713D01*
X128807857Y-92535713D02*
X128712619Y-92488094D01*
X128712619Y-92488094D02*
X128665000Y-92440475D01*
X128665000Y-92440475D02*
X128617380Y-92345237D01*
X128617380Y-92345237D02*
X128617380Y-92154761D01*
X128617380Y-92154761D02*
X128665000Y-92059523D01*
X128665000Y-92059523D02*
X128712619Y-92011904D01*
X128712619Y-92011904D02*
X128807857Y-91964285D01*
X128807857Y-91964285D02*
X128855476Y-91964285D01*
X128855476Y-91964285D02*
X128950714Y-92011904D01*
X128950714Y-92011904D02*
X128998333Y-92059523D01*
X128998333Y-92059523D02*
X129045952Y-92154761D01*
X129045952Y-92154761D02*
X129045952Y-92345237D01*
X129045952Y-92345237D02*
X129093571Y-92440475D01*
X129093571Y-92440475D02*
X129141190Y-92488094D01*
X129141190Y-92488094D02*
X129236428Y-92535713D01*
X129236428Y-92535713D02*
X129426904Y-92535713D01*
X129426904Y-92535713D02*
X129522142Y-92488094D01*
X129522142Y-92488094D02*
X129569761Y-92440475D01*
X129569761Y-92440475D02*
X129617380Y-92345237D01*
X129617380Y-92345237D02*
X129617380Y-92154761D01*
X129617380Y-92154761D02*
X129569761Y-92059523D01*
X129569761Y-92059523D02*
X129522142Y-92011904D01*
X129522142Y-92011904D02*
X129426904Y-91964285D01*
X129426904Y-91964285D02*
X129236428Y-91964285D01*
X129236428Y-91964285D02*
X129141190Y-92011904D01*
X129141190Y-92011904D02*
X129093571Y-92059523D01*
X129093571Y-92059523D02*
X129045952Y-92154761D01*
X157592142Y-59766666D02*
X157639761Y-59814285D01*
X157639761Y-59814285D02*
X157687380Y-59957142D01*
X157687380Y-59957142D02*
X157687380Y-60052380D01*
X157687380Y-60052380D02*
X157639761Y-60195237D01*
X157639761Y-60195237D02*
X157544523Y-60290475D01*
X157544523Y-60290475D02*
X157449285Y-60338094D01*
X157449285Y-60338094D02*
X157258809Y-60385713D01*
X157258809Y-60385713D02*
X157115952Y-60385713D01*
X157115952Y-60385713D02*
X156925476Y-60338094D01*
X156925476Y-60338094D02*
X156830238Y-60290475D01*
X156830238Y-60290475D02*
X156735000Y-60195237D01*
X156735000Y-60195237D02*
X156687380Y-60052380D01*
X156687380Y-60052380D02*
X156687380Y-59957142D01*
X156687380Y-59957142D02*
X156735000Y-59814285D01*
X156735000Y-59814285D02*
X156782619Y-59766666D01*
X157020714Y-58909523D02*
X157687380Y-58909523D01*
X156639761Y-59147618D02*
X157354047Y-59385713D01*
X157354047Y-59385713D02*
X157354047Y-58766666D01*
X157592142Y-113766666D02*
X157639761Y-113814285D01*
X157639761Y-113814285D02*
X157687380Y-113957142D01*
X157687380Y-113957142D02*
X157687380Y-114052380D01*
X157687380Y-114052380D02*
X157639761Y-114195237D01*
X157639761Y-114195237D02*
X157544523Y-114290475D01*
X157544523Y-114290475D02*
X157449285Y-114338094D01*
X157449285Y-114338094D02*
X157258809Y-114385713D01*
X157258809Y-114385713D02*
X157115952Y-114385713D01*
X157115952Y-114385713D02*
X156925476Y-114338094D01*
X156925476Y-114338094D02*
X156830238Y-114290475D01*
X156830238Y-114290475D02*
X156735000Y-114195237D01*
X156735000Y-114195237D02*
X156687380Y-114052380D01*
X156687380Y-114052380D02*
X156687380Y-113957142D01*
X156687380Y-113957142D02*
X156735000Y-113814285D01*
X156735000Y-113814285D02*
X156782619Y-113766666D01*
X157020714Y-112909523D02*
X157687380Y-112909523D01*
X156639761Y-113147618D02*
X157354047Y-113385713D01*
X157354047Y-113385713D02*
X157354047Y-112766666D01*
X115592142Y-59766666D02*
X115639761Y-59814285D01*
X115639761Y-59814285D02*
X115687380Y-59957142D01*
X115687380Y-59957142D02*
X115687380Y-60052380D01*
X115687380Y-60052380D02*
X115639761Y-60195237D01*
X115639761Y-60195237D02*
X115544523Y-60290475D01*
X115544523Y-60290475D02*
X115449285Y-60338094D01*
X115449285Y-60338094D02*
X115258809Y-60385713D01*
X115258809Y-60385713D02*
X115115952Y-60385713D01*
X115115952Y-60385713D02*
X114925476Y-60338094D01*
X114925476Y-60338094D02*
X114830238Y-60290475D01*
X114830238Y-60290475D02*
X114735000Y-60195237D01*
X114735000Y-60195237D02*
X114687380Y-60052380D01*
X114687380Y-60052380D02*
X114687380Y-59957142D01*
X114687380Y-59957142D02*
X114735000Y-59814285D01*
X114735000Y-59814285D02*
X114782619Y-59766666D01*
X115020714Y-58909523D02*
X115687380Y-58909523D01*
X114639761Y-59147618D02*
X115354047Y-59385713D01*
X115354047Y-59385713D02*
X115354047Y-58766666D01*
X115592142Y-113766666D02*
X115639761Y-113814285D01*
X115639761Y-113814285D02*
X115687380Y-113957142D01*
X115687380Y-113957142D02*
X115687380Y-114052380D01*
X115687380Y-114052380D02*
X115639761Y-114195237D01*
X115639761Y-114195237D02*
X115544523Y-114290475D01*
X115544523Y-114290475D02*
X115449285Y-114338094D01*
X115449285Y-114338094D02*
X115258809Y-114385713D01*
X115258809Y-114385713D02*
X115115952Y-114385713D01*
X115115952Y-114385713D02*
X114925476Y-114338094D01*
X114925476Y-114338094D02*
X114830238Y-114290475D01*
X114830238Y-114290475D02*
X114735000Y-114195237D01*
X114735000Y-114195237D02*
X114687380Y-114052380D01*
X114687380Y-114052380D02*
X114687380Y-113957142D01*
X114687380Y-113957142D02*
X114735000Y-113814285D01*
X114735000Y-113814285D02*
X114782619Y-113766666D01*
X115020714Y-112909523D02*
X115687380Y-112909523D01*
X114639761Y-113147618D02*
X115354047Y-113385713D01*
X115354047Y-113385713D02*
X115354047Y-112766666D01*
X152952142Y-57469166D02*
X152999761Y-57516785D01*
X152999761Y-57516785D02*
X153047380Y-57659642D01*
X153047380Y-57659642D02*
X153047380Y-57754880D01*
X153047380Y-57754880D02*
X152999761Y-57897737D01*
X152999761Y-57897737D02*
X152904523Y-57992975D01*
X152904523Y-57992975D02*
X152809285Y-58040594D01*
X152809285Y-58040594D02*
X152618809Y-58088213D01*
X152618809Y-58088213D02*
X152475952Y-58088213D01*
X152475952Y-58088213D02*
X152285476Y-58040594D01*
X152285476Y-58040594D02*
X152190238Y-57992975D01*
X152190238Y-57992975D02*
X152095000Y-57897737D01*
X152095000Y-57897737D02*
X152047380Y-57754880D01*
X152047380Y-57754880D02*
X152047380Y-57659642D01*
X152047380Y-57659642D02*
X152095000Y-57516785D01*
X152095000Y-57516785D02*
X152142619Y-57469166D01*
X152047380Y-57135832D02*
X152047380Y-56516785D01*
X152047380Y-56516785D02*
X152428333Y-56850118D01*
X152428333Y-56850118D02*
X152428333Y-56707261D01*
X152428333Y-56707261D02*
X152475952Y-56612023D01*
X152475952Y-56612023D02*
X152523571Y-56564404D01*
X152523571Y-56564404D02*
X152618809Y-56516785D01*
X152618809Y-56516785D02*
X152856904Y-56516785D01*
X152856904Y-56516785D02*
X152952142Y-56564404D01*
X152952142Y-56564404D02*
X152999761Y-56612023D01*
X152999761Y-56612023D02*
X153047380Y-56707261D01*
X153047380Y-56707261D02*
X153047380Y-56992975D01*
X153047380Y-56992975D02*
X152999761Y-57088213D01*
X152999761Y-57088213D02*
X152952142Y-57135832D01*
X152952142Y-111469166D02*
X152999761Y-111516785D01*
X152999761Y-111516785D02*
X153047380Y-111659642D01*
X153047380Y-111659642D02*
X153047380Y-111754880D01*
X153047380Y-111754880D02*
X152999761Y-111897737D01*
X152999761Y-111897737D02*
X152904523Y-111992975D01*
X152904523Y-111992975D02*
X152809285Y-112040594D01*
X152809285Y-112040594D02*
X152618809Y-112088213D01*
X152618809Y-112088213D02*
X152475952Y-112088213D01*
X152475952Y-112088213D02*
X152285476Y-112040594D01*
X152285476Y-112040594D02*
X152190238Y-111992975D01*
X152190238Y-111992975D02*
X152095000Y-111897737D01*
X152095000Y-111897737D02*
X152047380Y-111754880D01*
X152047380Y-111754880D02*
X152047380Y-111659642D01*
X152047380Y-111659642D02*
X152095000Y-111516785D01*
X152095000Y-111516785D02*
X152142619Y-111469166D01*
X152047380Y-111135832D02*
X152047380Y-110516785D01*
X152047380Y-110516785D02*
X152428333Y-110850118D01*
X152428333Y-110850118D02*
X152428333Y-110707261D01*
X152428333Y-110707261D02*
X152475952Y-110612023D01*
X152475952Y-110612023D02*
X152523571Y-110564404D01*
X152523571Y-110564404D02*
X152618809Y-110516785D01*
X152618809Y-110516785D02*
X152856904Y-110516785D01*
X152856904Y-110516785D02*
X152952142Y-110564404D01*
X152952142Y-110564404D02*
X152999761Y-110612023D01*
X152999761Y-110612023D02*
X153047380Y-110707261D01*
X153047380Y-110707261D02*
X153047380Y-110992975D01*
X153047380Y-110992975D02*
X152999761Y-111088213D01*
X152999761Y-111088213D02*
X152952142Y-111135832D01*
X110952142Y-57469166D02*
X110999761Y-57516785D01*
X110999761Y-57516785D02*
X111047380Y-57659642D01*
X111047380Y-57659642D02*
X111047380Y-57754880D01*
X111047380Y-57754880D02*
X110999761Y-57897737D01*
X110999761Y-57897737D02*
X110904523Y-57992975D01*
X110904523Y-57992975D02*
X110809285Y-58040594D01*
X110809285Y-58040594D02*
X110618809Y-58088213D01*
X110618809Y-58088213D02*
X110475952Y-58088213D01*
X110475952Y-58088213D02*
X110285476Y-58040594D01*
X110285476Y-58040594D02*
X110190238Y-57992975D01*
X110190238Y-57992975D02*
X110095000Y-57897737D01*
X110095000Y-57897737D02*
X110047380Y-57754880D01*
X110047380Y-57754880D02*
X110047380Y-57659642D01*
X110047380Y-57659642D02*
X110095000Y-57516785D01*
X110095000Y-57516785D02*
X110142619Y-57469166D01*
X110047380Y-57135832D02*
X110047380Y-56516785D01*
X110047380Y-56516785D02*
X110428333Y-56850118D01*
X110428333Y-56850118D02*
X110428333Y-56707261D01*
X110428333Y-56707261D02*
X110475952Y-56612023D01*
X110475952Y-56612023D02*
X110523571Y-56564404D01*
X110523571Y-56564404D02*
X110618809Y-56516785D01*
X110618809Y-56516785D02*
X110856904Y-56516785D01*
X110856904Y-56516785D02*
X110952142Y-56564404D01*
X110952142Y-56564404D02*
X110999761Y-56612023D01*
X110999761Y-56612023D02*
X111047380Y-56707261D01*
X111047380Y-56707261D02*
X111047380Y-56992975D01*
X111047380Y-56992975D02*
X110999761Y-57088213D01*
X110999761Y-57088213D02*
X110952142Y-57135832D01*
X110952142Y-111469166D02*
X110999761Y-111516785D01*
X110999761Y-111516785D02*
X111047380Y-111659642D01*
X111047380Y-111659642D02*
X111047380Y-111754880D01*
X111047380Y-111754880D02*
X110999761Y-111897737D01*
X110999761Y-111897737D02*
X110904523Y-111992975D01*
X110904523Y-111992975D02*
X110809285Y-112040594D01*
X110809285Y-112040594D02*
X110618809Y-112088213D01*
X110618809Y-112088213D02*
X110475952Y-112088213D01*
X110475952Y-112088213D02*
X110285476Y-112040594D01*
X110285476Y-112040594D02*
X110190238Y-111992975D01*
X110190238Y-111992975D02*
X110095000Y-111897737D01*
X110095000Y-111897737D02*
X110047380Y-111754880D01*
X110047380Y-111754880D02*
X110047380Y-111659642D01*
X110047380Y-111659642D02*
X110095000Y-111516785D01*
X110095000Y-111516785D02*
X110142619Y-111469166D01*
X110047380Y-111135832D02*
X110047380Y-110516785D01*
X110047380Y-110516785D02*
X110428333Y-110850118D01*
X110428333Y-110850118D02*
X110428333Y-110707261D01*
X110428333Y-110707261D02*
X110475952Y-110612023D01*
X110475952Y-110612023D02*
X110523571Y-110564404D01*
X110523571Y-110564404D02*
X110618809Y-110516785D01*
X110618809Y-110516785D02*
X110856904Y-110516785D01*
X110856904Y-110516785D02*
X110952142Y-110564404D01*
X110952142Y-110564404D02*
X110999761Y-110612023D01*
X110999761Y-110612023D02*
X111047380Y-110707261D01*
X111047380Y-110707261D02*
X111047380Y-110992975D01*
X111047380Y-110992975D02*
X110999761Y-111088213D01*
X110999761Y-111088213D02*
X110952142Y-111135832D01*
X177166666Y-63117380D02*
X177166666Y-63831666D01*
X177166666Y-63831666D02*
X177119047Y-63974523D01*
X177119047Y-63974523D02*
X177023809Y-64069761D01*
X177023809Y-64069761D02*
X176880952Y-64117380D01*
X176880952Y-64117380D02*
X176785714Y-64117380D01*
X177595238Y-63212619D02*
X177642857Y-63165000D01*
X177642857Y-63165000D02*
X177738095Y-63117380D01*
X177738095Y-63117380D02*
X177976190Y-63117380D01*
X177976190Y-63117380D02*
X178071428Y-63165000D01*
X178071428Y-63165000D02*
X178119047Y-63212619D01*
X178119047Y-63212619D02*
X178166666Y-63307857D01*
X178166666Y-63307857D02*
X178166666Y-63403095D01*
X178166666Y-63403095D02*
X178119047Y-63545952D01*
X178119047Y-63545952D02*
X177547619Y-64117380D01*
X177547619Y-64117380D02*
X178166666Y-64117380D01*
X177166666Y-117117380D02*
X177166666Y-117831666D01*
X177166666Y-117831666D02*
X177119047Y-117974523D01*
X177119047Y-117974523D02*
X177023809Y-118069761D01*
X177023809Y-118069761D02*
X176880952Y-118117380D01*
X176880952Y-118117380D02*
X176785714Y-118117380D01*
X177595238Y-117212619D02*
X177642857Y-117165000D01*
X177642857Y-117165000D02*
X177738095Y-117117380D01*
X177738095Y-117117380D02*
X177976190Y-117117380D01*
X177976190Y-117117380D02*
X178071428Y-117165000D01*
X178071428Y-117165000D02*
X178119047Y-117212619D01*
X178119047Y-117212619D02*
X178166666Y-117307857D01*
X178166666Y-117307857D02*
X178166666Y-117403095D01*
X178166666Y-117403095D02*
X178119047Y-117545952D01*
X178119047Y-117545952D02*
X177547619Y-118117380D01*
X177547619Y-118117380D02*
X178166666Y-118117380D01*
X135166666Y-63117380D02*
X135166666Y-63831666D01*
X135166666Y-63831666D02*
X135119047Y-63974523D01*
X135119047Y-63974523D02*
X135023809Y-64069761D01*
X135023809Y-64069761D02*
X134880952Y-64117380D01*
X134880952Y-64117380D02*
X134785714Y-64117380D01*
X135595238Y-63212619D02*
X135642857Y-63165000D01*
X135642857Y-63165000D02*
X135738095Y-63117380D01*
X135738095Y-63117380D02*
X135976190Y-63117380D01*
X135976190Y-63117380D02*
X136071428Y-63165000D01*
X136071428Y-63165000D02*
X136119047Y-63212619D01*
X136119047Y-63212619D02*
X136166666Y-63307857D01*
X136166666Y-63307857D02*
X136166666Y-63403095D01*
X136166666Y-63403095D02*
X136119047Y-63545952D01*
X136119047Y-63545952D02*
X135547619Y-64117380D01*
X135547619Y-64117380D02*
X136166666Y-64117380D01*
X135166666Y-117117380D02*
X135166666Y-117831666D01*
X135166666Y-117831666D02*
X135119047Y-117974523D01*
X135119047Y-117974523D02*
X135023809Y-118069761D01*
X135023809Y-118069761D02*
X134880952Y-118117380D01*
X134880952Y-118117380D02*
X134785714Y-118117380D01*
X135595238Y-117212619D02*
X135642857Y-117165000D01*
X135642857Y-117165000D02*
X135738095Y-117117380D01*
X135738095Y-117117380D02*
X135976190Y-117117380D01*
X135976190Y-117117380D02*
X136071428Y-117165000D01*
X136071428Y-117165000D02*
X136119047Y-117212619D01*
X136119047Y-117212619D02*
X136166666Y-117307857D01*
X136166666Y-117307857D02*
X136166666Y-117403095D01*
X136166666Y-117403095D02*
X136119047Y-117545952D01*
X136119047Y-117545952D02*
X135547619Y-118117380D01*
X135547619Y-118117380D02*
X136166666Y-118117380D01*
X172333333Y-29367380D02*
X172000000Y-28891190D01*
X171761905Y-29367380D02*
X171761905Y-28367380D01*
X171761905Y-28367380D02*
X172142857Y-28367380D01*
X172142857Y-28367380D02*
X172238095Y-28415000D01*
X172238095Y-28415000D02*
X172285714Y-28462619D01*
X172285714Y-28462619D02*
X172333333Y-28557857D01*
X172333333Y-28557857D02*
X172333333Y-28700714D01*
X172333333Y-28700714D02*
X172285714Y-28795952D01*
X172285714Y-28795952D02*
X172238095Y-28843571D01*
X172238095Y-28843571D02*
X172142857Y-28891190D01*
X172142857Y-28891190D02*
X171761905Y-28891190D01*
X173285714Y-29367380D02*
X172714286Y-29367380D01*
X173000000Y-29367380D02*
X173000000Y-28367380D01*
X173000000Y-28367380D02*
X172904762Y-28510238D01*
X172904762Y-28510238D02*
X172809524Y-28605476D01*
X172809524Y-28605476D02*
X172714286Y-28653095D01*
X172333333Y-83367380D02*
X172000000Y-82891190D01*
X171761905Y-83367380D02*
X171761905Y-82367380D01*
X171761905Y-82367380D02*
X172142857Y-82367380D01*
X172142857Y-82367380D02*
X172238095Y-82415000D01*
X172238095Y-82415000D02*
X172285714Y-82462619D01*
X172285714Y-82462619D02*
X172333333Y-82557857D01*
X172333333Y-82557857D02*
X172333333Y-82700714D01*
X172333333Y-82700714D02*
X172285714Y-82795952D01*
X172285714Y-82795952D02*
X172238095Y-82843571D01*
X172238095Y-82843571D02*
X172142857Y-82891190D01*
X172142857Y-82891190D02*
X171761905Y-82891190D01*
X173285714Y-83367380D02*
X172714286Y-83367380D01*
X173000000Y-83367380D02*
X173000000Y-82367380D01*
X173000000Y-82367380D02*
X172904762Y-82510238D01*
X172904762Y-82510238D02*
X172809524Y-82605476D01*
X172809524Y-82605476D02*
X172714286Y-82653095D01*
X130333333Y-29367380D02*
X130000000Y-28891190D01*
X129761905Y-29367380D02*
X129761905Y-28367380D01*
X129761905Y-28367380D02*
X130142857Y-28367380D01*
X130142857Y-28367380D02*
X130238095Y-28415000D01*
X130238095Y-28415000D02*
X130285714Y-28462619D01*
X130285714Y-28462619D02*
X130333333Y-28557857D01*
X130333333Y-28557857D02*
X130333333Y-28700714D01*
X130333333Y-28700714D02*
X130285714Y-28795952D01*
X130285714Y-28795952D02*
X130238095Y-28843571D01*
X130238095Y-28843571D02*
X130142857Y-28891190D01*
X130142857Y-28891190D02*
X129761905Y-28891190D01*
X131285714Y-29367380D02*
X130714286Y-29367380D01*
X131000000Y-29367380D02*
X131000000Y-28367380D01*
X131000000Y-28367380D02*
X130904762Y-28510238D01*
X130904762Y-28510238D02*
X130809524Y-28605476D01*
X130809524Y-28605476D02*
X130714286Y-28653095D01*
X130333333Y-83367380D02*
X130000000Y-82891190D01*
X129761905Y-83367380D02*
X129761905Y-82367380D01*
X129761905Y-82367380D02*
X130142857Y-82367380D01*
X130142857Y-82367380D02*
X130238095Y-82415000D01*
X130238095Y-82415000D02*
X130285714Y-82462619D01*
X130285714Y-82462619D02*
X130333333Y-82557857D01*
X130333333Y-82557857D02*
X130333333Y-82700714D01*
X130333333Y-82700714D02*
X130285714Y-82795952D01*
X130285714Y-82795952D02*
X130238095Y-82843571D01*
X130238095Y-82843571D02*
X130142857Y-82891190D01*
X130142857Y-82891190D02*
X129761905Y-82891190D01*
X131285714Y-83367380D02*
X130714286Y-83367380D01*
X131000000Y-83367380D02*
X131000000Y-82367380D01*
X131000000Y-82367380D02*
X130904762Y-82510238D01*
X130904762Y-82510238D02*
X130809524Y-82605476D01*
X130809524Y-82605476D02*
X130714286Y-82653095D01*
X172333333Y-31187380D02*
X172000000Y-30711190D01*
X171761905Y-31187380D02*
X171761905Y-30187380D01*
X171761905Y-30187380D02*
X172142857Y-30187380D01*
X172142857Y-30187380D02*
X172238095Y-30235000D01*
X172238095Y-30235000D02*
X172285714Y-30282619D01*
X172285714Y-30282619D02*
X172333333Y-30377857D01*
X172333333Y-30377857D02*
X172333333Y-30520714D01*
X172333333Y-30520714D02*
X172285714Y-30615952D01*
X172285714Y-30615952D02*
X172238095Y-30663571D01*
X172238095Y-30663571D02*
X172142857Y-30711190D01*
X172142857Y-30711190D02*
X171761905Y-30711190D01*
X172666667Y-30187380D02*
X173285714Y-30187380D01*
X173285714Y-30187380D02*
X172952381Y-30568333D01*
X172952381Y-30568333D02*
X173095238Y-30568333D01*
X173095238Y-30568333D02*
X173190476Y-30615952D01*
X173190476Y-30615952D02*
X173238095Y-30663571D01*
X173238095Y-30663571D02*
X173285714Y-30758809D01*
X173285714Y-30758809D02*
X173285714Y-30996904D01*
X173285714Y-30996904D02*
X173238095Y-31092142D01*
X173238095Y-31092142D02*
X173190476Y-31139761D01*
X173190476Y-31139761D02*
X173095238Y-31187380D01*
X173095238Y-31187380D02*
X172809524Y-31187380D01*
X172809524Y-31187380D02*
X172714286Y-31139761D01*
X172714286Y-31139761D02*
X172666667Y-31092142D01*
X172333333Y-85187380D02*
X172000000Y-84711190D01*
X171761905Y-85187380D02*
X171761905Y-84187380D01*
X171761905Y-84187380D02*
X172142857Y-84187380D01*
X172142857Y-84187380D02*
X172238095Y-84235000D01*
X172238095Y-84235000D02*
X172285714Y-84282619D01*
X172285714Y-84282619D02*
X172333333Y-84377857D01*
X172333333Y-84377857D02*
X172333333Y-84520714D01*
X172333333Y-84520714D02*
X172285714Y-84615952D01*
X172285714Y-84615952D02*
X172238095Y-84663571D01*
X172238095Y-84663571D02*
X172142857Y-84711190D01*
X172142857Y-84711190D02*
X171761905Y-84711190D01*
X172666667Y-84187380D02*
X173285714Y-84187380D01*
X173285714Y-84187380D02*
X172952381Y-84568333D01*
X172952381Y-84568333D02*
X173095238Y-84568333D01*
X173095238Y-84568333D02*
X173190476Y-84615952D01*
X173190476Y-84615952D02*
X173238095Y-84663571D01*
X173238095Y-84663571D02*
X173285714Y-84758809D01*
X173285714Y-84758809D02*
X173285714Y-84996904D01*
X173285714Y-84996904D02*
X173238095Y-85092142D01*
X173238095Y-85092142D02*
X173190476Y-85139761D01*
X173190476Y-85139761D02*
X173095238Y-85187380D01*
X173095238Y-85187380D02*
X172809524Y-85187380D01*
X172809524Y-85187380D02*
X172714286Y-85139761D01*
X172714286Y-85139761D02*
X172666667Y-85092142D01*
X130333333Y-31187380D02*
X130000000Y-30711190D01*
X129761905Y-31187380D02*
X129761905Y-30187380D01*
X129761905Y-30187380D02*
X130142857Y-30187380D01*
X130142857Y-30187380D02*
X130238095Y-30235000D01*
X130238095Y-30235000D02*
X130285714Y-30282619D01*
X130285714Y-30282619D02*
X130333333Y-30377857D01*
X130333333Y-30377857D02*
X130333333Y-30520714D01*
X130333333Y-30520714D02*
X130285714Y-30615952D01*
X130285714Y-30615952D02*
X130238095Y-30663571D01*
X130238095Y-30663571D02*
X130142857Y-30711190D01*
X130142857Y-30711190D02*
X129761905Y-30711190D01*
X130666667Y-30187380D02*
X131285714Y-30187380D01*
X131285714Y-30187380D02*
X130952381Y-30568333D01*
X130952381Y-30568333D02*
X131095238Y-30568333D01*
X131095238Y-30568333D02*
X131190476Y-30615952D01*
X131190476Y-30615952D02*
X131238095Y-30663571D01*
X131238095Y-30663571D02*
X131285714Y-30758809D01*
X131285714Y-30758809D02*
X131285714Y-30996904D01*
X131285714Y-30996904D02*
X131238095Y-31092142D01*
X131238095Y-31092142D02*
X131190476Y-31139761D01*
X131190476Y-31139761D02*
X131095238Y-31187380D01*
X131095238Y-31187380D02*
X130809524Y-31187380D01*
X130809524Y-31187380D02*
X130714286Y-31139761D01*
X130714286Y-31139761D02*
X130666667Y-31092142D01*
X130333333Y-85187380D02*
X130000000Y-84711190D01*
X129761905Y-85187380D02*
X129761905Y-84187380D01*
X129761905Y-84187380D02*
X130142857Y-84187380D01*
X130142857Y-84187380D02*
X130238095Y-84235000D01*
X130238095Y-84235000D02*
X130285714Y-84282619D01*
X130285714Y-84282619D02*
X130333333Y-84377857D01*
X130333333Y-84377857D02*
X130333333Y-84520714D01*
X130333333Y-84520714D02*
X130285714Y-84615952D01*
X130285714Y-84615952D02*
X130238095Y-84663571D01*
X130238095Y-84663571D02*
X130142857Y-84711190D01*
X130142857Y-84711190D02*
X129761905Y-84711190D01*
X130666667Y-84187380D02*
X131285714Y-84187380D01*
X131285714Y-84187380D02*
X130952381Y-84568333D01*
X130952381Y-84568333D02*
X131095238Y-84568333D01*
X131095238Y-84568333D02*
X131190476Y-84615952D01*
X131190476Y-84615952D02*
X131238095Y-84663571D01*
X131238095Y-84663571D02*
X131285714Y-84758809D01*
X131285714Y-84758809D02*
X131285714Y-84996904D01*
X131285714Y-84996904D02*
X131238095Y-85092142D01*
X131238095Y-85092142D02*
X131190476Y-85139761D01*
X131190476Y-85139761D02*
X131095238Y-85187380D01*
X131095238Y-85187380D02*
X130809524Y-85187380D01*
X130809524Y-85187380D02*
X130714286Y-85139761D01*
X130714286Y-85139761D02*
X130666667Y-85092142D01*
X186166666Y-55617380D02*
X186166666Y-56331666D01*
X186166666Y-56331666D02*
X186119047Y-56474523D01*
X186119047Y-56474523D02*
X186023809Y-56569761D01*
X186023809Y-56569761D02*
X185880952Y-56617380D01*
X185880952Y-56617380D02*
X185785714Y-56617380D01*
X186547619Y-55617380D02*
X187166666Y-55617380D01*
X187166666Y-55617380D02*
X186833333Y-55998333D01*
X186833333Y-55998333D02*
X186976190Y-55998333D01*
X186976190Y-55998333D02*
X187071428Y-56045952D01*
X187071428Y-56045952D02*
X187119047Y-56093571D01*
X187119047Y-56093571D02*
X187166666Y-56188809D01*
X187166666Y-56188809D02*
X187166666Y-56426904D01*
X187166666Y-56426904D02*
X187119047Y-56522142D01*
X187119047Y-56522142D02*
X187071428Y-56569761D01*
X187071428Y-56569761D02*
X186976190Y-56617380D01*
X186976190Y-56617380D02*
X186690476Y-56617380D01*
X186690476Y-56617380D02*
X186595238Y-56569761D01*
X186595238Y-56569761D02*
X186547619Y-56522142D01*
X186166666Y-109617380D02*
X186166666Y-110331666D01*
X186166666Y-110331666D02*
X186119047Y-110474523D01*
X186119047Y-110474523D02*
X186023809Y-110569761D01*
X186023809Y-110569761D02*
X185880952Y-110617380D01*
X185880952Y-110617380D02*
X185785714Y-110617380D01*
X186547619Y-109617380D02*
X187166666Y-109617380D01*
X187166666Y-109617380D02*
X186833333Y-109998333D01*
X186833333Y-109998333D02*
X186976190Y-109998333D01*
X186976190Y-109998333D02*
X187071428Y-110045952D01*
X187071428Y-110045952D02*
X187119047Y-110093571D01*
X187119047Y-110093571D02*
X187166666Y-110188809D01*
X187166666Y-110188809D02*
X187166666Y-110426904D01*
X187166666Y-110426904D02*
X187119047Y-110522142D01*
X187119047Y-110522142D02*
X187071428Y-110569761D01*
X187071428Y-110569761D02*
X186976190Y-110617380D01*
X186976190Y-110617380D02*
X186690476Y-110617380D01*
X186690476Y-110617380D02*
X186595238Y-110569761D01*
X186595238Y-110569761D02*
X186547619Y-110522142D01*
X144166666Y-55617380D02*
X144166666Y-56331666D01*
X144166666Y-56331666D02*
X144119047Y-56474523D01*
X144119047Y-56474523D02*
X144023809Y-56569761D01*
X144023809Y-56569761D02*
X143880952Y-56617380D01*
X143880952Y-56617380D02*
X143785714Y-56617380D01*
X144547619Y-55617380D02*
X145166666Y-55617380D01*
X145166666Y-55617380D02*
X144833333Y-55998333D01*
X144833333Y-55998333D02*
X144976190Y-55998333D01*
X144976190Y-55998333D02*
X145071428Y-56045952D01*
X145071428Y-56045952D02*
X145119047Y-56093571D01*
X145119047Y-56093571D02*
X145166666Y-56188809D01*
X145166666Y-56188809D02*
X145166666Y-56426904D01*
X145166666Y-56426904D02*
X145119047Y-56522142D01*
X145119047Y-56522142D02*
X145071428Y-56569761D01*
X145071428Y-56569761D02*
X144976190Y-56617380D01*
X144976190Y-56617380D02*
X144690476Y-56617380D01*
X144690476Y-56617380D02*
X144595238Y-56569761D01*
X144595238Y-56569761D02*
X144547619Y-56522142D01*
X144166666Y-109617380D02*
X144166666Y-110331666D01*
X144166666Y-110331666D02*
X144119047Y-110474523D01*
X144119047Y-110474523D02*
X144023809Y-110569761D01*
X144023809Y-110569761D02*
X143880952Y-110617380D01*
X143880952Y-110617380D02*
X143785714Y-110617380D01*
X144547619Y-109617380D02*
X145166666Y-109617380D01*
X145166666Y-109617380D02*
X144833333Y-109998333D01*
X144833333Y-109998333D02*
X144976190Y-109998333D01*
X144976190Y-109998333D02*
X145071428Y-110045952D01*
X145071428Y-110045952D02*
X145119047Y-110093571D01*
X145119047Y-110093571D02*
X145166666Y-110188809D01*
X145166666Y-110188809D02*
X145166666Y-110426904D01*
X145166666Y-110426904D02*
X145119047Y-110522142D01*
X145119047Y-110522142D02*
X145071428Y-110569761D01*
X145071428Y-110569761D02*
X144976190Y-110617380D01*
X144976190Y-110617380D02*
X144690476Y-110617380D01*
X144690476Y-110617380D02*
X144595238Y-110569761D01*
X144595238Y-110569761D02*
X144547619Y-110522142D01*
X173772142Y-55916666D02*
X173819761Y-55964285D01*
X173819761Y-55964285D02*
X173867380Y-56107142D01*
X173867380Y-56107142D02*
X173867380Y-56202380D01*
X173867380Y-56202380D02*
X173819761Y-56345237D01*
X173819761Y-56345237D02*
X173724523Y-56440475D01*
X173724523Y-56440475D02*
X173629285Y-56488094D01*
X173629285Y-56488094D02*
X173438809Y-56535713D01*
X173438809Y-56535713D02*
X173295952Y-56535713D01*
X173295952Y-56535713D02*
X173105476Y-56488094D01*
X173105476Y-56488094D02*
X173010238Y-56440475D01*
X173010238Y-56440475D02*
X172915000Y-56345237D01*
X172915000Y-56345237D02*
X172867380Y-56202380D01*
X172867380Y-56202380D02*
X172867380Y-56107142D01*
X172867380Y-56107142D02*
X172915000Y-55964285D01*
X172915000Y-55964285D02*
X172962619Y-55916666D01*
X173867380Y-55440475D02*
X173867380Y-55249999D01*
X173867380Y-55249999D02*
X173819761Y-55154761D01*
X173819761Y-55154761D02*
X173772142Y-55107142D01*
X173772142Y-55107142D02*
X173629285Y-55011904D01*
X173629285Y-55011904D02*
X173438809Y-54964285D01*
X173438809Y-54964285D02*
X173057857Y-54964285D01*
X173057857Y-54964285D02*
X172962619Y-55011904D01*
X172962619Y-55011904D02*
X172915000Y-55059523D01*
X172915000Y-55059523D02*
X172867380Y-55154761D01*
X172867380Y-55154761D02*
X172867380Y-55345237D01*
X172867380Y-55345237D02*
X172915000Y-55440475D01*
X172915000Y-55440475D02*
X172962619Y-55488094D01*
X172962619Y-55488094D02*
X173057857Y-55535713D01*
X173057857Y-55535713D02*
X173295952Y-55535713D01*
X173295952Y-55535713D02*
X173391190Y-55488094D01*
X173391190Y-55488094D02*
X173438809Y-55440475D01*
X173438809Y-55440475D02*
X173486428Y-55345237D01*
X173486428Y-55345237D02*
X173486428Y-55154761D01*
X173486428Y-55154761D02*
X173438809Y-55059523D01*
X173438809Y-55059523D02*
X173391190Y-55011904D01*
X173391190Y-55011904D02*
X173295952Y-54964285D01*
X173772142Y-109916666D02*
X173819761Y-109964285D01*
X173819761Y-109964285D02*
X173867380Y-110107142D01*
X173867380Y-110107142D02*
X173867380Y-110202380D01*
X173867380Y-110202380D02*
X173819761Y-110345237D01*
X173819761Y-110345237D02*
X173724523Y-110440475D01*
X173724523Y-110440475D02*
X173629285Y-110488094D01*
X173629285Y-110488094D02*
X173438809Y-110535713D01*
X173438809Y-110535713D02*
X173295952Y-110535713D01*
X173295952Y-110535713D02*
X173105476Y-110488094D01*
X173105476Y-110488094D02*
X173010238Y-110440475D01*
X173010238Y-110440475D02*
X172915000Y-110345237D01*
X172915000Y-110345237D02*
X172867380Y-110202380D01*
X172867380Y-110202380D02*
X172867380Y-110107142D01*
X172867380Y-110107142D02*
X172915000Y-109964285D01*
X172915000Y-109964285D02*
X172962619Y-109916666D01*
X173867380Y-109440475D02*
X173867380Y-109249999D01*
X173867380Y-109249999D02*
X173819761Y-109154761D01*
X173819761Y-109154761D02*
X173772142Y-109107142D01*
X173772142Y-109107142D02*
X173629285Y-109011904D01*
X173629285Y-109011904D02*
X173438809Y-108964285D01*
X173438809Y-108964285D02*
X173057857Y-108964285D01*
X173057857Y-108964285D02*
X172962619Y-109011904D01*
X172962619Y-109011904D02*
X172915000Y-109059523D01*
X172915000Y-109059523D02*
X172867380Y-109154761D01*
X172867380Y-109154761D02*
X172867380Y-109345237D01*
X172867380Y-109345237D02*
X172915000Y-109440475D01*
X172915000Y-109440475D02*
X172962619Y-109488094D01*
X172962619Y-109488094D02*
X173057857Y-109535713D01*
X173057857Y-109535713D02*
X173295952Y-109535713D01*
X173295952Y-109535713D02*
X173391190Y-109488094D01*
X173391190Y-109488094D02*
X173438809Y-109440475D01*
X173438809Y-109440475D02*
X173486428Y-109345237D01*
X173486428Y-109345237D02*
X173486428Y-109154761D01*
X173486428Y-109154761D02*
X173438809Y-109059523D01*
X173438809Y-109059523D02*
X173391190Y-109011904D01*
X173391190Y-109011904D02*
X173295952Y-108964285D01*
X131772142Y-55916666D02*
X131819761Y-55964285D01*
X131819761Y-55964285D02*
X131867380Y-56107142D01*
X131867380Y-56107142D02*
X131867380Y-56202380D01*
X131867380Y-56202380D02*
X131819761Y-56345237D01*
X131819761Y-56345237D02*
X131724523Y-56440475D01*
X131724523Y-56440475D02*
X131629285Y-56488094D01*
X131629285Y-56488094D02*
X131438809Y-56535713D01*
X131438809Y-56535713D02*
X131295952Y-56535713D01*
X131295952Y-56535713D02*
X131105476Y-56488094D01*
X131105476Y-56488094D02*
X131010238Y-56440475D01*
X131010238Y-56440475D02*
X130915000Y-56345237D01*
X130915000Y-56345237D02*
X130867380Y-56202380D01*
X130867380Y-56202380D02*
X130867380Y-56107142D01*
X130867380Y-56107142D02*
X130915000Y-55964285D01*
X130915000Y-55964285D02*
X130962619Y-55916666D01*
X131867380Y-55440475D02*
X131867380Y-55249999D01*
X131867380Y-55249999D02*
X131819761Y-55154761D01*
X131819761Y-55154761D02*
X131772142Y-55107142D01*
X131772142Y-55107142D02*
X131629285Y-55011904D01*
X131629285Y-55011904D02*
X131438809Y-54964285D01*
X131438809Y-54964285D02*
X131057857Y-54964285D01*
X131057857Y-54964285D02*
X130962619Y-55011904D01*
X130962619Y-55011904D02*
X130915000Y-55059523D01*
X130915000Y-55059523D02*
X130867380Y-55154761D01*
X130867380Y-55154761D02*
X130867380Y-55345237D01*
X130867380Y-55345237D02*
X130915000Y-55440475D01*
X130915000Y-55440475D02*
X130962619Y-55488094D01*
X130962619Y-55488094D02*
X131057857Y-55535713D01*
X131057857Y-55535713D02*
X131295952Y-55535713D01*
X131295952Y-55535713D02*
X131391190Y-55488094D01*
X131391190Y-55488094D02*
X131438809Y-55440475D01*
X131438809Y-55440475D02*
X131486428Y-55345237D01*
X131486428Y-55345237D02*
X131486428Y-55154761D01*
X131486428Y-55154761D02*
X131438809Y-55059523D01*
X131438809Y-55059523D02*
X131391190Y-55011904D01*
X131391190Y-55011904D02*
X131295952Y-54964285D01*
X131772142Y-109916666D02*
X131819761Y-109964285D01*
X131819761Y-109964285D02*
X131867380Y-110107142D01*
X131867380Y-110107142D02*
X131867380Y-110202380D01*
X131867380Y-110202380D02*
X131819761Y-110345237D01*
X131819761Y-110345237D02*
X131724523Y-110440475D01*
X131724523Y-110440475D02*
X131629285Y-110488094D01*
X131629285Y-110488094D02*
X131438809Y-110535713D01*
X131438809Y-110535713D02*
X131295952Y-110535713D01*
X131295952Y-110535713D02*
X131105476Y-110488094D01*
X131105476Y-110488094D02*
X131010238Y-110440475D01*
X131010238Y-110440475D02*
X130915000Y-110345237D01*
X130915000Y-110345237D02*
X130867380Y-110202380D01*
X130867380Y-110202380D02*
X130867380Y-110107142D01*
X130867380Y-110107142D02*
X130915000Y-109964285D01*
X130915000Y-109964285D02*
X130962619Y-109916666D01*
X131867380Y-109440475D02*
X131867380Y-109249999D01*
X131867380Y-109249999D02*
X131819761Y-109154761D01*
X131819761Y-109154761D02*
X131772142Y-109107142D01*
X131772142Y-109107142D02*
X131629285Y-109011904D01*
X131629285Y-109011904D02*
X131438809Y-108964285D01*
X131438809Y-108964285D02*
X131057857Y-108964285D01*
X131057857Y-108964285D02*
X130962619Y-109011904D01*
X130962619Y-109011904D02*
X130915000Y-109059523D01*
X130915000Y-109059523D02*
X130867380Y-109154761D01*
X130867380Y-109154761D02*
X130867380Y-109345237D01*
X130867380Y-109345237D02*
X130915000Y-109440475D01*
X130915000Y-109440475D02*
X130962619Y-109488094D01*
X130962619Y-109488094D02*
X131057857Y-109535713D01*
X131057857Y-109535713D02*
X131295952Y-109535713D01*
X131295952Y-109535713D02*
X131391190Y-109488094D01*
X131391190Y-109488094D02*
X131438809Y-109440475D01*
X131438809Y-109440475D02*
X131486428Y-109345237D01*
X131486428Y-109345237D02*
X131486428Y-109154761D01*
X131486428Y-109154761D02*
X131438809Y-109059523D01*
X131438809Y-109059523D02*
X131391190Y-109011904D01*
X131391190Y-109011904D02*
X131295952Y-108964285D01*
X169772142Y-27666666D02*
X169819761Y-27714285D01*
X169819761Y-27714285D02*
X169867380Y-27857142D01*
X169867380Y-27857142D02*
X169867380Y-27952380D01*
X169867380Y-27952380D02*
X169819761Y-28095237D01*
X169819761Y-28095237D02*
X169724523Y-28190475D01*
X169724523Y-28190475D02*
X169629285Y-28238094D01*
X169629285Y-28238094D02*
X169438809Y-28285713D01*
X169438809Y-28285713D02*
X169295952Y-28285713D01*
X169295952Y-28285713D02*
X169105476Y-28238094D01*
X169105476Y-28238094D02*
X169010238Y-28190475D01*
X169010238Y-28190475D02*
X168915000Y-28095237D01*
X168915000Y-28095237D02*
X168867380Y-27952380D01*
X168867380Y-27952380D02*
X168867380Y-27857142D01*
X168867380Y-27857142D02*
X168915000Y-27714285D01*
X168915000Y-27714285D02*
X168962619Y-27666666D01*
X168867380Y-27333332D02*
X168867380Y-26666666D01*
X168867380Y-26666666D02*
X169867380Y-27095237D01*
X169772142Y-81666666D02*
X169819761Y-81714285D01*
X169819761Y-81714285D02*
X169867380Y-81857142D01*
X169867380Y-81857142D02*
X169867380Y-81952380D01*
X169867380Y-81952380D02*
X169819761Y-82095237D01*
X169819761Y-82095237D02*
X169724523Y-82190475D01*
X169724523Y-82190475D02*
X169629285Y-82238094D01*
X169629285Y-82238094D02*
X169438809Y-82285713D01*
X169438809Y-82285713D02*
X169295952Y-82285713D01*
X169295952Y-82285713D02*
X169105476Y-82238094D01*
X169105476Y-82238094D02*
X169010238Y-82190475D01*
X169010238Y-82190475D02*
X168915000Y-82095237D01*
X168915000Y-82095237D02*
X168867380Y-81952380D01*
X168867380Y-81952380D02*
X168867380Y-81857142D01*
X168867380Y-81857142D02*
X168915000Y-81714285D01*
X168915000Y-81714285D02*
X168962619Y-81666666D01*
X168867380Y-81333332D02*
X168867380Y-80666666D01*
X168867380Y-80666666D02*
X169867380Y-81095237D01*
X127772142Y-27666666D02*
X127819761Y-27714285D01*
X127819761Y-27714285D02*
X127867380Y-27857142D01*
X127867380Y-27857142D02*
X127867380Y-27952380D01*
X127867380Y-27952380D02*
X127819761Y-28095237D01*
X127819761Y-28095237D02*
X127724523Y-28190475D01*
X127724523Y-28190475D02*
X127629285Y-28238094D01*
X127629285Y-28238094D02*
X127438809Y-28285713D01*
X127438809Y-28285713D02*
X127295952Y-28285713D01*
X127295952Y-28285713D02*
X127105476Y-28238094D01*
X127105476Y-28238094D02*
X127010238Y-28190475D01*
X127010238Y-28190475D02*
X126915000Y-28095237D01*
X126915000Y-28095237D02*
X126867380Y-27952380D01*
X126867380Y-27952380D02*
X126867380Y-27857142D01*
X126867380Y-27857142D02*
X126915000Y-27714285D01*
X126915000Y-27714285D02*
X126962619Y-27666666D01*
X126867380Y-27333332D02*
X126867380Y-26666666D01*
X126867380Y-26666666D02*
X127867380Y-27095237D01*
X127772142Y-81666666D02*
X127819761Y-81714285D01*
X127819761Y-81714285D02*
X127867380Y-81857142D01*
X127867380Y-81857142D02*
X127867380Y-81952380D01*
X127867380Y-81952380D02*
X127819761Y-82095237D01*
X127819761Y-82095237D02*
X127724523Y-82190475D01*
X127724523Y-82190475D02*
X127629285Y-82238094D01*
X127629285Y-82238094D02*
X127438809Y-82285713D01*
X127438809Y-82285713D02*
X127295952Y-82285713D01*
X127295952Y-82285713D02*
X127105476Y-82238094D01*
X127105476Y-82238094D02*
X127010238Y-82190475D01*
X127010238Y-82190475D02*
X126915000Y-82095237D01*
X126915000Y-82095237D02*
X126867380Y-81952380D01*
X126867380Y-81952380D02*
X126867380Y-81857142D01*
X126867380Y-81857142D02*
X126915000Y-81714285D01*
X126915000Y-81714285D02*
X126962619Y-81666666D01*
X126867380Y-81333332D02*
X126867380Y-80666666D01*
X126867380Y-80666666D02*
X127867380Y-81095237D01*
X168272142Y-44866666D02*
X168319761Y-44914285D01*
X168319761Y-44914285D02*
X168367380Y-45057142D01*
X168367380Y-45057142D02*
X168367380Y-45152380D01*
X168367380Y-45152380D02*
X168319761Y-45295237D01*
X168319761Y-45295237D02*
X168224523Y-45390475D01*
X168224523Y-45390475D02*
X168129285Y-45438094D01*
X168129285Y-45438094D02*
X167938809Y-45485713D01*
X167938809Y-45485713D02*
X167795952Y-45485713D01*
X167795952Y-45485713D02*
X167605476Y-45438094D01*
X167605476Y-45438094D02*
X167510238Y-45390475D01*
X167510238Y-45390475D02*
X167415000Y-45295237D01*
X167415000Y-45295237D02*
X167367380Y-45152380D01*
X167367380Y-45152380D02*
X167367380Y-45057142D01*
X167367380Y-45057142D02*
X167415000Y-44914285D01*
X167415000Y-44914285D02*
X167462619Y-44866666D01*
X167462619Y-44485713D02*
X167415000Y-44438094D01*
X167415000Y-44438094D02*
X167367380Y-44342856D01*
X167367380Y-44342856D02*
X167367380Y-44104761D01*
X167367380Y-44104761D02*
X167415000Y-44009523D01*
X167415000Y-44009523D02*
X167462619Y-43961904D01*
X167462619Y-43961904D02*
X167557857Y-43914285D01*
X167557857Y-43914285D02*
X167653095Y-43914285D01*
X167653095Y-43914285D02*
X167795952Y-43961904D01*
X167795952Y-43961904D02*
X168367380Y-44533332D01*
X168367380Y-44533332D02*
X168367380Y-43914285D01*
X168272142Y-98866666D02*
X168319761Y-98914285D01*
X168319761Y-98914285D02*
X168367380Y-99057142D01*
X168367380Y-99057142D02*
X168367380Y-99152380D01*
X168367380Y-99152380D02*
X168319761Y-99295237D01*
X168319761Y-99295237D02*
X168224523Y-99390475D01*
X168224523Y-99390475D02*
X168129285Y-99438094D01*
X168129285Y-99438094D02*
X167938809Y-99485713D01*
X167938809Y-99485713D02*
X167795952Y-99485713D01*
X167795952Y-99485713D02*
X167605476Y-99438094D01*
X167605476Y-99438094D02*
X167510238Y-99390475D01*
X167510238Y-99390475D02*
X167415000Y-99295237D01*
X167415000Y-99295237D02*
X167367380Y-99152380D01*
X167367380Y-99152380D02*
X167367380Y-99057142D01*
X167367380Y-99057142D02*
X167415000Y-98914285D01*
X167415000Y-98914285D02*
X167462619Y-98866666D01*
X167462619Y-98485713D02*
X167415000Y-98438094D01*
X167415000Y-98438094D02*
X167367380Y-98342856D01*
X167367380Y-98342856D02*
X167367380Y-98104761D01*
X167367380Y-98104761D02*
X167415000Y-98009523D01*
X167415000Y-98009523D02*
X167462619Y-97961904D01*
X167462619Y-97961904D02*
X167557857Y-97914285D01*
X167557857Y-97914285D02*
X167653095Y-97914285D01*
X167653095Y-97914285D02*
X167795952Y-97961904D01*
X167795952Y-97961904D02*
X168367380Y-98533332D01*
X168367380Y-98533332D02*
X168367380Y-97914285D01*
X126272142Y-44866666D02*
X126319761Y-44914285D01*
X126319761Y-44914285D02*
X126367380Y-45057142D01*
X126367380Y-45057142D02*
X126367380Y-45152380D01*
X126367380Y-45152380D02*
X126319761Y-45295237D01*
X126319761Y-45295237D02*
X126224523Y-45390475D01*
X126224523Y-45390475D02*
X126129285Y-45438094D01*
X126129285Y-45438094D02*
X125938809Y-45485713D01*
X125938809Y-45485713D02*
X125795952Y-45485713D01*
X125795952Y-45485713D02*
X125605476Y-45438094D01*
X125605476Y-45438094D02*
X125510238Y-45390475D01*
X125510238Y-45390475D02*
X125415000Y-45295237D01*
X125415000Y-45295237D02*
X125367380Y-45152380D01*
X125367380Y-45152380D02*
X125367380Y-45057142D01*
X125367380Y-45057142D02*
X125415000Y-44914285D01*
X125415000Y-44914285D02*
X125462619Y-44866666D01*
X125462619Y-44485713D02*
X125415000Y-44438094D01*
X125415000Y-44438094D02*
X125367380Y-44342856D01*
X125367380Y-44342856D02*
X125367380Y-44104761D01*
X125367380Y-44104761D02*
X125415000Y-44009523D01*
X125415000Y-44009523D02*
X125462619Y-43961904D01*
X125462619Y-43961904D02*
X125557857Y-43914285D01*
X125557857Y-43914285D02*
X125653095Y-43914285D01*
X125653095Y-43914285D02*
X125795952Y-43961904D01*
X125795952Y-43961904D02*
X126367380Y-44533332D01*
X126367380Y-44533332D02*
X126367380Y-43914285D01*
X126272142Y-98866666D02*
X126319761Y-98914285D01*
X126319761Y-98914285D02*
X126367380Y-99057142D01*
X126367380Y-99057142D02*
X126367380Y-99152380D01*
X126367380Y-99152380D02*
X126319761Y-99295237D01*
X126319761Y-99295237D02*
X126224523Y-99390475D01*
X126224523Y-99390475D02*
X126129285Y-99438094D01*
X126129285Y-99438094D02*
X125938809Y-99485713D01*
X125938809Y-99485713D02*
X125795952Y-99485713D01*
X125795952Y-99485713D02*
X125605476Y-99438094D01*
X125605476Y-99438094D02*
X125510238Y-99390475D01*
X125510238Y-99390475D02*
X125415000Y-99295237D01*
X125415000Y-99295237D02*
X125367380Y-99152380D01*
X125367380Y-99152380D02*
X125367380Y-99057142D01*
X125367380Y-99057142D02*
X125415000Y-98914285D01*
X125415000Y-98914285D02*
X125462619Y-98866666D01*
X125462619Y-98485713D02*
X125415000Y-98438094D01*
X125415000Y-98438094D02*
X125367380Y-98342856D01*
X125367380Y-98342856D02*
X125367380Y-98104761D01*
X125367380Y-98104761D02*
X125415000Y-98009523D01*
X125415000Y-98009523D02*
X125462619Y-97961904D01*
X125462619Y-97961904D02*
X125557857Y-97914285D01*
X125557857Y-97914285D02*
X125653095Y-97914285D01*
X125653095Y-97914285D02*
X125795952Y-97961904D01*
X125795952Y-97961904D02*
X126367380Y-98533332D01*
X126367380Y-98533332D02*
X126367380Y-97914285D01*
X180117380Y-39166666D02*
X179641190Y-39499999D01*
X180117380Y-39738094D02*
X179117380Y-39738094D01*
X179117380Y-39738094D02*
X179117380Y-39357142D01*
X179117380Y-39357142D02*
X179165000Y-39261904D01*
X179165000Y-39261904D02*
X179212619Y-39214285D01*
X179212619Y-39214285D02*
X179307857Y-39166666D01*
X179307857Y-39166666D02*
X179450714Y-39166666D01*
X179450714Y-39166666D02*
X179545952Y-39214285D01*
X179545952Y-39214285D02*
X179593571Y-39261904D01*
X179593571Y-39261904D02*
X179641190Y-39357142D01*
X179641190Y-39357142D02*
X179641190Y-39738094D01*
X179117380Y-38309523D02*
X179117380Y-38499999D01*
X179117380Y-38499999D02*
X179165000Y-38595237D01*
X179165000Y-38595237D02*
X179212619Y-38642856D01*
X179212619Y-38642856D02*
X179355476Y-38738094D01*
X179355476Y-38738094D02*
X179545952Y-38785713D01*
X179545952Y-38785713D02*
X179926904Y-38785713D01*
X179926904Y-38785713D02*
X180022142Y-38738094D01*
X180022142Y-38738094D02*
X180069761Y-38690475D01*
X180069761Y-38690475D02*
X180117380Y-38595237D01*
X180117380Y-38595237D02*
X180117380Y-38404761D01*
X180117380Y-38404761D02*
X180069761Y-38309523D01*
X180069761Y-38309523D02*
X180022142Y-38261904D01*
X180022142Y-38261904D02*
X179926904Y-38214285D01*
X179926904Y-38214285D02*
X179688809Y-38214285D01*
X179688809Y-38214285D02*
X179593571Y-38261904D01*
X179593571Y-38261904D02*
X179545952Y-38309523D01*
X179545952Y-38309523D02*
X179498333Y-38404761D01*
X179498333Y-38404761D02*
X179498333Y-38595237D01*
X179498333Y-38595237D02*
X179545952Y-38690475D01*
X179545952Y-38690475D02*
X179593571Y-38738094D01*
X179593571Y-38738094D02*
X179688809Y-38785713D01*
X180117380Y-93166666D02*
X179641190Y-93499999D01*
X180117380Y-93738094D02*
X179117380Y-93738094D01*
X179117380Y-93738094D02*
X179117380Y-93357142D01*
X179117380Y-93357142D02*
X179165000Y-93261904D01*
X179165000Y-93261904D02*
X179212619Y-93214285D01*
X179212619Y-93214285D02*
X179307857Y-93166666D01*
X179307857Y-93166666D02*
X179450714Y-93166666D01*
X179450714Y-93166666D02*
X179545952Y-93214285D01*
X179545952Y-93214285D02*
X179593571Y-93261904D01*
X179593571Y-93261904D02*
X179641190Y-93357142D01*
X179641190Y-93357142D02*
X179641190Y-93738094D01*
X179117380Y-92309523D02*
X179117380Y-92499999D01*
X179117380Y-92499999D02*
X179165000Y-92595237D01*
X179165000Y-92595237D02*
X179212619Y-92642856D01*
X179212619Y-92642856D02*
X179355476Y-92738094D01*
X179355476Y-92738094D02*
X179545952Y-92785713D01*
X179545952Y-92785713D02*
X179926904Y-92785713D01*
X179926904Y-92785713D02*
X180022142Y-92738094D01*
X180022142Y-92738094D02*
X180069761Y-92690475D01*
X180069761Y-92690475D02*
X180117380Y-92595237D01*
X180117380Y-92595237D02*
X180117380Y-92404761D01*
X180117380Y-92404761D02*
X180069761Y-92309523D01*
X180069761Y-92309523D02*
X180022142Y-92261904D01*
X180022142Y-92261904D02*
X179926904Y-92214285D01*
X179926904Y-92214285D02*
X179688809Y-92214285D01*
X179688809Y-92214285D02*
X179593571Y-92261904D01*
X179593571Y-92261904D02*
X179545952Y-92309523D01*
X179545952Y-92309523D02*
X179498333Y-92404761D01*
X179498333Y-92404761D02*
X179498333Y-92595237D01*
X179498333Y-92595237D02*
X179545952Y-92690475D01*
X179545952Y-92690475D02*
X179593571Y-92738094D01*
X179593571Y-92738094D02*
X179688809Y-92785713D01*
X138117380Y-39166666D02*
X137641190Y-39499999D01*
X138117380Y-39738094D02*
X137117380Y-39738094D01*
X137117380Y-39738094D02*
X137117380Y-39357142D01*
X137117380Y-39357142D02*
X137165000Y-39261904D01*
X137165000Y-39261904D02*
X137212619Y-39214285D01*
X137212619Y-39214285D02*
X137307857Y-39166666D01*
X137307857Y-39166666D02*
X137450714Y-39166666D01*
X137450714Y-39166666D02*
X137545952Y-39214285D01*
X137545952Y-39214285D02*
X137593571Y-39261904D01*
X137593571Y-39261904D02*
X137641190Y-39357142D01*
X137641190Y-39357142D02*
X137641190Y-39738094D01*
X137117380Y-38309523D02*
X137117380Y-38499999D01*
X137117380Y-38499999D02*
X137165000Y-38595237D01*
X137165000Y-38595237D02*
X137212619Y-38642856D01*
X137212619Y-38642856D02*
X137355476Y-38738094D01*
X137355476Y-38738094D02*
X137545952Y-38785713D01*
X137545952Y-38785713D02*
X137926904Y-38785713D01*
X137926904Y-38785713D02*
X138022142Y-38738094D01*
X138022142Y-38738094D02*
X138069761Y-38690475D01*
X138069761Y-38690475D02*
X138117380Y-38595237D01*
X138117380Y-38595237D02*
X138117380Y-38404761D01*
X138117380Y-38404761D02*
X138069761Y-38309523D01*
X138069761Y-38309523D02*
X138022142Y-38261904D01*
X138022142Y-38261904D02*
X137926904Y-38214285D01*
X137926904Y-38214285D02*
X137688809Y-38214285D01*
X137688809Y-38214285D02*
X137593571Y-38261904D01*
X137593571Y-38261904D02*
X137545952Y-38309523D01*
X137545952Y-38309523D02*
X137498333Y-38404761D01*
X137498333Y-38404761D02*
X137498333Y-38595237D01*
X137498333Y-38595237D02*
X137545952Y-38690475D01*
X137545952Y-38690475D02*
X137593571Y-38738094D01*
X137593571Y-38738094D02*
X137688809Y-38785713D01*
X138117380Y-93166666D02*
X137641190Y-93499999D01*
X138117380Y-93738094D02*
X137117380Y-93738094D01*
X137117380Y-93738094D02*
X137117380Y-93357142D01*
X137117380Y-93357142D02*
X137165000Y-93261904D01*
X137165000Y-93261904D02*
X137212619Y-93214285D01*
X137212619Y-93214285D02*
X137307857Y-93166666D01*
X137307857Y-93166666D02*
X137450714Y-93166666D01*
X137450714Y-93166666D02*
X137545952Y-93214285D01*
X137545952Y-93214285D02*
X137593571Y-93261904D01*
X137593571Y-93261904D02*
X137641190Y-93357142D01*
X137641190Y-93357142D02*
X137641190Y-93738094D01*
X137117380Y-92309523D02*
X137117380Y-92499999D01*
X137117380Y-92499999D02*
X137165000Y-92595237D01*
X137165000Y-92595237D02*
X137212619Y-92642856D01*
X137212619Y-92642856D02*
X137355476Y-92738094D01*
X137355476Y-92738094D02*
X137545952Y-92785713D01*
X137545952Y-92785713D02*
X137926904Y-92785713D01*
X137926904Y-92785713D02*
X138022142Y-92738094D01*
X138022142Y-92738094D02*
X138069761Y-92690475D01*
X138069761Y-92690475D02*
X138117380Y-92595237D01*
X138117380Y-92595237D02*
X138117380Y-92404761D01*
X138117380Y-92404761D02*
X138069761Y-92309523D01*
X138069761Y-92309523D02*
X138022142Y-92261904D01*
X138022142Y-92261904D02*
X137926904Y-92214285D01*
X137926904Y-92214285D02*
X137688809Y-92214285D01*
X137688809Y-92214285D02*
X137593571Y-92261904D01*
X137593571Y-92261904D02*
X137545952Y-92309523D01*
X137545952Y-92309523D02*
X137498333Y-92404761D01*
X137498333Y-92404761D02*
X137498333Y-92595237D01*
X137498333Y-92595237D02*
X137545952Y-92690475D01*
X137545952Y-92690475D02*
X137593571Y-92738094D01*
X137593571Y-92738094D02*
X137688809Y-92785713D01*
X182404761Y-34462619D02*
X182309523Y-34415000D01*
X182309523Y-34415000D02*
X182214285Y-34319761D01*
X182214285Y-34319761D02*
X182071428Y-34176904D01*
X182071428Y-34176904D02*
X181976190Y-34129285D01*
X181976190Y-34129285D02*
X181880952Y-34129285D01*
X181928571Y-34367380D02*
X181833333Y-34319761D01*
X181833333Y-34319761D02*
X181738095Y-34224523D01*
X181738095Y-34224523D02*
X181690476Y-34034047D01*
X181690476Y-34034047D02*
X181690476Y-33700714D01*
X181690476Y-33700714D02*
X181738095Y-33510238D01*
X181738095Y-33510238D02*
X181833333Y-33415000D01*
X181833333Y-33415000D02*
X181928571Y-33367380D01*
X181928571Y-33367380D02*
X182119047Y-33367380D01*
X182119047Y-33367380D02*
X182214285Y-33415000D01*
X182214285Y-33415000D02*
X182309523Y-33510238D01*
X182309523Y-33510238D02*
X182357142Y-33700714D01*
X182357142Y-33700714D02*
X182357142Y-34034047D01*
X182357142Y-34034047D02*
X182309523Y-34224523D01*
X182309523Y-34224523D02*
X182214285Y-34319761D01*
X182214285Y-34319761D02*
X182119047Y-34367380D01*
X182119047Y-34367380D02*
X181928571Y-34367380D01*
X183309523Y-34367380D02*
X182738095Y-34367380D01*
X183023809Y-34367380D02*
X183023809Y-33367380D01*
X183023809Y-33367380D02*
X182928571Y-33510238D01*
X182928571Y-33510238D02*
X182833333Y-33605476D01*
X182833333Y-33605476D02*
X182738095Y-33653095D01*
X182404761Y-88462619D02*
X182309523Y-88415000D01*
X182309523Y-88415000D02*
X182214285Y-88319761D01*
X182214285Y-88319761D02*
X182071428Y-88176904D01*
X182071428Y-88176904D02*
X181976190Y-88129285D01*
X181976190Y-88129285D02*
X181880952Y-88129285D01*
X181928571Y-88367380D02*
X181833333Y-88319761D01*
X181833333Y-88319761D02*
X181738095Y-88224523D01*
X181738095Y-88224523D02*
X181690476Y-88034047D01*
X181690476Y-88034047D02*
X181690476Y-87700714D01*
X181690476Y-87700714D02*
X181738095Y-87510238D01*
X181738095Y-87510238D02*
X181833333Y-87415000D01*
X181833333Y-87415000D02*
X181928571Y-87367380D01*
X181928571Y-87367380D02*
X182119047Y-87367380D01*
X182119047Y-87367380D02*
X182214285Y-87415000D01*
X182214285Y-87415000D02*
X182309523Y-87510238D01*
X182309523Y-87510238D02*
X182357142Y-87700714D01*
X182357142Y-87700714D02*
X182357142Y-88034047D01*
X182357142Y-88034047D02*
X182309523Y-88224523D01*
X182309523Y-88224523D02*
X182214285Y-88319761D01*
X182214285Y-88319761D02*
X182119047Y-88367380D01*
X182119047Y-88367380D02*
X181928571Y-88367380D01*
X183309523Y-88367380D02*
X182738095Y-88367380D01*
X183023809Y-88367380D02*
X183023809Y-87367380D01*
X183023809Y-87367380D02*
X182928571Y-87510238D01*
X182928571Y-87510238D02*
X182833333Y-87605476D01*
X182833333Y-87605476D02*
X182738095Y-87653095D01*
X140404761Y-34462619D02*
X140309523Y-34415000D01*
X140309523Y-34415000D02*
X140214285Y-34319761D01*
X140214285Y-34319761D02*
X140071428Y-34176904D01*
X140071428Y-34176904D02*
X139976190Y-34129285D01*
X139976190Y-34129285D02*
X139880952Y-34129285D01*
X139928571Y-34367380D02*
X139833333Y-34319761D01*
X139833333Y-34319761D02*
X139738095Y-34224523D01*
X139738095Y-34224523D02*
X139690476Y-34034047D01*
X139690476Y-34034047D02*
X139690476Y-33700714D01*
X139690476Y-33700714D02*
X139738095Y-33510238D01*
X139738095Y-33510238D02*
X139833333Y-33415000D01*
X139833333Y-33415000D02*
X139928571Y-33367380D01*
X139928571Y-33367380D02*
X140119047Y-33367380D01*
X140119047Y-33367380D02*
X140214285Y-33415000D01*
X140214285Y-33415000D02*
X140309523Y-33510238D01*
X140309523Y-33510238D02*
X140357142Y-33700714D01*
X140357142Y-33700714D02*
X140357142Y-34034047D01*
X140357142Y-34034047D02*
X140309523Y-34224523D01*
X140309523Y-34224523D02*
X140214285Y-34319761D01*
X140214285Y-34319761D02*
X140119047Y-34367380D01*
X140119047Y-34367380D02*
X139928571Y-34367380D01*
X141309523Y-34367380D02*
X140738095Y-34367380D01*
X141023809Y-34367380D02*
X141023809Y-33367380D01*
X141023809Y-33367380D02*
X140928571Y-33510238D01*
X140928571Y-33510238D02*
X140833333Y-33605476D01*
X140833333Y-33605476D02*
X140738095Y-33653095D01*
X140404761Y-88462619D02*
X140309523Y-88415000D01*
X140309523Y-88415000D02*
X140214285Y-88319761D01*
X140214285Y-88319761D02*
X140071428Y-88176904D01*
X140071428Y-88176904D02*
X139976190Y-88129285D01*
X139976190Y-88129285D02*
X139880952Y-88129285D01*
X139928571Y-88367380D02*
X139833333Y-88319761D01*
X139833333Y-88319761D02*
X139738095Y-88224523D01*
X139738095Y-88224523D02*
X139690476Y-88034047D01*
X139690476Y-88034047D02*
X139690476Y-87700714D01*
X139690476Y-87700714D02*
X139738095Y-87510238D01*
X139738095Y-87510238D02*
X139833333Y-87415000D01*
X139833333Y-87415000D02*
X139928571Y-87367380D01*
X139928571Y-87367380D02*
X140119047Y-87367380D01*
X140119047Y-87367380D02*
X140214285Y-87415000D01*
X140214285Y-87415000D02*
X140309523Y-87510238D01*
X140309523Y-87510238D02*
X140357142Y-87700714D01*
X140357142Y-87700714D02*
X140357142Y-88034047D01*
X140357142Y-88034047D02*
X140309523Y-88224523D01*
X140309523Y-88224523D02*
X140214285Y-88319761D01*
X140214285Y-88319761D02*
X140119047Y-88367380D01*
X140119047Y-88367380D02*
X139928571Y-88367380D01*
X141309523Y-88367380D02*
X140738095Y-88367380D01*
X141023809Y-88367380D02*
X141023809Y-87367380D01*
X141023809Y-87367380D02*
X140928571Y-87510238D01*
X140928571Y-87510238D02*
X140833333Y-87605476D01*
X140833333Y-87605476D02*
X140738095Y-87653095D01*
X173333333Y-40867380D02*
X173000000Y-40391190D01*
X172761905Y-40867380D02*
X172761905Y-39867380D01*
X172761905Y-39867380D02*
X173142857Y-39867380D01*
X173142857Y-39867380D02*
X173238095Y-39915000D01*
X173238095Y-39915000D02*
X173285714Y-39962619D01*
X173285714Y-39962619D02*
X173333333Y-40057857D01*
X173333333Y-40057857D02*
X173333333Y-40200714D01*
X173333333Y-40200714D02*
X173285714Y-40295952D01*
X173285714Y-40295952D02*
X173238095Y-40343571D01*
X173238095Y-40343571D02*
X173142857Y-40391190D01*
X173142857Y-40391190D02*
X172761905Y-40391190D01*
X174238095Y-39867380D02*
X173761905Y-39867380D01*
X173761905Y-39867380D02*
X173714286Y-40343571D01*
X173714286Y-40343571D02*
X173761905Y-40295952D01*
X173761905Y-40295952D02*
X173857143Y-40248333D01*
X173857143Y-40248333D02*
X174095238Y-40248333D01*
X174095238Y-40248333D02*
X174190476Y-40295952D01*
X174190476Y-40295952D02*
X174238095Y-40343571D01*
X174238095Y-40343571D02*
X174285714Y-40438809D01*
X174285714Y-40438809D02*
X174285714Y-40676904D01*
X174285714Y-40676904D02*
X174238095Y-40772142D01*
X174238095Y-40772142D02*
X174190476Y-40819761D01*
X174190476Y-40819761D02*
X174095238Y-40867380D01*
X174095238Y-40867380D02*
X173857143Y-40867380D01*
X173857143Y-40867380D02*
X173761905Y-40819761D01*
X173761905Y-40819761D02*
X173714286Y-40772142D01*
X173333333Y-94867380D02*
X173000000Y-94391190D01*
X172761905Y-94867380D02*
X172761905Y-93867380D01*
X172761905Y-93867380D02*
X173142857Y-93867380D01*
X173142857Y-93867380D02*
X173238095Y-93915000D01*
X173238095Y-93915000D02*
X173285714Y-93962619D01*
X173285714Y-93962619D02*
X173333333Y-94057857D01*
X173333333Y-94057857D02*
X173333333Y-94200714D01*
X173333333Y-94200714D02*
X173285714Y-94295952D01*
X173285714Y-94295952D02*
X173238095Y-94343571D01*
X173238095Y-94343571D02*
X173142857Y-94391190D01*
X173142857Y-94391190D02*
X172761905Y-94391190D01*
X174238095Y-93867380D02*
X173761905Y-93867380D01*
X173761905Y-93867380D02*
X173714286Y-94343571D01*
X173714286Y-94343571D02*
X173761905Y-94295952D01*
X173761905Y-94295952D02*
X173857143Y-94248333D01*
X173857143Y-94248333D02*
X174095238Y-94248333D01*
X174095238Y-94248333D02*
X174190476Y-94295952D01*
X174190476Y-94295952D02*
X174238095Y-94343571D01*
X174238095Y-94343571D02*
X174285714Y-94438809D01*
X174285714Y-94438809D02*
X174285714Y-94676904D01*
X174285714Y-94676904D02*
X174238095Y-94772142D01*
X174238095Y-94772142D02*
X174190476Y-94819761D01*
X174190476Y-94819761D02*
X174095238Y-94867380D01*
X174095238Y-94867380D02*
X173857143Y-94867380D01*
X173857143Y-94867380D02*
X173761905Y-94819761D01*
X173761905Y-94819761D02*
X173714286Y-94772142D01*
X131333333Y-40867380D02*
X131000000Y-40391190D01*
X130761905Y-40867380D02*
X130761905Y-39867380D01*
X130761905Y-39867380D02*
X131142857Y-39867380D01*
X131142857Y-39867380D02*
X131238095Y-39915000D01*
X131238095Y-39915000D02*
X131285714Y-39962619D01*
X131285714Y-39962619D02*
X131333333Y-40057857D01*
X131333333Y-40057857D02*
X131333333Y-40200714D01*
X131333333Y-40200714D02*
X131285714Y-40295952D01*
X131285714Y-40295952D02*
X131238095Y-40343571D01*
X131238095Y-40343571D02*
X131142857Y-40391190D01*
X131142857Y-40391190D02*
X130761905Y-40391190D01*
X132238095Y-39867380D02*
X131761905Y-39867380D01*
X131761905Y-39867380D02*
X131714286Y-40343571D01*
X131714286Y-40343571D02*
X131761905Y-40295952D01*
X131761905Y-40295952D02*
X131857143Y-40248333D01*
X131857143Y-40248333D02*
X132095238Y-40248333D01*
X132095238Y-40248333D02*
X132190476Y-40295952D01*
X132190476Y-40295952D02*
X132238095Y-40343571D01*
X132238095Y-40343571D02*
X132285714Y-40438809D01*
X132285714Y-40438809D02*
X132285714Y-40676904D01*
X132285714Y-40676904D02*
X132238095Y-40772142D01*
X132238095Y-40772142D02*
X132190476Y-40819761D01*
X132190476Y-40819761D02*
X132095238Y-40867380D01*
X132095238Y-40867380D02*
X131857143Y-40867380D01*
X131857143Y-40867380D02*
X131761905Y-40819761D01*
X131761905Y-40819761D02*
X131714286Y-40772142D01*
X131333333Y-94867380D02*
X131000000Y-94391190D01*
X130761905Y-94867380D02*
X130761905Y-93867380D01*
X130761905Y-93867380D02*
X131142857Y-93867380D01*
X131142857Y-93867380D02*
X131238095Y-93915000D01*
X131238095Y-93915000D02*
X131285714Y-93962619D01*
X131285714Y-93962619D02*
X131333333Y-94057857D01*
X131333333Y-94057857D02*
X131333333Y-94200714D01*
X131333333Y-94200714D02*
X131285714Y-94295952D01*
X131285714Y-94295952D02*
X131238095Y-94343571D01*
X131238095Y-94343571D02*
X131142857Y-94391190D01*
X131142857Y-94391190D02*
X130761905Y-94391190D01*
X132238095Y-93867380D02*
X131761905Y-93867380D01*
X131761905Y-93867380D02*
X131714286Y-94343571D01*
X131714286Y-94343571D02*
X131761905Y-94295952D01*
X131761905Y-94295952D02*
X131857143Y-94248333D01*
X131857143Y-94248333D02*
X132095238Y-94248333D01*
X132095238Y-94248333D02*
X132190476Y-94295952D01*
X132190476Y-94295952D02*
X132238095Y-94343571D01*
X132238095Y-94343571D02*
X132285714Y-94438809D01*
X132285714Y-94438809D02*
X132285714Y-94676904D01*
X132285714Y-94676904D02*
X132238095Y-94772142D01*
X132238095Y-94772142D02*
X132190476Y-94819761D01*
X132190476Y-94819761D02*
X132095238Y-94867380D01*
X132095238Y-94867380D02*
X131857143Y-94867380D01*
X131857143Y-94867380D02*
X131761905Y-94819761D01*
X131761905Y-94819761D02*
X131714286Y-94772142D01*
X174187380Y-34686666D02*
X173711190Y-35019999D01*
X174187380Y-35258094D02*
X173187380Y-35258094D01*
X173187380Y-35258094D02*
X173187380Y-34877142D01*
X173187380Y-34877142D02*
X173235000Y-34781904D01*
X173235000Y-34781904D02*
X173282619Y-34734285D01*
X173282619Y-34734285D02*
X173377857Y-34686666D01*
X173377857Y-34686666D02*
X173520714Y-34686666D01*
X173520714Y-34686666D02*
X173615952Y-34734285D01*
X173615952Y-34734285D02*
X173663571Y-34781904D01*
X173663571Y-34781904D02*
X173711190Y-34877142D01*
X173711190Y-34877142D02*
X173711190Y-35258094D01*
X173520714Y-33829523D02*
X174187380Y-33829523D01*
X173139761Y-34067618D02*
X173854047Y-34305713D01*
X173854047Y-34305713D02*
X173854047Y-33686666D01*
X174187380Y-88686666D02*
X173711190Y-89019999D01*
X174187380Y-89258094D02*
X173187380Y-89258094D01*
X173187380Y-89258094D02*
X173187380Y-88877142D01*
X173187380Y-88877142D02*
X173235000Y-88781904D01*
X173235000Y-88781904D02*
X173282619Y-88734285D01*
X173282619Y-88734285D02*
X173377857Y-88686666D01*
X173377857Y-88686666D02*
X173520714Y-88686666D01*
X173520714Y-88686666D02*
X173615952Y-88734285D01*
X173615952Y-88734285D02*
X173663571Y-88781904D01*
X173663571Y-88781904D02*
X173711190Y-88877142D01*
X173711190Y-88877142D02*
X173711190Y-89258094D01*
X173520714Y-87829523D02*
X174187380Y-87829523D01*
X173139761Y-88067618D02*
X173854047Y-88305713D01*
X173854047Y-88305713D02*
X173854047Y-87686666D01*
X132187380Y-34686666D02*
X131711190Y-35019999D01*
X132187380Y-35258094D02*
X131187380Y-35258094D01*
X131187380Y-35258094D02*
X131187380Y-34877142D01*
X131187380Y-34877142D02*
X131235000Y-34781904D01*
X131235000Y-34781904D02*
X131282619Y-34734285D01*
X131282619Y-34734285D02*
X131377857Y-34686666D01*
X131377857Y-34686666D02*
X131520714Y-34686666D01*
X131520714Y-34686666D02*
X131615952Y-34734285D01*
X131615952Y-34734285D02*
X131663571Y-34781904D01*
X131663571Y-34781904D02*
X131711190Y-34877142D01*
X131711190Y-34877142D02*
X131711190Y-35258094D01*
X131520714Y-33829523D02*
X132187380Y-33829523D01*
X131139761Y-34067618D02*
X131854047Y-34305713D01*
X131854047Y-34305713D02*
X131854047Y-33686666D01*
X132187380Y-88686666D02*
X131711190Y-89019999D01*
X132187380Y-89258094D02*
X131187380Y-89258094D01*
X131187380Y-89258094D02*
X131187380Y-88877142D01*
X131187380Y-88877142D02*
X131235000Y-88781904D01*
X131235000Y-88781904D02*
X131282619Y-88734285D01*
X131282619Y-88734285D02*
X131377857Y-88686666D01*
X131377857Y-88686666D02*
X131520714Y-88686666D01*
X131520714Y-88686666D02*
X131615952Y-88734285D01*
X131615952Y-88734285D02*
X131663571Y-88781904D01*
X131663571Y-88781904D02*
X131711190Y-88877142D01*
X131711190Y-88877142D02*
X131711190Y-89258094D01*
X131520714Y-87829523D02*
X132187380Y-87829523D01*
X131139761Y-88067618D02*
X131854047Y-88305713D01*
X131854047Y-88305713D02*
X131854047Y-87686666D01*
X170691666Y-54847380D02*
X170691666Y-55561666D01*
X170691666Y-55561666D02*
X170644047Y-55704523D01*
X170644047Y-55704523D02*
X170548809Y-55799761D01*
X170548809Y-55799761D02*
X170405952Y-55847380D01*
X170405952Y-55847380D02*
X170310714Y-55847380D01*
X171596428Y-55180714D02*
X171596428Y-55847380D01*
X171358333Y-54799761D02*
X171120238Y-55514047D01*
X171120238Y-55514047D02*
X171739285Y-55514047D01*
X170691666Y-108847380D02*
X170691666Y-109561666D01*
X170691666Y-109561666D02*
X170644047Y-109704523D01*
X170644047Y-109704523D02*
X170548809Y-109799761D01*
X170548809Y-109799761D02*
X170405952Y-109847380D01*
X170405952Y-109847380D02*
X170310714Y-109847380D01*
X171596428Y-109180714D02*
X171596428Y-109847380D01*
X171358333Y-108799761D02*
X171120238Y-109514047D01*
X171120238Y-109514047D02*
X171739285Y-109514047D01*
X128691666Y-54847380D02*
X128691666Y-55561666D01*
X128691666Y-55561666D02*
X128644047Y-55704523D01*
X128644047Y-55704523D02*
X128548809Y-55799761D01*
X128548809Y-55799761D02*
X128405952Y-55847380D01*
X128405952Y-55847380D02*
X128310714Y-55847380D01*
X129596428Y-55180714D02*
X129596428Y-55847380D01*
X129358333Y-54799761D02*
X129120238Y-55514047D01*
X129120238Y-55514047D02*
X129739285Y-55514047D01*
X128691666Y-108847380D02*
X128691666Y-109561666D01*
X128691666Y-109561666D02*
X128644047Y-109704523D01*
X128644047Y-109704523D02*
X128548809Y-109799761D01*
X128548809Y-109799761D02*
X128405952Y-109847380D01*
X128405952Y-109847380D02*
X128310714Y-109847380D01*
X129596428Y-109180714D02*
X129596428Y-109847380D01*
X129358333Y-108799761D02*
X129120238Y-109514047D01*
X129120238Y-109514047D02*
X129739285Y-109514047D01*
X186583333Y-32367380D02*
X186250000Y-31891190D01*
X186011905Y-32367380D02*
X186011905Y-31367380D01*
X186011905Y-31367380D02*
X186392857Y-31367380D01*
X186392857Y-31367380D02*
X186488095Y-31415000D01*
X186488095Y-31415000D02*
X186535714Y-31462619D01*
X186535714Y-31462619D02*
X186583333Y-31557857D01*
X186583333Y-31557857D02*
X186583333Y-31700714D01*
X186583333Y-31700714D02*
X186535714Y-31795952D01*
X186535714Y-31795952D02*
X186488095Y-31843571D01*
X186488095Y-31843571D02*
X186392857Y-31891190D01*
X186392857Y-31891190D02*
X186011905Y-31891190D01*
X186916667Y-31367380D02*
X187583333Y-31367380D01*
X187583333Y-31367380D02*
X187154762Y-32367380D01*
X186583333Y-86367380D02*
X186250000Y-85891190D01*
X186011905Y-86367380D02*
X186011905Y-85367380D01*
X186011905Y-85367380D02*
X186392857Y-85367380D01*
X186392857Y-85367380D02*
X186488095Y-85415000D01*
X186488095Y-85415000D02*
X186535714Y-85462619D01*
X186535714Y-85462619D02*
X186583333Y-85557857D01*
X186583333Y-85557857D02*
X186583333Y-85700714D01*
X186583333Y-85700714D02*
X186535714Y-85795952D01*
X186535714Y-85795952D02*
X186488095Y-85843571D01*
X186488095Y-85843571D02*
X186392857Y-85891190D01*
X186392857Y-85891190D02*
X186011905Y-85891190D01*
X186916667Y-85367380D02*
X187583333Y-85367380D01*
X187583333Y-85367380D02*
X187154762Y-86367380D01*
X144583333Y-32367380D02*
X144250000Y-31891190D01*
X144011905Y-32367380D02*
X144011905Y-31367380D01*
X144011905Y-31367380D02*
X144392857Y-31367380D01*
X144392857Y-31367380D02*
X144488095Y-31415000D01*
X144488095Y-31415000D02*
X144535714Y-31462619D01*
X144535714Y-31462619D02*
X144583333Y-31557857D01*
X144583333Y-31557857D02*
X144583333Y-31700714D01*
X144583333Y-31700714D02*
X144535714Y-31795952D01*
X144535714Y-31795952D02*
X144488095Y-31843571D01*
X144488095Y-31843571D02*
X144392857Y-31891190D01*
X144392857Y-31891190D02*
X144011905Y-31891190D01*
X144916667Y-31367380D02*
X145583333Y-31367380D01*
X145583333Y-31367380D02*
X145154762Y-32367380D01*
X144583333Y-86367380D02*
X144250000Y-85891190D01*
X144011905Y-86367380D02*
X144011905Y-85367380D01*
X144011905Y-85367380D02*
X144392857Y-85367380D01*
X144392857Y-85367380D02*
X144488095Y-85415000D01*
X144488095Y-85415000D02*
X144535714Y-85462619D01*
X144535714Y-85462619D02*
X144583333Y-85557857D01*
X144583333Y-85557857D02*
X144583333Y-85700714D01*
X144583333Y-85700714D02*
X144535714Y-85795952D01*
X144535714Y-85795952D02*
X144488095Y-85843571D01*
X144488095Y-85843571D02*
X144392857Y-85891190D01*
X144392857Y-85891190D02*
X144011905Y-85891190D01*
X144916667Y-85367380D02*
X145583333Y-85367380D01*
X145583333Y-85367380D02*
X145154762Y-86367380D01*
X179867380Y-29666666D02*
X179391190Y-29999999D01*
X179867380Y-30238094D02*
X178867380Y-30238094D01*
X178867380Y-30238094D02*
X178867380Y-29857142D01*
X178867380Y-29857142D02*
X178915000Y-29761904D01*
X178915000Y-29761904D02*
X178962619Y-29714285D01*
X178962619Y-29714285D02*
X179057857Y-29666666D01*
X179057857Y-29666666D02*
X179200714Y-29666666D01*
X179200714Y-29666666D02*
X179295952Y-29714285D01*
X179295952Y-29714285D02*
X179343571Y-29761904D01*
X179343571Y-29761904D02*
X179391190Y-29857142D01*
X179391190Y-29857142D02*
X179391190Y-30238094D01*
X178962619Y-29285713D02*
X178915000Y-29238094D01*
X178915000Y-29238094D02*
X178867380Y-29142856D01*
X178867380Y-29142856D02*
X178867380Y-28904761D01*
X178867380Y-28904761D02*
X178915000Y-28809523D01*
X178915000Y-28809523D02*
X178962619Y-28761904D01*
X178962619Y-28761904D02*
X179057857Y-28714285D01*
X179057857Y-28714285D02*
X179153095Y-28714285D01*
X179153095Y-28714285D02*
X179295952Y-28761904D01*
X179295952Y-28761904D02*
X179867380Y-29333332D01*
X179867380Y-29333332D02*
X179867380Y-28714285D01*
X179867380Y-83666666D02*
X179391190Y-83999999D01*
X179867380Y-84238094D02*
X178867380Y-84238094D01*
X178867380Y-84238094D02*
X178867380Y-83857142D01*
X178867380Y-83857142D02*
X178915000Y-83761904D01*
X178915000Y-83761904D02*
X178962619Y-83714285D01*
X178962619Y-83714285D02*
X179057857Y-83666666D01*
X179057857Y-83666666D02*
X179200714Y-83666666D01*
X179200714Y-83666666D02*
X179295952Y-83714285D01*
X179295952Y-83714285D02*
X179343571Y-83761904D01*
X179343571Y-83761904D02*
X179391190Y-83857142D01*
X179391190Y-83857142D02*
X179391190Y-84238094D01*
X178962619Y-83285713D02*
X178915000Y-83238094D01*
X178915000Y-83238094D02*
X178867380Y-83142856D01*
X178867380Y-83142856D02*
X178867380Y-82904761D01*
X178867380Y-82904761D02*
X178915000Y-82809523D01*
X178915000Y-82809523D02*
X178962619Y-82761904D01*
X178962619Y-82761904D02*
X179057857Y-82714285D01*
X179057857Y-82714285D02*
X179153095Y-82714285D01*
X179153095Y-82714285D02*
X179295952Y-82761904D01*
X179295952Y-82761904D02*
X179867380Y-83333332D01*
X179867380Y-83333332D02*
X179867380Y-82714285D01*
X137867380Y-29666666D02*
X137391190Y-29999999D01*
X137867380Y-30238094D02*
X136867380Y-30238094D01*
X136867380Y-30238094D02*
X136867380Y-29857142D01*
X136867380Y-29857142D02*
X136915000Y-29761904D01*
X136915000Y-29761904D02*
X136962619Y-29714285D01*
X136962619Y-29714285D02*
X137057857Y-29666666D01*
X137057857Y-29666666D02*
X137200714Y-29666666D01*
X137200714Y-29666666D02*
X137295952Y-29714285D01*
X137295952Y-29714285D02*
X137343571Y-29761904D01*
X137343571Y-29761904D02*
X137391190Y-29857142D01*
X137391190Y-29857142D02*
X137391190Y-30238094D01*
X136962619Y-29285713D02*
X136915000Y-29238094D01*
X136915000Y-29238094D02*
X136867380Y-29142856D01*
X136867380Y-29142856D02*
X136867380Y-28904761D01*
X136867380Y-28904761D02*
X136915000Y-28809523D01*
X136915000Y-28809523D02*
X136962619Y-28761904D01*
X136962619Y-28761904D02*
X137057857Y-28714285D01*
X137057857Y-28714285D02*
X137153095Y-28714285D01*
X137153095Y-28714285D02*
X137295952Y-28761904D01*
X137295952Y-28761904D02*
X137867380Y-29333332D01*
X137867380Y-29333332D02*
X137867380Y-28714285D01*
X137867380Y-83666666D02*
X137391190Y-83999999D01*
X137867380Y-84238094D02*
X136867380Y-84238094D01*
X136867380Y-84238094D02*
X136867380Y-83857142D01*
X136867380Y-83857142D02*
X136915000Y-83761904D01*
X136915000Y-83761904D02*
X136962619Y-83714285D01*
X136962619Y-83714285D02*
X137057857Y-83666666D01*
X137057857Y-83666666D02*
X137200714Y-83666666D01*
X137200714Y-83666666D02*
X137295952Y-83714285D01*
X137295952Y-83714285D02*
X137343571Y-83761904D01*
X137343571Y-83761904D02*
X137391190Y-83857142D01*
X137391190Y-83857142D02*
X137391190Y-84238094D01*
X136962619Y-83285713D02*
X136915000Y-83238094D01*
X136915000Y-83238094D02*
X136867380Y-83142856D01*
X136867380Y-83142856D02*
X136867380Y-82904761D01*
X136867380Y-82904761D02*
X136915000Y-82809523D01*
X136915000Y-82809523D02*
X136962619Y-82761904D01*
X136962619Y-82761904D02*
X137057857Y-82714285D01*
X137057857Y-82714285D02*
X137153095Y-82714285D01*
X137153095Y-82714285D02*
X137295952Y-82761904D01*
X137295952Y-82761904D02*
X137867380Y-83333332D01*
X137867380Y-83333332D02*
X137867380Y-82714285D01*
X164583333Y-65272142D02*
X164535714Y-65319761D01*
X164535714Y-65319761D02*
X164392857Y-65367380D01*
X164392857Y-65367380D02*
X164297619Y-65367380D01*
X164297619Y-65367380D02*
X164154762Y-65319761D01*
X164154762Y-65319761D02*
X164059524Y-65224523D01*
X164059524Y-65224523D02*
X164011905Y-65129285D01*
X164011905Y-65129285D02*
X163964286Y-64938809D01*
X163964286Y-64938809D02*
X163964286Y-64795952D01*
X163964286Y-64795952D02*
X164011905Y-64605476D01*
X164011905Y-64605476D02*
X164059524Y-64510238D01*
X164059524Y-64510238D02*
X164154762Y-64415000D01*
X164154762Y-64415000D02*
X164297619Y-64367380D01*
X164297619Y-64367380D02*
X164392857Y-64367380D01*
X164392857Y-64367380D02*
X164535714Y-64415000D01*
X164535714Y-64415000D02*
X164583333Y-64462619D01*
X165488095Y-64367380D02*
X165011905Y-64367380D01*
X165011905Y-64367380D02*
X164964286Y-64843571D01*
X164964286Y-64843571D02*
X165011905Y-64795952D01*
X165011905Y-64795952D02*
X165107143Y-64748333D01*
X165107143Y-64748333D02*
X165345238Y-64748333D01*
X165345238Y-64748333D02*
X165440476Y-64795952D01*
X165440476Y-64795952D02*
X165488095Y-64843571D01*
X165488095Y-64843571D02*
X165535714Y-64938809D01*
X165535714Y-64938809D02*
X165535714Y-65176904D01*
X165535714Y-65176904D02*
X165488095Y-65272142D01*
X165488095Y-65272142D02*
X165440476Y-65319761D01*
X165440476Y-65319761D02*
X165345238Y-65367380D01*
X165345238Y-65367380D02*
X165107143Y-65367380D01*
X165107143Y-65367380D02*
X165011905Y-65319761D01*
X165011905Y-65319761D02*
X164964286Y-65272142D01*
X164583333Y-119272142D02*
X164535714Y-119319761D01*
X164535714Y-119319761D02*
X164392857Y-119367380D01*
X164392857Y-119367380D02*
X164297619Y-119367380D01*
X164297619Y-119367380D02*
X164154762Y-119319761D01*
X164154762Y-119319761D02*
X164059524Y-119224523D01*
X164059524Y-119224523D02*
X164011905Y-119129285D01*
X164011905Y-119129285D02*
X163964286Y-118938809D01*
X163964286Y-118938809D02*
X163964286Y-118795952D01*
X163964286Y-118795952D02*
X164011905Y-118605476D01*
X164011905Y-118605476D02*
X164059524Y-118510238D01*
X164059524Y-118510238D02*
X164154762Y-118415000D01*
X164154762Y-118415000D02*
X164297619Y-118367380D01*
X164297619Y-118367380D02*
X164392857Y-118367380D01*
X164392857Y-118367380D02*
X164535714Y-118415000D01*
X164535714Y-118415000D02*
X164583333Y-118462619D01*
X165488095Y-118367380D02*
X165011905Y-118367380D01*
X165011905Y-118367380D02*
X164964286Y-118843571D01*
X164964286Y-118843571D02*
X165011905Y-118795952D01*
X165011905Y-118795952D02*
X165107143Y-118748333D01*
X165107143Y-118748333D02*
X165345238Y-118748333D01*
X165345238Y-118748333D02*
X165440476Y-118795952D01*
X165440476Y-118795952D02*
X165488095Y-118843571D01*
X165488095Y-118843571D02*
X165535714Y-118938809D01*
X165535714Y-118938809D02*
X165535714Y-119176904D01*
X165535714Y-119176904D02*
X165488095Y-119272142D01*
X165488095Y-119272142D02*
X165440476Y-119319761D01*
X165440476Y-119319761D02*
X165345238Y-119367380D01*
X165345238Y-119367380D02*
X165107143Y-119367380D01*
X165107143Y-119367380D02*
X165011905Y-119319761D01*
X165011905Y-119319761D02*
X164964286Y-119272142D01*
X122583333Y-65272142D02*
X122535714Y-65319761D01*
X122535714Y-65319761D02*
X122392857Y-65367380D01*
X122392857Y-65367380D02*
X122297619Y-65367380D01*
X122297619Y-65367380D02*
X122154762Y-65319761D01*
X122154762Y-65319761D02*
X122059524Y-65224523D01*
X122059524Y-65224523D02*
X122011905Y-65129285D01*
X122011905Y-65129285D02*
X121964286Y-64938809D01*
X121964286Y-64938809D02*
X121964286Y-64795952D01*
X121964286Y-64795952D02*
X122011905Y-64605476D01*
X122011905Y-64605476D02*
X122059524Y-64510238D01*
X122059524Y-64510238D02*
X122154762Y-64415000D01*
X122154762Y-64415000D02*
X122297619Y-64367380D01*
X122297619Y-64367380D02*
X122392857Y-64367380D01*
X122392857Y-64367380D02*
X122535714Y-64415000D01*
X122535714Y-64415000D02*
X122583333Y-64462619D01*
X123488095Y-64367380D02*
X123011905Y-64367380D01*
X123011905Y-64367380D02*
X122964286Y-64843571D01*
X122964286Y-64843571D02*
X123011905Y-64795952D01*
X123011905Y-64795952D02*
X123107143Y-64748333D01*
X123107143Y-64748333D02*
X123345238Y-64748333D01*
X123345238Y-64748333D02*
X123440476Y-64795952D01*
X123440476Y-64795952D02*
X123488095Y-64843571D01*
X123488095Y-64843571D02*
X123535714Y-64938809D01*
X123535714Y-64938809D02*
X123535714Y-65176904D01*
X123535714Y-65176904D02*
X123488095Y-65272142D01*
X123488095Y-65272142D02*
X123440476Y-65319761D01*
X123440476Y-65319761D02*
X123345238Y-65367380D01*
X123345238Y-65367380D02*
X123107143Y-65367380D01*
X123107143Y-65367380D02*
X123011905Y-65319761D01*
X123011905Y-65319761D02*
X122964286Y-65272142D01*
X122583333Y-119272142D02*
X122535714Y-119319761D01*
X122535714Y-119319761D02*
X122392857Y-119367380D01*
X122392857Y-119367380D02*
X122297619Y-119367380D01*
X122297619Y-119367380D02*
X122154762Y-119319761D01*
X122154762Y-119319761D02*
X122059524Y-119224523D01*
X122059524Y-119224523D02*
X122011905Y-119129285D01*
X122011905Y-119129285D02*
X121964286Y-118938809D01*
X121964286Y-118938809D02*
X121964286Y-118795952D01*
X121964286Y-118795952D02*
X122011905Y-118605476D01*
X122011905Y-118605476D02*
X122059524Y-118510238D01*
X122059524Y-118510238D02*
X122154762Y-118415000D01*
X122154762Y-118415000D02*
X122297619Y-118367380D01*
X122297619Y-118367380D02*
X122392857Y-118367380D01*
X122392857Y-118367380D02*
X122535714Y-118415000D01*
X122535714Y-118415000D02*
X122583333Y-118462619D01*
X123488095Y-118367380D02*
X123011905Y-118367380D01*
X123011905Y-118367380D02*
X122964286Y-118843571D01*
X122964286Y-118843571D02*
X123011905Y-118795952D01*
X123011905Y-118795952D02*
X123107143Y-118748333D01*
X123107143Y-118748333D02*
X123345238Y-118748333D01*
X123345238Y-118748333D02*
X123440476Y-118795952D01*
X123440476Y-118795952D02*
X123488095Y-118843571D01*
X123488095Y-118843571D02*
X123535714Y-118938809D01*
X123535714Y-118938809D02*
X123535714Y-119176904D01*
X123535714Y-119176904D02*
X123488095Y-119272142D01*
X123488095Y-119272142D02*
X123440476Y-119319761D01*
X123440476Y-119319761D02*
X123345238Y-119367380D01*
X123345238Y-119367380D02*
X123107143Y-119367380D01*
X123107143Y-119367380D02*
X123011905Y-119319761D01*
X123011905Y-119319761D02*
X122964286Y-119272142D01*
D11*
X164750000Y-38890000D02*
X161825000Y-38890000D01*
X164750000Y-38890000D02*
X166250000Y-38890000D01*
X164750000Y-42110000D02*
X163250000Y-42110000D01*
X164750000Y-42110000D02*
X166250000Y-42110000D01*
X164750000Y-92890000D02*
X161825000Y-92890000D01*
X164750000Y-92890000D02*
X166250000Y-92890000D01*
X164750000Y-96110000D02*
X163250000Y-96110000D01*
X164750000Y-96110000D02*
X166250000Y-96110000D01*
X122750000Y-38890000D02*
X119825000Y-38890000D01*
X122750000Y-38890000D02*
X124250000Y-38890000D01*
X122750000Y-42110000D02*
X121250000Y-42110000D01*
X122750000Y-42110000D02*
X124250000Y-42110000D01*
X122750000Y-92890000D02*
X119825000Y-92890000D01*
X122750000Y-92890000D02*
X124250000Y-92890000D01*
X122750000Y-96110000D02*
X121250000Y-96110000D01*
X122750000Y-96110000D02*
X124250000Y-96110000D01*
X164750000Y-84140000D02*
X161825000Y-84140000D01*
X164750000Y-84140000D02*
X166250000Y-84140000D01*
X164750000Y-87360000D02*
X163250000Y-87360000D01*
X164750000Y-87360000D02*
X166250000Y-87360000D01*
X122750000Y-30140000D02*
X119825000Y-30140000D01*
X122750000Y-30140000D02*
X124250000Y-30140000D01*
X122750000Y-33360000D02*
X121250000Y-33360000D01*
X122750000Y-33360000D02*
X124250000Y-33360000D01*
X122750000Y-84140000D02*
X119825000Y-84140000D01*
X122750000Y-84140000D02*
X124250000Y-84140000D01*
X122750000Y-87360000D02*
X121250000Y-87360000D01*
X122750000Y-87360000D02*
X124250000Y-87360000D01*
X164750000Y-30140000D02*
X161825000Y-30140000D01*
X164750000Y-30140000D02*
X166250000Y-30140000D01*
X164750000Y-33360000D02*
X163250000Y-33360000D01*
X164750000Y-33360000D02*
X166250000Y-33360000D01*
X174760000Y-61966233D02*
X174760000Y-62258767D01*
X173740000Y-61966233D02*
X173740000Y-62258767D01*
X174760000Y-115966233D02*
X174760000Y-116258767D01*
X173740000Y-115966233D02*
X173740000Y-116258767D01*
X132760000Y-61966233D02*
X132760000Y-62258767D01*
X131740000Y-61966233D02*
X131740000Y-62258767D01*
X132760000Y-115966233D02*
X132760000Y-116258767D01*
X131740000Y-115966233D02*
X131740000Y-116258767D01*
X178920000Y-23830000D02*
X178920000Y-22500000D01*
X180250000Y-23830000D02*
X178920000Y-23830000D01*
X181520000Y-23830000D02*
X184120000Y-23830000D01*
X181520000Y-23830000D02*
X181520000Y-21170000D01*
X184120000Y-23830000D02*
X184120000Y-21170000D01*
X181520000Y-21170000D02*
X184120000Y-21170000D01*
X178920000Y-77830000D02*
X178920000Y-76500000D01*
X180250000Y-77830000D02*
X178920000Y-77830000D01*
X181520000Y-77830000D02*
X184120000Y-77830000D01*
X181520000Y-77830000D02*
X181520000Y-75170000D01*
X184120000Y-77830000D02*
X184120000Y-75170000D01*
X181520000Y-75170000D02*
X184120000Y-75170000D01*
X136920000Y-23830000D02*
X136920000Y-22500000D01*
X138250000Y-23830000D02*
X136920000Y-23830000D01*
X139520000Y-23830000D02*
X142120000Y-23830000D01*
X139520000Y-23830000D02*
X139520000Y-21170000D01*
X142120000Y-23830000D02*
X142120000Y-21170000D01*
X139520000Y-21170000D02*
X142120000Y-21170000D01*
X136920000Y-77830000D02*
X136920000Y-76500000D01*
X138250000Y-77830000D02*
X136920000Y-77830000D01*
X139520000Y-77830000D02*
X142120000Y-77830000D01*
X139520000Y-77830000D02*
X139520000Y-75170000D01*
X142120000Y-77830000D02*
X142120000Y-75170000D01*
X139520000Y-75170000D02*
X142120000Y-75170000D01*
X168990000Y-34846267D02*
X168990000Y-34553733D01*
X170010000Y-34846267D02*
X170010000Y-34553733D01*
X168990000Y-88846267D02*
X168990000Y-88553733D01*
X170010000Y-88846267D02*
X170010000Y-88553733D01*
X126990000Y-34846267D02*
X126990000Y-34553733D01*
X128010000Y-34846267D02*
X128010000Y-34553733D01*
X126990000Y-88846267D02*
X126990000Y-88553733D01*
X128010000Y-88846267D02*
X128010000Y-88553733D01*
X161500000Y-57620000D02*
X162640000Y-57620000D01*
X162640000Y-57390000D02*
X162640000Y-57620000D01*
X162640000Y-57390000D02*
X165360000Y-57390000D01*
X162640000Y-62110000D02*
X162640000Y-61880000D01*
X165360000Y-57390000D02*
X165360000Y-58700000D01*
X165360000Y-60800000D02*
X165360000Y-62110000D01*
X165360000Y-62110000D02*
X162640000Y-62110000D01*
X161500000Y-111620000D02*
X162640000Y-111620000D01*
X162640000Y-111390000D02*
X162640000Y-111620000D01*
X162640000Y-111390000D02*
X165360000Y-111390000D01*
X162640000Y-116110000D02*
X162640000Y-115880000D01*
X165360000Y-111390000D02*
X165360000Y-112700000D01*
X165360000Y-114800000D02*
X165360000Y-116110000D01*
X165360000Y-116110000D02*
X162640000Y-116110000D01*
X119500000Y-57620000D02*
X120640000Y-57620000D01*
X120640000Y-57390000D02*
X120640000Y-57620000D01*
X120640000Y-57390000D02*
X123360000Y-57390000D01*
X120640000Y-62110000D02*
X120640000Y-61880000D01*
X123360000Y-57390000D02*
X123360000Y-58700000D01*
X123360000Y-60800000D02*
X123360000Y-62110000D01*
X123360000Y-62110000D02*
X120640000Y-62110000D01*
X119500000Y-111620000D02*
X120640000Y-111620000D01*
X120640000Y-111390000D02*
X120640000Y-111620000D01*
X120640000Y-111390000D02*
X123360000Y-111390000D01*
X120640000Y-116110000D02*
X120640000Y-115880000D01*
X123360000Y-111390000D02*
X123360000Y-112700000D01*
X123360000Y-114800000D02*
X123360000Y-116110000D01*
X123360000Y-116110000D02*
X120640000Y-116110000D01*
X170010000Y-38603733D02*
X170010000Y-38896267D01*
X168990000Y-38603733D02*
X168990000Y-38896267D01*
X170010000Y-92603733D02*
X170010000Y-92896267D01*
X168990000Y-92603733D02*
X168990000Y-92896267D01*
X128010000Y-38603733D02*
X128010000Y-38896267D01*
X126990000Y-38603733D02*
X126990000Y-38896267D01*
X128010000Y-92603733D02*
X128010000Y-92896267D01*
X126990000Y-92603733D02*
X126990000Y-92896267D01*
X158240000Y-59746267D02*
X158240000Y-59453733D01*
X159260000Y-59746267D02*
X159260000Y-59453733D01*
X158240000Y-113746267D02*
X158240000Y-113453733D01*
X159260000Y-113746267D02*
X159260000Y-113453733D01*
X116240000Y-59746267D02*
X116240000Y-59453733D01*
X117260000Y-59746267D02*
X117260000Y-59453733D01*
X116240000Y-113746267D02*
X116240000Y-113453733D01*
X117260000Y-113746267D02*
X117260000Y-113453733D01*
X151760000Y-57156233D02*
X151760000Y-57448767D01*
X150740000Y-57156233D02*
X150740000Y-57448767D01*
X151760000Y-111156233D02*
X151760000Y-111448767D01*
X150740000Y-111156233D02*
X150740000Y-111448767D01*
X109760000Y-57156233D02*
X109760000Y-57448767D01*
X108740000Y-57156233D02*
X108740000Y-57448767D01*
X109760000Y-111156233D02*
X109760000Y-111448767D01*
X108740000Y-111156233D02*
X108740000Y-111448767D01*
X182605000Y-59170000D02*
X182605000Y-60500000D01*
X181275000Y-59170000D02*
X182605000Y-59170000D01*
X180005000Y-59170000D02*
X177405000Y-59170000D01*
X180005000Y-59170000D02*
X180005000Y-61830000D01*
X177405000Y-59170000D02*
X177405000Y-61830000D01*
X180005000Y-61830000D02*
X177405000Y-61830000D01*
X182605000Y-113170000D02*
X182605000Y-114500000D01*
X181275000Y-113170000D02*
X182605000Y-113170000D01*
X180005000Y-113170000D02*
X177405000Y-113170000D01*
X180005000Y-113170000D02*
X180005000Y-115830000D01*
X177405000Y-113170000D02*
X177405000Y-115830000D01*
X180005000Y-115830000D02*
X177405000Y-115830000D01*
X140605000Y-59170000D02*
X140605000Y-60500000D01*
X139275000Y-59170000D02*
X140605000Y-59170000D01*
X138005000Y-59170000D02*
X135405000Y-59170000D01*
X138005000Y-59170000D02*
X138005000Y-61830000D01*
X135405000Y-59170000D02*
X135405000Y-61830000D01*
X138005000Y-61830000D02*
X135405000Y-61830000D01*
X140605000Y-113170000D02*
X140605000Y-114500000D01*
X139275000Y-113170000D02*
X140605000Y-113170000D01*
X138005000Y-113170000D02*
X135405000Y-113170000D01*
X138005000Y-113170000D02*
X138005000Y-115830000D01*
X135405000Y-113170000D02*
X135405000Y-115830000D01*
X138005000Y-115830000D02*
X135405000Y-115830000D01*
X172245276Y-26727500D02*
X172754724Y-26727500D01*
X172245276Y-27772500D02*
X172754724Y-27772500D01*
X172245276Y-80727500D02*
X172754724Y-80727500D01*
X172245276Y-81772500D02*
X172754724Y-81772500D01*
X130245276Y-26727500D02*
X130754724Y-26727500D01*
X130245276Y-27772500D02*
X130754724Y-27772500D01*
X130245276Y-80727500D02*
X130754724Y-80727500D01*
X130245276Y-81772500D02*
X130754724Y-81772500D01*
X172245276Y-31727500D02*
X172754724Y-31727500D01*
X172245276Y-32772500D02*
X172754724Y-32772500D01*
X172245276Y-85727500D02*
X172754724Y-85727500D01*
X172245276Y-86772500D02*
X172754724Y-86772500D01*
X130245276Y-31727500D02*
X130754724Y-31727500D01*
X130245276Y-32772500D02*
X130754724Y-32772500D01*
X130245276Y-85727500D02*
X130754724Y-85727500D01*
X130245276Y-86772500D02*
X130754724Y-86772500D01*
X188805000Y-60230000D02*
X188805000Y-57630000D01*
X188805000Y-60230000D02*
X186145000Y-60230000D01*
X188805000Y-57630000D02*
X186145000Y-57630000D01*
X187475000Y-62830000D02*
X186145000Y-62830000D01*
X186145000Y-62830000D02*
X186145000Y-61500000D01*
X186145000Y-60230000D02*
X186145000Y-57630000D01*
X188805000Y-114230000D02*
X188805000Y-111630000D01*
X188805000Y-114230000D02*
X186145000Y-114230000D01*
X188805000Y-111630000D02*
X186145000Y-111630000D01*
X187475000Y-116830000D02*
X186145000Y-116830000D01*
X186145000Y-116830000D02*
X186145000Y-115500000D01*
X186145000Y-114230000D02*
X186145000Y-111630000D01*
X146805000Y-60230000D02*
X146805000Y-57630000D01*
X146805000Y-60230000D02*
X144145000Y-60230000D01*
X146805000Y-57630000D02*
X144145000Y-57630000D01*
X145475000Y-62830000D02*
X144145000Y-62830000D01*
X144145000Y-62830000D02*
X144145000Y-61500000D01*
X144145000Y-60230000D02*
X144145000Y-57630000D01*
X146805000Y-114230000D02*
X146805000Y-111630000D01*
X146805000Y-114230000D02*
X144145000Y-114230000D01*
X146805000Y-111630000D02*
X144145000Y-111630000D01*
X145475000Y-116830000D02*
X144145000Y-116830000D01*
X144145000Y-116830000D02*
X144145000Y-115500000D01*
X144145000Y-114230000D02*
X144145000Y-111630000D01*
X173250000Y-50040000D02*
X174500000Y-50040000D01*
X173875000Y-49415000D02*
X173875000Y-50665000D01*
X174740000Y-48304437D02*
X174740000Y-51290000D01*
X174740000Y-48304437D02*
X175804437Y-47240000D01*
X174740000Y-56695563D02*
X174740000Y-53710000D01*
X174740000Y-56695563D02*
X175804437Y-57760000D01*
X175804437Y-47240000D02*
X185260000Y-47240000D01*
X175804437Y-57760000D02*
X185260000Y-57760000D01*
X185260000Y-47240000D02*
X185260000Y-51290000D01*
X185260000Y-57760000D02*
X185260000Y-53710000D01*
X173250000Y-104040000D02*
X174500000Y-104040000D01*
X173875000Y-103415000D02*
X173875000Y-104665000D01*
X174740000Y-102304437D02*
X174740000Y-105290000D01*
X174740000Y-102304437D02*
X175804437Y-101240000D01*
X174740000Y-110695563D02*
X174740000Y-107710000D01*
X174740000Y-110695563D02*
X175804437Y-111760000D01*
X175804437Y-101240000D02*
X185260000Y-101240000D01*
X175804437Y-111760000D02*
X185260000Y-111760000D01*
X185260000Y-101240000D02*
X185260000Y-105290000D01*
X185260000Y-111760000D02*
X185260000Y-107710000D01*
X131250000Y-50040000D02*
X132500000Y-50040000D01*
X131875000Y-49415000D02*
X131875000Y-50665000D01*
X132740000Y-48304437D02*
X132740000Y-51290000D01*
X132740000Y-48304437D02*
X133804437Y-47240000D01*
X132740000Y-56695563D02*
X132740000Y-53710000D01*
X132740000Y-56695563D02*
X133804437Y-57760000D01*
X133804437Y-47240000D02*
X143260000Y-47240000D01*
X133804437Y-57760000D02*
X143260000Y-57760000D01*
X143260000Y-47240000D02*
X143260000Y-51290000D01*
X143260000Y-57760000D02*
X143260000Y-53710000D01*
X131250000Y-104040000D02*
X132500000Y-104040000D01*
X131875000Y-103415000D02*
X131875000Y-104665000D01*
X132740000Y-102304437D02*
X132740000Y-105290000D01*
X132740000Y-102304437D02*
X133804437Y-101240000D01*
X132740000Y-110695563D02*
X132740000Y-107710000D01*
X132740000Y-110695563D02*
X133804437Y-111760000D01*
X133804437Y-101240000D02*
X143260000Y-101240000D01*
X133804437Y-111760000D02*
X143260000Y-111760000D01*
X143260000Y-101240000D02*
X143260000Y-105290000D01*
X143260000Y-111760000D02*
X143260000Y-107710000D01*
X170010000Y-30103733D02*
X170010000Y-30396267D01*
X168990000Y-30103733D02*
X168990000Y-30396267D01*
X170010000Y-84103733D02*
X170010000Y-84396267D01*
X168990000Y-84103733D02*
X168990000Y-84396267D01*
X128010000Y-30103733D02*
X128010000Y-30396267D01*
X126990000Y-30103733D02*
X126990000Y-30396267D01*
X128010000Y-84103733D02*
X128010000Y-84396267D01*
X126990000Y-84103733D02*
X126990000Y-84396267D01*
X168990000Y-43346267D02*
X168990000Y-43053733D01*
X170010000Y-43346267D02*
X170010000Y-43053733D01*
X168990000Y-97346267D02*
X168990000Y-97053733D01*
X170010000Y-97346267D02*
X170010000Y-97053733D01*
X126990000Y-43346267D02*
X126990000Y-43053733D01*
X128010000Y-43346267D02*
X128010000Y-43053733D01*
X126990000Y-97346267D02*
X126990000Y-97053733D01*
X128010000Y-97346267D02*
X128010000Y-97053733D01*
X175040000Y-40927064D02*
X175040000Y-36572936D01*
X178460000Y-40927064D02*
X178460000Y-36572936D01*
X175040000Y-94927064D02*
X175040000Y-90572936D01*
X178460000Y-94927064D02*
X178460000Y-90572936D01*
X133040000Y-40927064D02*
X133040000Y-36572936D01*
X136460000Y-40927064D02*
X136460000Y-36572936D01*
X133040000Y-94927064D02*
X133040000Y-90572936D01*
X136460000Y-94927064D02*
X136460000Y-90572936D01*
X188200000Y-38030000D02*
X187930000Y-38030000D01*
X187930000Y-38030000D02*
X187930000Y-35200000D01*
X181570000Y-38030000D02*
X181570000Y-36930000D01*
X181300000Y-38030000D02*
X181570000Y-38030000D01*
X188200000Y-44450000D02*
X188200000Y-38030000D01*
X181300000Y-44450000D02*
X181300000Y-38030000D01*
X188200000Y-92030000D02*
X187930000Y-92030000D01*
X187930000Y-92030000D02*
X187930000Y-89200000D01*
X181570000Y-92030000D02*
X181570000Y-90930000D01*
X181300000Y-92030000D02*
X181570000Y-92030000D01*
X188200000Y-98450000D02*
X188200000Y-92030000D01*
X181300000Y-98450000D02*
X181300000Y-92030000D01*
X146200000Y-38030000D02*
X145930000Y-38030000D01*
X145930000Y-38030000D02*
X145930000Y-35200000D01*
X139570000Y-38030000D02*
X139570000Y-36930000D01*
X139300000Y-38030000D02*
X139570000Y-38030000D01*
X146200000Y-44450000D02*
X146200000Y-38030000D01*
X139300000Y-44450000D02*
X139300000Y-38030000D01*
X146200000Y-92030000D02*
X145930000Y-92030000D01*
X145930000Y-92030000D02*
X145930000Y-89200000D01*
X139570000Y-92030000D02*
X139570000Y-90930000D01*
X139300000Y-92030000D02*
X139570000Y-92030000D01*
X146200000Y-98450000D02*
X146200000Y-92030000D01*
X139300000Y-98450000D02*
X139300000Y-92030000D01*
X172245276Y-41227500D02*
X172754724Y-41227500D01*
X172245276Y-42272500D02*
X172754724Y-42272500D01*
X172245276Y-95227500D02*
X172754724Y-95227500D01*
X172245276Y-96272500D02*
X172754724Y-96272500D01*
X130245276Y-41227500D02*
X130754724Y-41227500D01*
X130245276Y-42272500D02*
X130754724Y-42272500D01*
X130245276Y-95227500D02*
X130754724Y-95227500D01*
X130245276Y-96272500D02*
X130754724Y-96272500D01*
X171797500Y-35774724D02*
X171797500Y-35265276D01*
X172842500Y-35774724D02*
X172842500Y-35265276D01*
X171797500Y-89774724D02*
X171797500Y-89265276D01*
X172842500Y-89774724D02*
X172842500Y-89265276D01*
X129797500Y-35774724D02*
X129797500Y-35265276D01*
X130842500Y-35774724D02*
X130842500Y-35265276D01*
X129797500Y-89774724D02*
X129797500Y-89265276D01*
X130842500Y-89774724D02*
X130842500Y-89265276D01*
X169695000Y-59520000D02*
X169695000Y-62120000D01*
X169695000Y-59520000D02*
X172355000Y-59520000D01*
X169695000Y-62120000D02*
X172355000Y-62120000D01*
X171025000Y-56920000D02*
X172355000Y-56920000D01*
X172355000Y-56920000D02*
X172355000Y-58250000D01*
X172355000Y-59520000D02*
X172355000Y-62120000D01*
X169695000Y-113520000D02*
X169695000Y-116120000D01*
X169695000Y-113520000D02*
X172355000Y-113520000D01*
X169695000Y-116120000D02*
X172355000Y-116120000D01*
X171025000Y-110920000D02*
X172355000Y-110920000D01*
X172355000Y-110920000D02*
X172355000Y-112250000D01*
X172355000Y-113520000D02*
X172355000Y-116120000D01*
X127695000Y-59520000D02*
X127695000Y-62120000D01*
X127695000Y-59520000D02*
X130355000Y-59520000D01*
X127695000Y-62120000D02*
X130355000Y-62120000D01*
X129025000Y-56920000D02*
X130355000Y-56920000D01*
X130355000Y-56920000D02*
X130355000Y-58250000D01*
X130355000Y-59520000D02*
X130355000Y-62120000D01*
X127695000Y-113520000D02*
X127695000Y-116120000D01*
X127695000Y-113520000D02*
X130355000Y-113520000D01*
X127695000Y-116120000D02*
X130355000Y-116120000D01*
X129025000Y-110920000D02*
X130355000Y-110920000D01*
X130355000Y-110920000D02*
X130355000Y-112250000D01*
X130355000Y-113520000D02*
X130355000Y-116120000D01*
X186254724Y-34022500D02*
X185745276Y-34022500D01*
X186254724Y-32977500D02*
X185745276Y-32977500D01*
X186254724Y-88022500D02*
X185745276Y-88022500D01*
X186254724Y-86977500D02*
X185745276Y-86977500D01*
X144254724Y-34022500D02*
X143745276Y-34022500D01*
X144254724Y-32977500D02*
X143745276Y-32977500D01*
X144254724Y-88022500D02*
X143745276Y-88022500D01*
X144254724Y-86977500D02*
X143745276Y-86977500D01*
X175040000Y-32177064D02*
X175040000Y-27822936D01*
X178460000Y-32177064D02*
X178460000Y-27822936D01*
X175040000Y-86177064D02*
X175040000Y-81822936D01*
X178460000Y-86177064D02*
X178460000Y-81822936D01*
X133040000Y-32177064D02*
X133040000Y-27822936D01*
X136460000Y-32177064D02*
X136460000Y-27822936D01*
X133040000Y-86177064D02*
X133040000Y-81822936D01*
X136460000Y-86177064D02*
X136460000Y-81822936D01*
X165353733Y-62740000D02*
X165646267Y-62740000D01*
X165353733Y-63760000D02*
X165646267Y-63760000D01*
X165353733Y-116740000D02*
X165646267Y-116740000D01*
X165353733Y-117760000D02*
X165646267Y-117760000D01*
X123353733Y-62740000D02*
X123646267Y-62740000D01*
X123353733Y-63760000D02*
X123646267Y-63760000D01*
X123353733Y-116740000D02*
X123646267Y-116740000D01*
X123353733Y-117760000D02*
X123646267Y-117760000D01*
%LPC*%
D12*
X101500000Y-23000000D03*
D13*
X162550000Y-39500000D03*
X162550000Y-40000000D03*
X162550000Y-40500000D03*
X162550000Y-41000000D03*
X162550000Y-41500000D03*
X166950000Y-41500000D03*
X166950000Y-41000000D03*
X166950000Y-40500000D03*
X166950000Y-40000000D03*
X166950000Y-39500000D03*
X162550000Y-93500000D03*
X162550000Y-94000000D03*
X162550000Y-94500000D03*
X162550000Y-95000000D03*
X162550000Y-95500000D03*
X166950000Y-95500000D03*
X166950000Y-95000000D03*
X166950000Y-94500000D03*
X166950000Y-94000000D03*
X166950000Y-93500000D03*
X120550000Y-39500000D03*
X120550000Y-40000000D03*
X120550000Y-40500000D03*
X120550000Y-41000000D03*
X120550000Y-41500000D03*
X124950000Y-41500000D03*
X124950000Y-41000000D03*
X124950000Y-40500000D03*
X124950000Y-40000000D03*
X124950000Y-39500000D03*
X120550000Y-93500000D03*
X120550000Y-94000000D03*
X120550000Y-94500000D03*
X120550000Y-95000000D03*
X120550000Y-95500000D03*
X124950000Y-95500000D03*
X124950000Y-95000000D03*
X124950000Y-94500000D03*
X124950000Y-94000000D03*
X124950000Y-93500000D03*
X162550000Y-84750000D03*
X162550000Y-85250000D03*
X162550000Y-85750000D03*
X162550000Y-86250000D03*
X162550000Y-86750000D03*
X166950000Y-86750000D03*
X166950000Y-86250000D03*
X166950000Y-85750000D03*
X166950000Y-85250000D03*
X166950000Y-84750000D03*
X120550000Y-30750000D03*
X120550000Y-31250000D03*
X120550000Y-31750000D03*
X120550000Y-32250000D03*
X120550000Y-32750000D03*
X124950000Y-32750000D03*
X124950000Y-32250000D03*
X124950000Y-31750000D03*
X124950000Y-31250000D03*
X124950000Y-30750000D03*
X120550000Y-84750000D03*
X120550000Y-85250000D03*
X120550000Y-85750000D03*
X120550000Y-86250000D03*
X120550000Y-86750000D03*
X124950000Y-86750000D03*
X124950000Y-86250000D03*
X124950000Y-85750000D03*
X124950000Y-85250000D03*
X124950000Y-84750000D03*
X162550000Y-30750000D03*
X162550000Y-31250000D03*
X162550000Y-31750000D03*
X162550000Y-32250000D03*
X162550000Y-32750000D03*
X166950000Y-32750000D03*
X166950000Y-32250000D03*
X166950000Y-31750000D03*
X166950000Y-31250000D03*
X166950000Y-30750000D03*
D12*
X195500000Y-117000000D03*
D14*
X101500000Y-114000000D03*
D15*
X174250000Y-61250000D03*
X174250000Y-62975000D03*
X174250000Y-115250000D03*
X174250000Y-116975000D03*
X132250000Y-61250000D03*
X132250000Y-62975000D03*
X132250000Y-115250000D03*
X132250000Y-116975000D03*
D16*
X180249999Y-22499999D03*
D17*
X182789999Y-22499999D03*
D16*
X180249999Y-76499999D03*
D17*
X182789999Y-76499999D03*
D16*
X138249999Y-22499999D03*
D17*
X140789999Y-22499999D03*
D16*
X138249999Y-76499999D03*
D17*
X140789999Y-76499999D03*
D18*
X169500000Y-35562500D03*
X169500000Y-33837500D03*
X169500000Y-89562500D03*
X169500000Y-87837500D03*
X127500000Y-35562500D03*
X127500000Y-33837500D03*
X127500000Y-89562500D03*
X127500000Y-87837500D03*
D19*
X161549999Y-58249999D03*
D20*
X161637500Y-59750000D03*
D19*
X161549999Y-61249999D03*
X161549999Y-112249999D03*
D20*
X161637500Y-113750000D03*
D19*
X161549999Y-115249999D03*
X119549999Y-58249999D03*
D20*
X119637500Y-59750000D03*
D19*
X119549999Y-61249999D03*
X119549999Y-112249999D03*
D20*
X119637500Y-113750000D03*
D19*
X119549999Y-115249999D03*
D15*
X169500000Y-37887500D03*
X169500000Y-39612500D03*
X169500000Y-91887500D03*
X169500000Y-93612500D03*
X127500000Y-37887500D03*
X127500000Y-39612500D03*
X127500000Y-91887500D03*
X127500000Y-93612500D03*
D18*
X158750000Y-60462500D03*
X158750000Y-58737500D03*
X158750000Y-114462500D03*
X158750000Y-112737500D03*
X116750000Y-60462500D03*
X116750000Y-58737500D03*
X116750000Y-114462500D03*
X116750000Y-112737500D03*
D15*
X151250000Y-56440000D03*
X151250000Y-58165000D03*
X151250000Y-110440000D03*
X151250000Y-112165000D03*
X109250000Y-56440000D03*
X109250000Y-58165000D03*
X109250000Y-110440000D03*
X109250000Y-112165000D03*
D12*
X101500000Y-117000000D03*
D16*
X181274999Y-60499999D03*
D17*
X178734999Y-60499999D03*
D16*
X181274999Y-114499999D03*
D17*
X178734999Y-114499999D03*
D16*
X139274999Y-60499999D03*
D17*
X136734999Y-60499999D03*
D16*
X139274999Y-114499999D03*
D17*
X136734999Y-114499999D03*
D21*
X171587500Y-27250000D03*
X173412500Y-27250000D03*
X171587500Y-81250000D03*
X173412500Y-81250000D03*
X129587500Y-27250000D03*
X131412500Y-27250000D03*
X129587500Y-81250000D03*
X131412500Y-81250000D03*
X171587500Y-32250000D03*
X173412500Y-32250000D03*
X171587500Y-86250000D03*
X173412500Y-86250000D03*
X129587500Y-32250000D03*
X131412500Y-32250000D03*
X129587500Y-86250000D03*
X131412500Y-86250000D03*
D16*
X187474999Y-61499999D03*
D17*
X187474999Y-58959999D03*
D16*
X187474999Y-115499999D03*
D17*
X187474999Y-112959999D03*
D16*
X145474999Y-61499999D03*
D17*
X145474999Y-58959999D03*
D16*
X145474999Y-115499999D03*
D17*
X145474999Y-112959999D03*
D22*
X175650000Y-52500000D03*
X184350000Y-52500000D03*
X175650000Y-106500000D03*
X184350000Y-106500000D03*
X133650000Y-52500000D03*
X142350000Y-52500000D03*
X133650000Y-106500000D03*
X142350000Y-106500000D03*
D15*
X169500000Y-29387500D03*
X169500000Y-31112500D03*
X169500000Y-83387500D03*
X169500000Y-85112500D03*
X127500000Y-29387500D03*
X127500000Y-31112500D03*
X127500000Y-83387500D03*
X127500000Y-85112500D03*
D18*
X169500000Y-44062500D03*
X169500000Y-42337500D03*
X169500000Y-98062500D03*
X169500000Y-96337500D03*
X127500000Y-44062500D03*
X127500000Y-42337500D03*
X127500000Y-98062500D03*
X127500000Y-96337500D03*
D23*
X176750000Y-41800000D03*
X176750000Y-35700000D03*
X176750000Y-95800000D03*
X176750000Y-89700000D03*
X134750000Y-41800000D03*
X134750000Y-35700000D03*
X134750000Y-95800000D03*
X134750000Y-89700000D03*
D24*
X187030000Y-36300000D03*
D25*
X184750000Y-42600000D03*
D24*
X182470000Y-36300000D03*
X187030000Y-90300000D03*
D25*
X184750000Y-96600000D03*
D24*
X182470000Y-90300000D03*
X145030000Y-36300000D03*
D25*
X142750000Y-42600000D03*
D24*
X140470000Y-36300000D03*
X145030000Y-90300000D03*
D25*
X142750000Y-96600000D03*
D24*
X140470000Y-90300000D03*
D21*
X171587500Y-41750000D03*
X173412500Y-41750000D03*
X171587500Y-95750000D03*
X173412500Y-95750000D03*
X129587500Y-41750000D03*
X131412500Y-41750000D03*
X129587500Y-95750000D03*
X131412500Y-95750000D03*
D26*
X172320000Y-36432500D03*
X172320000Y-34607500D03*
X172320000Y-90432500D03*
X172320000Y-88607500D03*
X130320000Y-36432500D03*
X130320000Y-34607500D03*
X130320000Y-90432500D03*
X130320000Y-88607500D03*
D16*
X171024999Y-58249999D03*
D17*
X171024999Y-60789999D03*
D16*
X171024999Y-112249999D03*
D17*
X171024999Y-114789999D03*
D16*
X129024999Y-58249999D03*
D17*
X129024999Y-60789999D03*
D16*
X129024999Y-112249999D03*
D17*
X129024999Y-114789999D03*
D27*
X186912500Y-33500000D03*
X185087500Y-33500000D03*
X186912500Y-87500000D03*
X185087500Y-87500000D03*
X144912500Y-33500000D03*
X143087500Y-33500000D03*
X144912500Y-87500000D03*
X143087500Y-87500000D03*
D12*
X195500000Y-23000000D03*
D14*
X195500000Y-26000000D03*
D23*
X176750000Y-33050000D03*
X176750000Y-26950000D03*
X176750000Y-87050000D03*
X176750000Y-80950000D03*
X134750000Y-33050000D03*
X134750000Y-26950000D03*
X134750000Y-87050000D03*
X134750000Y-80950000D03*
D28*
X164637500Y-63250000D03*
X166362500Y-63250000D03*
X164637500Y-117250000D03*
X166362500Y-117250000D03*
X122637500Y-63250000D03*
X124362500Y-63250000D03*
X122637500Y-117250000D03*
X124362500Y-117250000D03*
D14*
X195500000Y-114000000D03*
X101500000Y-26000000D03*
D29*
X152500000Y-63000000D03*
D30*
X152500000Y-63000000D03*
D29*
X152500000Y-117000000D03*
D30*
X152500000Y-117000000D03*
D29*
X110500000Y-63000000D03*
D30*
X110500000Y-63000000D03*
D29*
X110500000Y-117000000D03*
D30*
X110500000Y-117000000D03*
D29*
X186500000Y-23000000D03*
D30*
X186500000Y-23000000D03*
D29*
X186500000Y-77000000D03*
D30*
X186500000Y-77000000D03*
D29*
X144500000Y-23000000D03*
D30*
X144500000Y-23000000D03*
D29*
X144500000Y-77000000D03*
D30*
X144500000Y-77000000D03*
D29*
X152500000Y-23000000D03*
D30*
X152500000Y-23000000D03*
D29*
X152500000Y-77000000D03*
D30*
X152500000Y-77000000D03*
D29*
X110500000Y-23000000D03*
D30*
X110500000Y-23000000D03*
D29*
X110500000Y-77000000D03*
D30*
X110500000Y-77000000D03*
M02*
